<svg width="29" height="29" viewBox="0 0 29 29" fill="none" xmlns="http://www.w3.org/2000/svg">
<path d="M2.20958 28.0814L14.0352 21.4026C14.1775 21.324 14.3374 21.2828 14.5 21.2828C14.6625 21.2828 14.8224 21.324 14.9647 21.4026L26.7903 28.0814C26.9707 28.1816 27.1788 28.2203 27.3831 28.1917C27.5874 28.1631 27.7769 28.0687 27.9228 27.9228C28.0687 27.7769 28.163 27.5875 28.1917 27.3832C28.2203 27.1788 28.1815 26.9707 28.0813 26.7904L21.4025 14.9648C21.324 14.8225 21.2828 14.6626 21.2828 14.5C21.2828 14.3375 21.324 14.1776 21.4025 14.0353L28.0813 2.20964C28.1815 2.02929 28.2203 1.8212 28.1917 1.61687C28.163 1.41255 28.0687 1.2231 27.9228 1.07721C27.7769 0.931315 27.5874 0.836921 27.3831 0.80831C27.1788 0.779698 26.9707 0.818427 26.7903 0.918636L14.9647 7.59744C14.8224 7.67601 14.6625 7.71722 14.5 7.71722C14.3374 7.71722 14.1775 7.67601 14.0352 7.59744L2.20958 0.918634C2.02923 0.818425 1.82114 0.779696 1.61681 0.808308C1.41248 0.836919 1.22304 0.931315 1.07715 1.07721C0.931254 1.2231 0.836858 1.41254 0.808247 1.61687C0.779635 1.8212 0.818364 2.02929 0.918573 2.20964L7.59738 14.0353C7.67594 14.1776 7.71715 14.3375 7.71715 14.5C7.71715 14.6626 7.67594 14.8225 7.59738 14.9648L0.918573 26.7904C0.818364 26.9707 0.779635 27.1788 0.808247 27.3832C0.836858 27.5875 0.931254 27.7769 1.07715 27.9228C1.22304 28.0687 1.41248 28.1631 1.61681 28.1917C1.82114 28.2203 2.02923 28.1816 2.20958 28.0814Z" fill="white"/>
</svg>
