<svg width="1920" height="1352" viewBox="0 0 1920 1352" fill="none" xmlns="http://www.w3.org/2000/svg">
<g opacity="0.5">
<g opacity="0.25">
<g opacity="0.3" filter="url(#filter0_f_491_3243)">
<ellipse cx="167.057" cy="118.258" rx="167.057" ry="118.258" transform="matrix(1 0 0 -1 -288.92 704.077)" fill="#2B2BA0"/>
</g>
<g clip-path="url(#clip0_491_3243)">
<mask id="mask0_491_3243" style="mask-type:alpha" maskUnits="userSpaceOnUse" x="-594" y="-1218" width="2331" height="2331">
<rect width="2329.17" height="1936.13" transform="matrix(1 0 0 -1 -593.001 1112.13)" fill="url(#paint0_radial_491_3243)"/>
</mask>
<g mask="url(#mask0_491_3243)">
<g clip-path="url(#clip1_491_3243)">
<mask id="path-4-inside-1_491_3243" fill="white">
<path d="M-49.8044 1111.71H105.474V956.434H-49.8044V1111.71Z"/>
</mask>
<path d="M105.474 956.434V954.816H107.091V956.434H105.474ZM105.474 1111.71H103.856V956.434H105.474H107.091V1111.71H105.474ZM105.474 956.434V958.051H-49.8044V956.434V954.816H105.474V956.434Z" fill="#2B2BA0" fill-opacity="0.43" mask="url(#path-4-inside-1_491_3243)"/>
<mask id="path-6-inside-2_491_3243" fill="white">
<path d="M105.474 1111.71H260.752V956.434H105.474V1111.71Z"/>
</mask>
<path d="M260.752 956.434V954.816H262.37V956.434H260.752ZM260.752 1111.71H259.135V956.434H260.752H262.37V1111.71H260.752ZM260.752 956.434V958.051H105.474V956.434V954.816H260.752V956.434Z" fill="#2B2BA0" fill-opacity="0.43" mask="url(#path-6-inside-2_491_3243)"/>
<mask id="path-8-inside-3_491_3243" fill="white">
<path d="M260.752 1111.71H416.031V956.434H260.752V1111.71Z"/>
</mask>
<path d="M416.031 956.434V954.816H417.648V956.434H416.031ZM416.031 1111.71H414.413V956.434H416.031H417.648V1111.71H416.031ZM416.031 956.434V958.051H260.752V956.434V954.816H416.031V956.434Z" fill="#2B2BA0" fill-opacity="0.43" mask="url(#path-8-inside-3_491_3243)"/>
<mask id="path-10-inside-4_491_3243" fill="white">
<path d="M416.031 1111.71H571.309V956.434H416.031V1111.71Z"/>
</mask>
<path d="M571.309 956.434V954.816H572.926V956.434H571.309ZM571.309 1111.71H569.691V956.434H571.309H572.926V1111.71H571.309ZM571.309 956.434V958.051H416.031V956.434V954.816H571.309V956.434Z" fill="#2B2BA0" fill-opacity="0.43" mask="url(#path-10-inside-4_491_3243)"/>
<mask id="path-12-inside-5_491_3243" fill="white">
<path d="M571.309 1111.71H726.587V956.434H571.309V1111.71Z"/>
</mask>
<path d="M726.587 956.434V954.816H728.205V956.434H726.587ZM726.587 1111.71H724.97V956.434H726.587H728.205V1111.71H726.587ZM726.587 956.434V958.051H571.309V956.434V954.816H726.587V956.434Z" fill="#2B2BA0" fill-opacity="0.43" mask="url(#path-12-inside-5_491_3243)"/>
<mask id="path-14-inside-6_491_3243" fill="white">
<path d="M726.587 1111.71H881.865V956.434H726.587V1111.71Z"/>
</mask>
<path d="M881.865 956.434V954.816H883.483V956.434H881.865ZM881.865 1111.71H880.248V956.434H881.865H883.483V1111.71H881.865ZM881.865 956.434V958.051H726.587V956.434V954.816H881.865V956.434Z" fill="#2B2BA0" fill-opacity="0.43" mask="url(#path-14-inside-6_491_3243)"/>
<mask id="path-16-inside-7_491_3243" fill="white">
<path d="M881.865 1111.71H1037.14V956.434H881.865V1111.71Z"/>
</mask>
<path d="M1037.14 956.434V954.816H1038.76V956.434H1037.14ZM1037.14 1111.71H1035.53V956.434H1037.14H1038.76V1111.71H1037.14ZM1037.14 956.434V958.051H881.865V956.434V954.816H1037.14V956.434Z" fill="#2B2BA0" fill-opacity="0.43" mask="url(#path-16-inside-7_491_3243)"/>
<mask id="path-18-inside-8_491_3243" fill="white">
<path d="M1037.14 1111.71H1192.42V956.434H1037.14V1111.71Z"/>
</mask>
<path d="M1192.42 956.434V954.816H1194.04V956.434H1192.42ZM1192.42 1111.71H1190.8V956.434H1192.42H1194.04V1111.71H1192.42ZM1192.42 956.434V958.051H1037.14V956.434V954.816H1192.42V956.434Z" fill="#2B2BA0" fill-opacity="0.43" mask="url(#path-18-inside-8_491_3243)"/>
<mask id="path-20-inside-9_491_3243" fill="white">
<path d="M1192.42 1111.71H1347.7V956.434H1192.42V1111.71Z"/>
</mask>
<path d="M1347.7 956.434V954.816H1349.32V956.434H1347.7ZM1347.7 1111.71H1346.08V956.434H1347.7H1349.32V1111.71H1347.7ZM1347.7 956.434V958.051H1192.42V956.434V954.816H1347.7V956.434Z" fill="#2B2BA0" fill-opacity="0.43" mask="url(#path-20-inside-9_491_3243)"/>
<mask id="path-22-inside-10_491_3243" fill="white">
<path d="M1347.7 1111.71H1502.98V956.434H1347.7V1111.71Z"/>
</mask>
<path d="M1502.98 956.434V954.816H1504.6V956.434H1502.98ZM1502.98 1111.71H1501.36V956.434H1502.98H1504.6V1111.71H1502.98ZM1502.98 956.434V958.051H1347.7V956.434V954.816H1502.98V956.434Z" fill="#2B2BA0" fill-opacity="0.43" mask="url(#path-22-inside-10_491_3243)"/>
<mask id="path-24-inside-11_491_3243" fill="white">
<path d="M1502.98 1111.71H1658.26V956.434H1502.98V1111.71Z"/>
</mask>
<path d="M1658.26 956.434V954.816H1659.87V956.434H1658.26ZM1658.26 1111.71H1656.64V956.434H1658.26H1659.87V1111.71H1658.26ZM1658.26 956.434V958.051H1502.98V956.434V954.816H1658.26V956.434Z" fill="#2B2BA0" fill-opacity="0.43" mask="url(#path-24-inside-11_491_3243)"/>
<mask id="path-26-inside-12_491_3243" fill="white">
<path d="M-49.8044 956.434H105.474V801.156H-49.8044V956.434Z"/>
</mask>
<path d="M105.474 801.156V799.538H107.091V801.156H105.474ZM105.474 956.434H103.856V801.156H105.474H107.091V956.434H105.474ZM105.474 801.156V802.773H-49.8044V801.156V799.538H105.474V801.156Z" fill="#2B2BA0" fill-opacity="0.43" mask="url(#path-26-inside-12_491_3243)"/>
<mask id="path-28-inside-13_491_3243" fill="white">
<path d="M105.474 956.434H260.752V801.156H105.474V956.434Z"/>
</mask>
<path d="M260.752 801.156V799.538H262.37V801.156H260.752ZM260.752 956.434H259.135V801.156H260.752H262.37V956.434H260.752ZM260.752 801.156V802.773H105.474V801.156V799.538H260.752V801.156Z" fill="#2B2BA0" fill-opacity="0.43" mask="url(#path-28-inside-13_491_3243)"/>
<mask id="path-30-inside-14_491_3243" fill="white">
<path d="M260.752 956.434H416.031V801.156H260.752V956.434Z"/>
</mask>
<path d="M416.031 801.156V799.538H417.648V801.156H416.031ZM416.031 956.434H414.413V801.156H416.031H417.648V956.434H416.031ZM416.031 801.156V802.773H260.752V801.156V799.538H416.031V801.156Z" fill="#2B2BA0" fill-opacity="0.43" mask="url(#path-30-inside-14_491_3243)"/>
<mask id="path-32-inside-15_491_3243" fill="white">
<path d="M416.031 956.434H571.309V801.156H416.031V956.434Z"/>
</mask>
<path d="M571.309 801.156V799.538H572.926V801.156H571.309ZM571.309 956.434H569.691V801.156H571.309H572.926V956.434H571.309ZM571.309 801.156V802.773H416.031V801.156V799.538H571.309V801.156Z" fill="#2B2BA0" fill-opacity="0.43" mask="url(#path-32-inside-15_491_3243)"/>
<mask id="path-34-inside-16_491_3243" fill="white">
<path d="M571.309 956.434H726.587V801.156H571.309V956.434Z"/>
</mask>
<path d="M726.587 801.156V799.538H728.205V801.156H726.587ZM726.587 956.434H724.97V801.156H726.587H728.205V956.434H726.587ZM726.587 801.156V802.773H571.309V801.156V799.538H726.587V801.156Z" fill="#2B2BA0" fill-opacity="0.43" mask="url(#path-34-inside-16_491_3243)"/>
<mask id="path-36-inside-17_491_3243" fill="white">
<path d="M726.587 956.434H881.865V801.156H726.587V956.434Z"/>
</mask>
<path d="M881.865 801.156V799.538H883.483V801.156H881.865ZM881.865 956.434H880.248V801.156H881.865H883.483V956.434H881.865ZM881.865 801.156V802.773H726.587V801.156V799.538H881.865V801.156Z" fill="#2B2BA0" fill-opacity="0.43" mask="url(#path-36-inside-17_491_3243)"/>
<mask id="path-38-inside-18_491_3243" fill="white">
<path d="M881.865 956.434H1037.14V801.156H881.865V956.434Z"/>
</mask>
<path d="M1037.14 801.156V799.538H1038.76V801.156H1037.14ZM1037.14 956.434H1035.53V801.156H1037.14H1038.76V956.434H1037.14ZM1037.14 801.156V802.773H881.865V801.156V799.538H1037.14V801.156Z" fill="#2B2BA0" fill-opacity="0.43" mask="url(#path-38-inside-18_491_3243)"/>
<mask id="path-40-inside-19_491_3243" fill="white">
<path d="M1037.14 956.434H1192.42V801.156H1037.14V956.434Z"/>
</mask>
<path d="M1192.42 801.156V799.538H1194.04V801.156H1192.42ZM1192.42 956.434H1190.8V801.156H1192.42H1194.04V956.434H1192.42ZM1192.42 801.156V802.773H1037.14V801.156V799.538H1192.42V801.156Z" fill="#2B2BA0" fill-opacity="0.43" mask="url(#path-40-inside-19_491_3243)"/>
<mask id="path-42-inside-20_491_3243" fill="white">
<path d="M1192.42 956.434H1347.7V801.156H1192.42V956.434Z"/>
</mask>
<path d="M1192.42 956.434H1347.7V801.156H1192.42V956.434Z" fill="#2B2BA0" fill-opacity="0.58"/>
<path d="M1347.7 801.156V799.538H1349.32V801.156H1347.7ZM1347.7 956.434H1346.08V801.156H1347.7H1349.32V956.434H1347.7ZM1347.7 801.156V802.773H1192.42V801.156V799.538H1347.7V801.156Z" fill="#2B2BA0" fill-opacity="0.43" mask="url(#path-42-inside-20_491_3243)"/>
<mask id="path-44-inside-21_491_3243" fill="white">
<path d="M1347.7 956.434H1502.98V801.156H1347.7V956.434Z"/>
</mask>
<path d="M1502.98 801.156V799.538H1504.6V801.156H1502.98ZM1502.98 956.434H1501.36V801.156H1502.98H1504.6V956.434H1502.98ZM1502.98 801.156V802.773H1347.7V801.156V799.538H1502.98V801.156Z" fill="#2B2BA0" fill-opacity="0.43" mask="url(#path-44-inside-21_491_3243)"/>
<mask id="path-46-inside-22_491_3243" fill="white">
<path d="M1502.98 956.434H1658.26V801.156H1502.98V956.434Z"/>
</mask>
<path d="M1658.26 801.156V799.538H1659.87V801.156H1658.26ZM1658.26 956.434H1656.64V801.156H1658.26H1659.87V956.434H1658.26ZM1658.26 801.156V802.773H1502.98V801.156V799.538H1658.26V801.156Z" fill="#2B2BA0" fill-opacity="0.43" mask="url(#path-46-inside-22_491_3243)"/>
<mask id="path-48-inside-23_491_3243" fill="white">
<path d="M-49.8044 801.155H105.474V645.877H-49.8044V801.155Z"/>
</mask>
<path d="M105.474 645.877V644.26H107.091V645.877H105.474ZM105.474 801.155H103.856V645.877H105.474H107.091V801.155H105.474ZM105.474 645.877V647.495H-49.8044V645.877V644.26H105.474V645.877Z" fill="#2B2BA0" fill-opacity="0.43" mask="url(#path-48-inside-23_491_3243)"/>
<mask id="path-50-inside-24_491_3243" fill="white">
<path d="M105.474 801.155H260.752V645.877H105.474V801.155Z"/>
</mask>
<path d="M105.474 801.155H260.752V645.877H105.474V801.155Z" fill="#2B2BA0" fill-opacity="0.58"/>
<path d="M260.752 645.877V644.26H262.37V645.877H260.752ZM260.752 801.155H259.135V645.877H260.752H262.37V801.155H260.752ZM260.752 645.877V647.495H105.474V645.877V644.26H260.752V645.877Z" fill="#2B2BA0" fill-opacity="0.43" mask="url(#path-50-inside-24_491_3243)"/>
<mask id="path-52-inside-25_491_3243" fill="white">
<path d="M260.752 801.155H416.031V645.877H260.752V801.155Z"/>
</mask>
<path d="M416.031 645.877V644.26H417.648V645.877H416.031ZM416.031 801.155H414.413V645.877H416.031H417.648V801.155H416.031ZM416.031 645.877V647.495H260.752V645.877V644.26H416.031V645.877Z" fill="#2B2BA0" fill-opacity="0.43" mask="url(#path-52-inside-25_491_3243)"/>
<mask id="path-54-inside-26_491_3243" fill="white">
<path d="M416.031 801.155H571.309V645.877H416.031V801.155Z"/>
</mask>
<path d="M571.309 645.877V644.26H572.926V645.877H571.309ZM571.309 801.155H569.691V645.877H571.309H572.926V801.155H571.309ZM571.309 645.877V647.495H416.031V645.877V644.26H571.309V645.877Z" fill="#2B2BA0" fill-opacity="0.43" mask="url(#path-54-inside-26_491_3243)"/>
<mask id="path-56-inside-27_491_3243" fill="white">
<path d="M571.309 801.155H726.587V645.877H571.309V801.155Z"/>
</mask>
<path d="M726.587 645.877V644.26H728.205V645.877H726.587ZM726.587 801.155H724.97V645.877H726.587H728.205V801.155H726.587ZM726.587 645.877V647.495H571.309V645.877V644.26H726.587V645.877Z" fill="#2B2BA0" fill-opacity="0.43" mask="url(#path-56-inside-27_491_3243)"/>
<mask id="path-58-inside-28_491_3243" fill="white">
<path d="M726.587 801.155H881.865V645.877H726.587V801.155Z"/>
</mask>
<path d="M726.587 801.155H881.865V645.877H726.587V801.155Z" fill="#2B2BA0" fill-opacity="0.58"/>
<path d="M881.865 645.877V644.26H883.483V645.877H881.865ZM881.865 801.155H880.248V645.877H881.865H883.483V801.155H881.865ZM881.865 645.877V647.495H726.587V645.877V644.26H881.865V645.877Z" fill="#2B2BA0" fill-opacity="0.43" mask="url(#path-58-inside-28_491_3243)"/>
<mask id="path-60-inside-29_491_3243" fill="white">
<path d="M881.865 801.155H1037.14V645.877H881.865V801.155Z"/>
</mask>
<path d="M1037.14 645.877V644.26H1038.76V645.877H1037.14ZM1037.14 801.155H1035.53V645.877H1037.14H1038.76V801.155H1037.14ZM1037.14 645.877V647.495H881.865V645.877V644.26H1037.14V645.877Z" fill="#2B2BA0" fill-opacity="0.43" mask="url(#path-60-inside-29_491_3243)"/>
<mask id="path-62-inside-30_491_3243" fill="white">
<path d="M1037.14 801.156H1192.42V645.877H1037.14V801.156Z"/>
</mask>
<path d="M1192.42 645.877V644.26H1194.04V645.877H1192.42ZM1192.42 801.156H1190.8V645.877H1192.42H1194.04V801.156H1192.42ZM1192.42 645.877V647.495H1037.14V645.877V644.26H1192.42V645.877Z" fill="#2B2BA0" fill-opacity="0.43" mask="url(#path-62-inside-30_491_3243)"/>
<mask id="path-64-inside-31_491_3243" fill="white">
<path d="M1192.42 801.156H1347.7V645.877H1192.42V801.156Z"/>
</mask>
<path d="M1347.7 645.877V644.26H1349.32V645.877H1347.7ZM1347.7 801.156H1346.08V645.877H1347.7H1349.32V801.156H1347.7ZM1347.7 645.877V647.495H1192.42V645.877V644.26H1347.7V645.877Z" fill="#2B2BA0" fill-opacity="0.43" mask="url(#path-64-inside-31_491_3243)"/>
<mask id="path-66-inside-32_491_3243" fill="white">
<path d="M1347.7 801.156H1502.98V645.877H1347.7V801.156Z"/>
</mask>
<path d="M1502.98 645.877V644.26H1504.6V645.877H1502.98ZM1502.98 801.156H1501.36V645.877H1502.98H1504.6V801.156H1502.98ZM1502.98 645.877V647.495H1347.7V645.877V644.26H1502.98V645.877Z" fill="#2B2BA0" fill-opacity="0.43" mask="url(#path-66-inside-32_491_3243)"/>
<mask id="path-68-inside-33_491_3243" fill="white">
<path d="M1502.98 801.155H1658.26V645.877H1502.98V801.155Z"/>
</mask>
<path d="M1658.26 645.877V644.26H1659.87V645.877H1658.26ZM1658.26 801.155H1656.64V645.877H1658.26H1659.87V801.155H1658.26ZM1658.26 645.877V647.495H1502.98V645.877V644.26H1658.26V645.877Z" fill="#2B2BA0" fill-opacity="0.43" mask="url(#path-68-inside-33_491_3243)"/>
<mask id="path-70-inside-34_491_3243" fill="white">
<path d="M-49.8044 645.877H105.474V490.599H-49.8044V645.877Z"/>
</mask>
<path d="M105.474 490.599V488.982H107.091V490.599H105.474ZM105.474 645.877H103.856V490.599H105.474H107.091V645.877H105.474ZM105.474 490.599V492.217H-49.8044V490.599V488.982H105.474V490.599Z" fill="#2B2BA0" fill-opacity="0.43" mask="url(#path-70-inside-34_491_3243)"/>
<mask id="path-72-inside-35_491_3243" fill="white">
<path d="M105.474 645.877H260.752V490.599H105.474V645.877Z"/>
</mask>
<path d="M260.752 490.599V488.982H262.37V490.599H260.752ZM260.752 645.877H259.135V490.599H260.752H262.37V645.877H260.752ZM260.752 490.599V492.217H105.474V490.599V488.982H260.752V490.599Z" fill="#2B2BA0" fill-opacity="0.43" mask="url(#path-72-inside-35_491_3243)"/>
<mask id="path-74-inside-36_491_3243" fill="white">
<path d="M260.752 645.877H416.031V490.599H260.752V645.877Z"/>
</mask>
<path d="M416.031 490.599V488.982H417.648V490.599H416.031ZM416.031 645.877H414.413V490.599H416.031H417.648V645.877H416.031ZM416.031 490.599V492.217H260.752V490.599V488.982H416.031V490.599Z" fill="#2B2BA0" fill-opacity="0.43" mask="url(#path-74-inside-36_491_3243)"/>
<mask id="path-76-inside-37_491_3243" fill="white">
<path d="M416.031 645.877H571.309V490.599H416.031V645.877Z"/>
</mask>
<path d="M571.309 490.599V488.982H572.926V490.599H571.309ZM571.309 645.877H569.691V490.599H571.309H572.926V645.877H571.309ZM571.309 490.599V492.217H416.031V490.599V488.982H571.309V490.599Z" fill="#2B2BA0" fill-opacity="0.43" mask="url(#path-76-inside-37_491_3243)"/>
<mask id="path-78-inside-38_491_3243" fill="white">
<path d="M571.309 645.877H726.587V490.599H571.309V645.877Z"/>
</mask>
<path d="M726.587 490.599V488.982H728.205V490.599H726.587ZM726.587 645.877H724.97V490.599H726.587H728.205V645.877H726.587ZM726.587 490.599V492.217H571.309V490.599V488.982H726.587V490.599Z" fill="#2B2BA0" fill-opacity="0.43" mask="url(#path-78-inside-38_491_3243)"/>
<mask id="path-80-inside-39_491_3243" fill="white">
<path d="M726.587 645.877H881.865V490.599H726.587V645.877Z"/>
</mask>
<path d="M881.865 490.599V488.982H883.483V490.599H881.865ZM881.865 645.877H880.248V490.599H881.865H883.483V645.877H881.865ZM881.865 490.599V492.217H726.587V490.599V488.982H881.865V490.599Z" fill="#2B2BA0" fill-opacity="0.43" mask="url(#path-80-inside-39_491_3243)"/>
<mask id="path-82-inside-40_491_3243" fill="white">
<path d="M881.865 645.877H1037.14V490.599H881.865V645.877Z"/>
</mask>
<path d="M1037.14 490.599V488.982H1038.76V490.599H1037.14ZM1037.14 645.877H1035.53V490.599H1037.14H1038.76V645.877H1037.14ZM1037.14 490.599V492.217H881.865V490.599V488.982H1037.14V490.599Z" fill="#2B2BA0" fill-opacity="0.43" mask="url(#path-82-inside-40_491_3243)"/>
<mask id="path-84-inside-41_491_3243" fill="white">
<path d="M1037.14 645.877H1192.42V490.599H1037.14V645.877Z"/>
</mask>
<path d="M1192.42 490.599V488.982H1194.04V490.599H1192.42ZM1192.42 645.877H1190.8V490.599H1192.42H1194.04V645.877H1192.42ZM1192.42 490.599V492.217H1037.14V490.599V488.982H1192.42V490.599Z" fill="#2B2BA0" fill-opacity="0.43" mask="url(#path-84-inside-41_491_3243)"/>
<mask id="path-86-inside-42_491_3243" fill="white">
<path d="M1192.42 645.877H1347.7V490.599H1192.42V645.877Z"/>
</mask>
<path d="M1192.42 645.877H1347.7V490.599H1192.42V645.877Z" fill="#2B2BA0" fill-opacity="0.58"/>
<path d="M1347.7 490.599V488.982H1349.32V490.599H1347.7ZM1347.7 645.877H1346.08V490.599H1347.7H1349.32V645.877H1347.7ZM1347.7 490.599V492.217H1192.42V490.599V488.982H1347.7V490.599Z" fill="#2B2BA0" fill-opacity="0.43" mask="url(#path-86-inside-42_491_3243)"/>
<mask id="path-88-inside-43_491_3243" fill="white">
<path d="M1347.7 645.877H1502.98V490.599H1347.7V645.877Z"/>
</mask>
<path d="M1502.98 490.599V488.982H1504.6V490.599H1502.98ZM1502.98 645.877H1501.36V490.599H1502.98H1504.6V645.877H1502.98ZM1502.98 490.599V492.217H1347.7V490.599V488.982H1502.98V490.599Z" fill="#2B2BA0" fill-opacity="0.43" mask="url(#path-88-inside-43_491_3243)"/>
<mask id="path-90-inside-44_491_3243" fill="white">
<path d="M1502.98 645.877H1658.26V490.599H1502.98V645.877Z"/>
</mask>
<path d="M1658.26 490.599V488.982H1659.87V490.599H1658.26ZM1658.26 645.877H1656.64V490.599H1658.26H1659.87V645.877H1658.26ZM1658.26 490.599V492.217H1502.98V490.599V488.982H1658.26V490.599Z" fill="#2B2BA0" fill-opacity="0.43" mask="url(#path-90-inside-44_491_3243)"/>
<mask id="path-92-inside-45_491_3243" fill="white">
<path d="M-49.8044 490.599H105.474V335.321H-49.8044V490.599Z"/>
</mask>
<path d="M105.474 335.321V333.703H107.091V335.321H105.474ZM105.474 490.599H103.856V335.321H105.474H107.091V490.599H105.474ZM105.474 335.321V336.938H-49.8044V335.321V333.703H105.474V335.321Z" fill="#2B2BA0" fill-opacity="0.43" mask="url(#path-92-inside-45_491_3243)"/>
<mask id="path-94-inside-46_491_3243" fill="white">
<path d="M105.474 490.599H260.752V335.321H105.474V490.599Z"/>
</mask>
<path d="M260.752 335.321V333.703H262.37V335.321H260.752ZM260.752 490.599H259.135V335.321H260.752H262.37V490.599H260.752ZM260.752 335.321V336.938H105.474V335.321V333.703H260.752V335.321Z" fill="#2B2BA0" fill-opacity="0.43" mask="url(#path-94-inside-46_491_3243)"/>
<mask id="path-96-inside-47_491_3243" fill="white">
<path d="M260.752 490.599H416.031V335.321H260.752V490.599Z"/>
</mask>
<path d="M260.752 490.599H416.031V335.321H260.752V490.599Z" fill="#2B2BA0" fill-opacity="0.58"/>
<path d="M416.031 335.321V333.703H417.648V335.321H416.031ZM416.031 490.599H414.413V335.321H416.031H417.648V490.599H416.031ZM416.031 335.321V336.938H260.752V335.321V333.703H416.031V335.321Z" fill="#2B2BA0" fill-opacity="0.43" mask="url(#path-96-inside-47_491_3243)"/>
<mask id="path-98-inside-48_491_3243" fill="white">
<path d="M416.031 490.599H571.309V335.321H416.031V490.599Z"/>
</mask>
<path d="M571.309 335.321V333.703H572.926V335.321H571.309ZM571.309 490.599H569.691V335.321H571.309H572.926V490.599H571.309ZM571.309 335.321V336.938H416.031V335.321V333.703H571.309V335.321Z" fill="#2B2BA0" fill-opacity="0.43" mask="url(#path-98-inside-48_491_3243)"/>
<mask id="path-100-inside-49_491_3243" fill="white">
<path d="M571.309 490.599H726.587V335.321H571.309V490.599Z"/>
</mask>
<path d="M726.587 335.321V333.703H728.205V335.321H726.587ZM726.587 490.599H724.97V335.321H726.587H728.205V490.599H726.587ZM726.587 335.321V336.938H571.309V335.321V333.703H726.587V335.321Z" fill="#2B2BA0" fill-opacity="0.43" mask="url(#path-100-inside-49_491_3243)"/>
<mask id="path-102-inside-50_491_3243" fill="white">
<path d="M726.587 490.599H881.865V335.321H726.587V490.599Z"/>
</mask>
<path d="M881.865 335.321V333.703H883.483V335.321H881.865ZM881.865 490.599H880.248V335.321H881.865H883.483V490.599H881.865ZM881.865 335.321V336.938H726.587V335.321V333.703H881.865V335.321Z" fill="#2B2BA0" fill-opacity="0.43" mask="url(#path-102-inside-50_491_3243)"/>
<mask id="path-104-inside-51_491_3243" fill="white">
<path d="M881.865 490.599H1037.14V335.321H881.865V490.599Z"/>
</mask>
<path d="M1037.14 335.321V333.703H1038.76V335.321H1037.14ZM1037.14 490.599H1035.53V335.321H1037.14H1038.76V490.599H1037.14ZM1037.14 335.321V336.938H881.865V335.321V333.703H1037.14V335.321Z" fill="#2B2BA0" fill-opacity="0.43" mask="url(#path-104-inside-51_491_3243)"/>
<mask id="path-106-inside-52_491_3243" fill="white">
<path d="M1037.14 490.599H1192.42V335.321H1037.14V490.599Z"/>
</mask>
<path d="M1192.42 335.321V333.703H1194.04V335.321H1192.42ZM1192.42 490.599H1190.8V335.321H1192.42H1194.04V490.599H1192.42ZM1192.42 335.321V336.938H1037.14V335.321V333.703H1192.42V335.321Z" fill="#2B2BA0" fill-opacity="0.43" mask="url(#path-106-inside-52_491_3243)"/>
<mask id="path-108-inside-53_491_3243" fill="white">
<path d="M1192.42 490.599H1347.7V335.321H1192.42V490.599Z"/>
</mask>
<path d="M1347.7 335.321V333.703H1349.32V335.321H1347.7ZM1347.7 490.599H1346.08V335.321H1347.7H1349.32V490.599H1347.7ZM1347.7 335.321V336.938H1192.42V335.321V333.703H1347.7V335.321Z" fill="#2B2BA0" fill-opacity="0.43" mask="url(#path-108-inside-53_491_3243)"/>
<mask id="path-110-inside-54_491_3243" fill="white">
<path d="M1347.7 490.599H1502.98V335.321H1347.7V490.599Z"/>
</mask>
<path d="M1502.98 335.321V333.703H1504.6V335.321H1502.98ZM1502.98 490.599H1501.36V335.321H1502.98H1504.6V490.599H1502.98ZM1502.98 335.321V336.938H1347.7V335.321V333.703H1502.98V335.321Z" fill="#2B2BA0" fill-opacity="0.43" mask="url(#path-110-inside-54_491_3243)"/>
<mask id="path-112-inside-55_491_3243" fill="white">
<path d="M1502.98 490.599H1658.26V335.321H1502.98V490.599Z"/>
</mask>
<path d="M1658.26 335.321V333.703H1659.87V335.321H1658.26ZM1658.26 490.599H1656.64V335.321H1658.26H1659.87V490.599H1658.26ZM1658.26 335.321V336.938H1502.98V335.321V333.703H1658.26V335.321Z" fill="#2B2BA0" fill-opacity="0.43" mask="url(#path-112-inside-55_491_3243)"/>
<mask id="path-114-inside-56_491_3243" fill="white">
<path d="M-49.8044 335.321H105.474V180.043H-49.8044V335.321Z"/>
</mask>
<path d="M105.474 180.043V178.425H107.091V180.043H105.474ZM105.474 335.321H103.856V180.043H105.474H107.091V335.321H105.474ZM105.474 180.043V181.66H-49.8044V180.043V178.425H105.474V180.043Z" fill="#2B2BA0" fill-opacity="0.43" mask="url(#path-114-inside-56_491_3243)"/>
<mask id="path-116-inside-57_491_3243" fill="white">
<path d="M105.474 335.321H260.752V180.043H105.474V335.321Z"/>
</mask>
<path d="M260.752 180.043V178.425H262.37V180.043H260.752ZM260.752 335.321H259.135V180.043H260.752H262.37V335.321H260.752ZM260.752 180.043V181.66H105.474V180.043V178.425H260.752V180.043Z" fill="#2B2BA0" fill-opacity="0.43" mask="url(#path-116-inside-57_491_3243)"/>
<mask id="path-118-inside-58_491_3243" fill="white">
<path d="M260.752 335.321H416.031V180.043H260.752V335.321Z"/>
</mask>
<path d="M416.031 180.043V178.425H417.648V180.043H416.031ZM416.031 335.321H414.413V180.043H416.031H417.648V335.321H416.031ZM416.031 180.043V181.66H260.752V180.043V178.425H416.031V180.043Z" fill="#2B2BA0" fill-opacity="0.43" mask="url(#path-118-inside-58_491_3243)"/>
<mask id="path-120-inside-59_491_3243" fill="white">
<path d="M416.031 335.321H571.309V180.042H416.031V335.321Z"/>
</mask>
<path d="M571.309 180.042V178.425H572.926V180.042H571.309ZM571.309 335.321H569.691V180.042H571.309H572.926V335.321H571.309ZM571.309 180.042V181.66H416.031V180.042V178.425H571.309V180.042Z" fill="#2B2BA0" fill-opacity="0.43" mask="url(#path-120-inside-59_491_3243)"/>
<mask id="path-122-inside-60_491_3243" fill="white">
<path d="M571.309 335.321H726.587V180.042H571.309V335.321Z"/>
</mask>
<path d="M726.587 180.042V178.425H728.205V180.042H726.587ZM726.587 335.321H724.97V180.042H726.587H728.205V335.321H726.587ZM726.587 180.042V181.66H571.309V180.042V178.425H726.587V180.042Z" fill="#2B2BA0" fill-opacity="0.43" mask="url(#path-122-inside-60_491_3243)"/>
<mask id="path-124-inside-61_491_3243" fill="white">
<path d="M726.587 335.321H881.865V180.042H726.587V335.321Z"/>
</mask>
<path d="M726.587 335.321H881.865V180.042H726.587V335.321Z" fill="#2B2BA0" fill-opacity="0.58"/>
<path d="M881.865 180.042V178.425H883.483V180.042H881.865ZM881.865 335.321H880.248V180.042H881.865H883.483V335.321H881.865ZM881.865 180.042V181.66H726.587V180.042V178.425H881.865V180.042Z" fill="#2B2BA0" fill-opacity="0.43" mask="url(#path-124-inside-61_491_3243)"/>
<mask id="path-126-inside-62_491_3243" fill="white">
<path d="M881.865 335.321H1037.14V180.042H881.865V335.321Z"/>
</mask>
<path d="M1037.14 180.042V178.425H1038.76V180.042H1037.14ZM1037.14 335.321H1035.53V180.042H1037.14H1038.76V335.321H1037.14ZM1037.14 180.042V181.66H881.865V180.042V178.425H1037.14V180.042Z" fill="#2B2BA0" fill-opacity="0.43" mask="url(#path-126-inside-62_491_3243)"/>
<mask id="path-128-inside-63_491_3243" fill="white">
<path d="M1037.14 335.321H1192.42V180.042H1037.14V335.321Z"/>
</mask>
<path d="M1192.42 180.042V178.425H1194.04V180.042H1192.42ZM1192.42 335.321H1190.8V180.042H1192.42H1194.04V335.321H1192.42ZM1192.42 180.042V181.66H1037.14V180.042V178.425H1192.42V180.042Z" fill="#2B2BA0" fill-opacity="0.43" mask="url(#path-128-inside-63_491_3243)"/>
<mask id="path-130-inside-64_491_3243" fill="white">
<path d="M1192.42 335.321H1347.7V180.042H1192.42V335.321Z"/>
</mask>
<path d="M1347.7 180.042V178.425H1349.32V180.042H1347.7ZM1347.7 335.321H1346.08V180.042H1347.7H1349.32V335.321H1347.7ZM1347.7 180.042V181.66H1192.42V180.042V178.425H1347.7V180.042Z" fill="#2B2BA0" fill-opacity="0.43" mask="url(#path-130-inside-64_491_3243)"/>
<mask id="path-132-inside-65_491_3243" fill="white">
<path d="M1347.7 335.321H1502.98V180.042H1347.7V335.321Z"/>
</mask>
<path d="M1502.98 180.042V178.425H1504.6V180.042H1502.98ZM1502.98 335.321H1501.36V180.042H1502.98H1504.6V335.321H1502.98ZM1502.98 180.042V181.66H1347.7V180.042V178.425H1502.98V180.042Z" fill="#2B2BA0" fill-opacity="0.43" mask="url(#path-132-inside-65_491_3243)"/>
<mask id="path-134-inside-66_491_3243" fill="white">
<path d="M1502.98 335.321H1658.26V180.042H1502.98V335.321Z"/>
</mask>
<path d="M1658.26 180.042V178.425H1659.87V180.042H1658.26ZM1658.26 335.321H1656.64V180.042H1658.26H1659.87V335.321H1658.26ZM1658.26 180.042V181.66H1502.98V180.042V178.425H1658.26V180.042Z" fill="#2B2BA0" fill-opacity="0.43" mask="url(#path-134-inside-66_491_3243)"/>
</g>
<rect x="0.808741" y="-0.808741" width="3103.95" height="2327.56" transform="matrix(1 0 0 -1 -981.474 1110.09)" stroke="#2B2BA0" stroke-opacity="0.43" stroke-width="1.61748"/>
</g>
</g>
</g>
<g opacity="0.25">
<g opacity="0.3" filter="url(#filter1_f_491_3243)">
<ellipse cx="2040.86" cy="585.82" rx="167.057" ry="118.258" transform="rotate(180 2040.86 585.82)" fill="#2B2BA0"/>
</g>
<g clip-path="url(#clip2_491_3243)">
<mask id="mask1_491_3243" style="mask-type:alpha" maskUnits="userSpaceOnUse" x="182" y="-1218" width="2331" height="2331">
<rect width="2329.17" height="1936.13" transform="matrix(-1 0 0 -1 2512 1112.13)" fill="url(#paint1_radial_491_3243)"/>
</mask>
<g mask="url(#mask1_491_3243)">
<g clip-path="url(#clip3_491_3243)">
<mask id="path-139-inside-67_491_3243" fill="white">
<path d="M1968.8 1111.71H1813.53V956.434H1968.8V1111.71Z"/>
</mask>
<path d="M1813.53 956.434V954.816H1811.91V956.434H1813.53ZM1813.53 1111.71H1815.14V956.434H1813.53H1811.91V1111.71H1813.53ZM1813.53 956.434V958.051H1968.8V956.434V954.816H1813.53V956.434Z" fill="#2B2BA0" fill-opacity="0.43" mask="url(#path-139-inside-67_491_3243)"/>
<mask id="path-141-inside-68_491_3243" fill="white">
<path d="M1813.53 1111.71H1658.25V956.434H1813.53V1111.71Z"/>
</mask>
<path d="M1658.25 956.434V954.816H1656.63V956.434H1658.25ZM1658.25 1111.71H1659.87V956.434H1658.25H1656.63V1111.71H1658.25ZM1658.25 956.434V958.051H1813.53V956.434V954.816H1658.25V956.434Z" fill="#2B2BA0" fill-opacity="0.43" mask="url(#path-141-inside-68_491_3243)"/>
<mask id="path-143-inside-69_491_3243" fill="white">
<path d="M1658.25 1111.71H1502.97V956.434H1658.25V1111.71Z"/>
</mask>
<path d="M1502.97 956.434V954.816H1501.35V956.434H1502.97ZM1502.97 1111.71H1504.59V956.434H1502.97H1501.35V1111.71H1502.97ZM1502.97 956.434V958.051H1658.25V956.434V954.816H1502.97V956.434Z" fill="#2B2BA0" fill-opacity="0.43" mask="url(#path-143-inside-69_491_3243)"/>
<mask id="path-145-inside-70_491_3243" fill="white">
<path d="M1502.97 1111.71H1347.69V956.434H1502.97V1111.71Z"/>
</mask>
<path d="M1347.69 956.434V954.816H1346.07V956.434H1347.69ZM1347.69 1111.71H1349.31V956.434H1347.69H1346.07V1111.71H1347.69ZM1347.69 956.434V958.051H1502.97V956.434V954.816H1347.69V956.434Z" fill="#2B2BA0" fill-opacity="0.43" mask="url(#path-145-inside-70_491_3243)"/>
<mask id="path-147-inside-71_491_3243" fill="white">
<path d="M1347.69 1111.71H1192.41V956.434H1347.69V1111.71Z"/>
</mask>
<path d="M1192.41 956.434V954.816H1190.8V956.434H1192.41ZM1192.41 1111.71H1194.03V956.434H1192.41H1190.8V1111.71H1192.41ZM1192.41 956.434V958.051H1347.69V956.434V954.816H1192.41V956.434Z" fill="#2B2BA0" fill-opacity="0.43" mask="url(#path-147-inside-71_491_3243)"/>
<mask id="path-149-inside-72_491_3243" fill="white">
<path d="M1192.41 1111.71H1037.13V956.434H1192.41V1111.71Z"/>
</mask>
<path d="M1037.13 956.434V954.816H1035.52V956.434H1037.13ZM1037.13 1111.71H1038.75V956.434H1037.13H1035.52V1111.71H1037.13ZM1037.13 956.434V958.051H1192.41V956.434V954.816H1037.13V956.434Z" fill="#2B2BA0" fill-opacity="0.43" mask="url(#path-149-inside-72_491_3243)"/>
<mask id="path-151-inside-73_491_3243" fill="white">
<path d="M1037.13 1111.71H881.856V956.434H1037.13V1111.71Z"/>
</mask>
<path d="M881.856 956.434V954.816H880.239V956.434H881.856ZM881.856 1111.71H883.474V956.434H881.856H880.239V1111.71H881.856ZM881.856 956.434V958.051H1037.13V956.434V954.816H881.856V956.434Z" fill="#2B2BA0" fill-opacity="0.43" mask="url(#path-151-inside-73_491_3243)"/>
<mask id="path-153-inside-74_491_3243" fill="white">
<path d="M881.856 1111.71H726.578V956.434H881.856V1111.71Z"/>
</mask>
<path d="M726.578 956.434V954.816H724.96V956.434H726.578ZM726.578 1111.71H728.195V956.434H726.578H724.96V1111.71H726.578ZM726.578 956.434V958.051H881.856V956.434V954.816H726.578V956.434Z" fill="#2B2BA0" fill-opacity="0.43" mask="url(#path-153-inside-74_491_3243)"/>
<mask id="path-155-inside-75_491_3243" fill="white">
<path d="M726.579 1111.71H571.3V956.434H726.579V1111.71Z"/>
</mask>
<path d="M571.3 956.434V954.816H569.683V956.434H571.3ZM571.3 1111.71H572.918V956.434H571.3H569.683V1111.71H571.3ZM571.3 956.434V958.051H726.579V956.434V954.816H571.3V956.434Z" fill="#2B2BA0" fill-opacity="0.43" mask="url(#path-155-inside-75_491_3243)"/>
<mask id="path-157-inside-76_491_3243" fill="white">
<path d="M571.3 1111.71H416.021V956.434H571.3V1111.71Z"/>
</mask>
<path d="M416.021 956.434V954.816H414.404V956.434H416.021ZM416.021 1111.71H417.639V956.434H416.021H414.404V1111.71H416.021ZM416.021 956.434V958.051H571.3V956.434V954.816H416.021V956.434Z" fill="#2B2BA0" fill-opacity="0.43" mask="url(#path-157-inside-76_491_3243)"/>
<mask id="path-159-inside-77_491_3243" fill="white">
<path d="M416.022 1111.71H260.743V956.434H416.022V1111.71Z"/>
</mask>
<path d="M260.743 956.434V954.816H259.126V956.434H260.743ZM260.743 1111.71H262.361V956.434H260.743H259.126V1111.71H260.743ZM260.743 956.434V958.051H416.022V956.434V954.816H260.743V956.434Z" fill="#2B2BA0" fill-opacity="0.43" mask="url(#path-159-inside-77_491_3243)"/>
<mask id="path-161-inside-78_491_3243" fill="white">
<path d="M1968.8 956.434H1813.53V801.156H1968.8V956.434Z"/>
</mask>
<path d="M1813.53 801.156V799.538H1811.91V801.156H1813.53ZM1813.53 956.434H1815.14V801.156H1813.53H1811.91V956.434H1813.53ZM1813.53 801.156V802.773H1968.8V801.156V799.538H1813.53V801.156Z" fill="#2B2BA0" fill-opacity="0.43" mask="url(#path-161-inside-78_491_3243)"/>
<mask id="path-163-inside-79_491_3243" fill="white">
<path d="M1813.53 956.434H1658.25V801.156H1813.53V956.434Z"/>
</mask>
<path d="M1658.25 801.156V799.538H1656.63V801.156H1658.25ZM1658.25 956.434H1659.87V801.156H1658.25H1656.63V956.434H1658.25ZM1658.25 801.156V802.773H1813.53V801.156V799.538H1658.25V801.156Z" fill="#2B2BA0" fill-opacity="0.43" mask="url(#path-163-inside-79_491_3243)"/>
<mask id="path-165-inside-80_491_3243" fill="white">
<path d="M1658.25 956.434H1502.97V801.156H1658.25V956.434Z"/>
</mask>
<path d="M1502.97 801.156V799.538H1501.35V801.156H1502.97ZM1502.97 956.434H1504.59V801.156H1502.97H1501.35V956.434H1502.97ZM1502.97 801.156V802.773H1658.25V801.156V799.538H1502.97V801.156Z" fill="#2B2BA0" fill-opacity="0.43" mask="url(#path-165-inside-80_491_3243)"/>
<mask id="path-167-inside-81_491_3243" fill="white">
<path d="M1502.97 956.434H1347.69V801.156H1502.97V956.434Z"/>
</mask>
<path d="M1347.69 801.156V799.538H1346.07V801.156H1347.69ZM1347.69 956.434H1349.31V801.156H1347.69H1346.07V956.434H1347.69ZM1347.69 801.156V802.773H1502.97V801.156V799.538H1347.69V801.156Z" fill="#2B2BA0" fill-opacity="0.43" mask="url(#path-167-inside-81_491_3243)"/>
<mask id="path-169-inside-82_491_3243" fill="white">
<path d="M1347.69 956.434H1192.41V801.156H1347.69V956.434Z"/>
</mask>
<path d="M1192.41 801.156V799.538H1190.8V801.156H1192.41ZM1192.41 956.434H1194.03V801.156H1192.41H1190.8V956.434H1192.41ZM1192.41 801.156V802.773H1347.69V801.156V799.538H1192.41V801.156Z" fill="#2B2BA0" fill-opacity="0.43" mask="url(#path-169-inside-82_491_3243)"/>
<mask id="path-171-inside-83_491_3243" fill="white">
<path d="M1192.41 956.434H1037.13V801.156H1192.41V956.434Z"/>
</mask>
<path d="M1037.13 801.156V799.538H1035.52V801.156H1037.13ZM1037.13 956.434H1038.75V801.156H1037.13H1035.52V956.434H1037.13ZM1037.13 801.156V802.773H1192.41V801.156V799.538H1037.13V801.156Z" fill="#2B2BA0" fill-opacity="0.43" mask="url(#path-171-inside-83_491_3243)"/>
<mask id="path-173-inside-84_491_3243" fill="white">
<path d="M1037.13 956.434H881.856V801.156H1037.13V956.434Z"/>
</mask>
<path d="M881.856 801.156V799.538H880.239V801.156H881.856ZM881.856 956.434H883.474V801.156H881.856H880.239V956.434H881.856ZM881.856 801.156V802.773H1037.13V801.156V799.538H881.856V801.156Z" fill="#2B2BA0" fill-opacity="0.43" mask="url(#path-173-inside-84_491_3243)"/>
<mask id="path-175-inside-85_491_3243" fill="white">
<path d="M881.856 956.434H726.578V801.156H881.856V956.434Z"/>
</mask>
<path d="M726.578 801.156V799.538H724.96V801.156H726.578ZM726.578 956.434H728.195V801.156H726.578H724.96V956.434H726.578ZM726.578 801.156V802.773H881.856V801.156V799.538H726.578V801.156Z" fill="#2B2BA0" fill-opacity="0.43" mask="url(#path-175-inside-85_491_3243)"/>
<mask id="path-177-inside-86_491_3243" fill="white">
<path d="M726.578 956.434H571.3V801.156H726.578V956.434Z"/>
</mask>
<path d="M726.578 956.434H571.3V801.156H726.578V956.434Z" fill="#2B2BA0" fill-opacity="0.58"/>
<path d="M571.3 801.156V799.538H569.682V801.156H571.3ZM571.3 956.434H572.917V801.156H571.3H569.682V956.434H571.3ZM571.3 801.156V802.773H726.578V801.156V799.538H571.3V801.156Z" fill="#2B2BA0" fill-opacity="0.43" mask="url(#path-177-inside-86_491_3243)"/>
<mask id="path-179-inside-87_491_3243" fill="white">
<path d="M571.3 956.434H416.021V801.156H571.3V956.434Z"/>
</mask>
<path d="M416.021 801.156V799.538H414.404V801.156H416.021ZM416.021 956.434H417.639V801.156H416.021H414.404V956.434H416.021ZM416.021 801.156V802.773H571.3V801.156V799.538H416.021V801.156Z" fill="#2B2BA0" fill-opacity="0.43" mask="url(#path-179-inside-87_491_3243)"/>
<mask id="path-181-inside-88_491_3243" fill="white">
<path d="M416.021 956.434H260.743V801.156H416.021V956.434Z"/>
</mask>
<path d="M260.743 801.156V799.538H259.126V801.156H260.743ZM260.743 956.434H262.36V801.156H260.743H259.126V956.434H260.743ZM260.743 801.156V802.773H416.021V801.156V799.538H260.743V801.156Z" fill="#2B2BA0" fill-opacity="0.43" mask="url(#path-181-inside-88_491_3243)"/>
<mask id="path-183-inside-89_491_3243" fill="white">
<path d="M1968.8 801.155H1813.53V645.877H1968.8V801.155Z"/>
</mask>
<path d="M1813.53 645.877V644.26H1811.91V645.877H1813.53ZM1813.53 801.155H1815.14V645.877H1813.53H1811.91V801.155H1813.53ZM1813.53 645.877V647.495H1968.8V645.877V644.26H1813.53V645.877Z" fill="#2B2BA0" fill-opacity="0.43" mask="url(#path-183-inside-89_491_3243)"/>
<mask id="path-185-inside-90_491_3243" fill="white">
<path d="M1813.53 801.155H1658.25V645.877H1813.53V801.155Z"/>
</mask>
<path d="M1813.53 801.155H1658.25V645.877H1813.53V801.155Z" fill="#2B2BA0" fill-opacity="0.58"/>
<path d="M1658.25 645.877V644.26H1656.63V645.877H1658.25ZM1658.25 801.155H1659.87V645.877H1658.25H1656.63V801.155H1658.25ZM1658.25 645.877V647.495H1813.53V645.877V644.26H1658.25V645.877Z" fill="#2B2BA0" fill-opacity="0.43" mask="url(#path-185-inside-90_491_3243)"/>
<mask id="path-187-inside-91_491_3243" fill="white">
<path d="M1658.25 801.155H1502.97V645.877H1658.25V801.155Z"/>
</mask>
<path d="M1502.97 645.877V644.26H1501.35V645.877H1502.97ZM1502.97 801.155H1504.59V645.877H1502.97H1501.35V801.155H1502.97ZM1502.97 645.877V647.495H1658.25V645.877V644.26H1502.97V645.877Z" fill="#2B2BA0" fill-opacity="0.43" mask="url(#path-187-inside-91_491_3243)"/>
<mask id="path-189-inside-92_491_3243" fill="white">
<path d="M1502.97 801.155H1347.69V645.877H1502.97V801.155Z"/>
</mask>
<path d="M1347.69 645.877V644.26H1346.07V645.877H1347.69ZM1347.69 801.155H1349.31V645.877H1347.69H1346.07V801.155H1347.69ZM1347.69 645.877V647.495H1502.97V645.877V644.26H1347.69V645.877Z" fill="#2B2BA0" fill-opacity="0.43" mask="url(#path-189-inside-92_491_3243)"/>
<mask id="path-191-inside-93_491_3243" fill="white">
<path d="M1347.69 801.155H1192.41V645.877H1347.69V801.155Z"/>
</mask>
<path d="M1192.41 645.877V644.26H1190.8V645.877H1192.41ZM1192.41 801.155H1194.03V645.877H1192.41H1190.8V801.155H1192.41ZM1192.41 645.877V647.495H1347.69V645.877V644.26H1192.41V645.877Z" fill="#2B2BA0" fill-opacity="0.43" mask="url(#path-191-inside-93_491_3243)"/>
<mask id="path-193-inside-94_491_3243" fill="white">
<path d="M1192.41 801.155H1037.13V645.877H1192.41V801.155Z"/>
</mask>
<path d="M1192.41 801.155H1037.13V645.877H1192.41V801.155Z" fill="#2B2BA0" fill-opacity="0.58"/>
<path d="M1037.13 645.877V644.26H1035.52V645.877H1037.13ZM1037.13 801.155H1038.75V645.877H1037.13H1035.52V801.155H1037.13ZM1037.13 645.877V647.495H1192.41V645.877V644.26H1037.13V645.877Z" fill="#2B2BA0" fill-opacity="0.43" mask="url(#path-193-inside-94_491_3243)"/>
<mask id="path-195-inside-95_491_3243" fill="white">
<path d="M1037.13 801.155H881.856V645.877H1037.13V801.155Z"/>
</mask>
<path d="M881.856 645.877V644.26H880.239V645.877H881.856ZM881.856 801.155H883.474V645.877H881.856H880.239V801.155H881.856ZM881.856 645.877V647.495H1037.13V645.877V644.26H881.856V645.877Z" fill="#2B2BA0" fill-opacity="0.43" mask="url(#path-195-inside-95_491_3243)"/>
<mask id="path-197-inside-96_491_3243" fill="white">
<path d="M881.856 801.156H726.578V645.877H881.856V801.156Z"/>
</mask>
<path d="M726.578 645.877V644.26H724.96V645.877H726.578ZM726.578 801.156H728.195V645.877H726.578H724.96V801.156H726.578ZM726.578 645.877V647.495H881.856V645.877V644.26H726.578V645.877Z" fill="#2B2BA0" fill-opacity="0.43" mask="url(#path-197-inside-96_491_3243)"/>
<mask id="path-199-inside-97_491_3243" fill="white">
<path d="M726.579 801.156H571.3V645.877H726.579V801.156Z"/>
</mask>
<path d="M571.3 645.877V644.26H569.683V645.877H571.3ZM571.3 801.156H572.918V645.877H571.3H569.683V801.156H571.3ZM571.3 645.877V647.495H726.579V645.877V644.26H571.3V645.877Z" fill="#2B2BA0" fill-opacity="0.43" mask="url(#path-199-inside-97_491_3243)"/>
<mask id="path-201-inside-98_491_3243" fill="white">
<path d="M571.3 801.156H416.021V645.877H571.3V801.156Z"/>
</mask>
<path d="M416.021 645.877V644.26H414.404V645.877H416.021ZM416.021 801.156H417.639V645.877H416.021H414.404V801.156H416.021ZM416.021 645.877V647.495H571.3V645.877V644.26H416.021V645.877Z" fill="#2B2BA0" fill-opacity="0.43" mask="url(#path-201-inside-98_491_3243)"/>
<mask id="path-203-inside-99_491_3243" fill="white">
<path d="M416.022 801.155H260.743V645.877H416.022V801.155Z"/>
</mask>
<path d="M260.743 645.877V644.26H259.126V645.877H260.743ZM260.743 801.155H262.361V645.877H260.743H259.126V801.155H260.743ZM260.743 645.877V647.495H416.022V645.877V644.26H260.743V645.877Z" fill="#2B2BA0" fill-opacity="0.43" mask="url(#path-203-inside-99_491_3243)"/>
<mask id="path-205-inside-100_491_3243" fill="white">
<path d="M1968.8 645.877H1813.53V490.599H1968.8V645.877Z"/>
</mask>
<path d="M1813.53 490.599V488.982H1811.91V490.599H1813.53ZM1813.53 645.877H1815.14V490.599H1813.53H1811.91V645.877H1813.53ZM1813.53 490.599V492.217H1968.8V490.599V488.982H1813.53V490.599Z" fill="#2B2BA0" fill-opacity="0.43" mask="url(#path-205-inside-100_491_3243)"/>
<mask id="path-207-inside-101_491_3243" fill="white">
<path d="M1813.53 645.877H1658.25V490.599H1813.53V645.877Z"/>
</mask>
<path d="M1658.25 490.599V488.982H1656.63V490.599H1658.25ZM1658.25 645.877H1659.87V490.599H1658.25H1656.63V645.877H1658.25ZM1658.25 490.599V492.217H1813.53V490.599V488.982H1658.25V490.599Z" fill="#2B2BA0" fill-opacity="0.43" mask="url(#path-207-inside-101_491_3243)"/>
<mask id="path-209-inside-102_491_3243" fill="white">
<path d="M1658.25 645.877H1502.97V490.599H1658.25V645.877Z"/>
</mask>
<path d="M1502.97 490.599V488.982H1501.35V490.599H1502.97ZM1502.97 645.877H1504.59V490.599H1502.97H1501.35V645.877H1502.97ZM1502.97 490.599V492.217H1658.25V490.599V488.982H1502.97V490.599Z" fill="#2B2BA0" fill-opacity="0.43" mask="url(#path-209-inside-102_491_3243)"/>
<mask id="path-211-inside-103_491_3243" fill="white">
<path d="M1502.97 645.877H1347.69V490.599H1502.97V645.877Z"/>
</mask>
<path d="M1347.69 490.599V488.982H1346.07V490.599H1347.69ZM1347.69 645.877H1349.31V490.599H1347.69H1346.07V645.877H1347.69ZM1347.69 490.599V492.217H1502.97V490.599V488.982H1347.69V490.599Z" fill="#2B2BA0" fill-opacity="0.43" mask="url(#path-211-inside-103_491_3243)"/>
<mask id="path-213-inside-104_491_3243" fill="white">
<path d="M1347.69 645.877H1192.41V490.599H1347.69V645.877Z"/>
</mask>
<path d="M1192.41 490.599V488.982H1190.8V490.599H1192.41ZM1192.41 645.877H1194.03V490.599H1192.41H1190.8V645.877H1192.41ZM1192.41 490.599V492.217H1347.69V490.599V488.982H1192.41V490.599Z" fill="#2B2BA0" fill-opacity="0.43" mask="url(#path-213-inside-104_491_3243)"/>
<mask id="path-215-inside-105_491_3243" fill="white">
<path d="M1192.41 645.877H1037.13V490.599H1192.41V645.877Z"/>
</mask>
<path d="M1037.13 490.599V488.982H1035.52V490.599H1037.13ZM1037.13 645.877H1038.75V490.599H1037.13H1035.52V645.877H1037.13ZM1037.13 490.599V492.217H1192.41V490.599V488.982H1037.13V490.599Z" fill="#2B2BA0" fill-opacity="0.43" mask="url(#path-215-inside-105_491_3243)"/>
<mask id="path-217-inside-106_491_3243" fill="white">
<path d="M1037.13 645.877H881.856V490.599H1037.13V645.877Z"/>
</mask>
<path d="M881.856 490.599V488.982H880.239V490.599H881.856ZM881.856 645.877H883.474V490.599H881.856H880.239V645.877H881.856ZM881.856 490.599V492.217H1037.13V490.599V488.982H881.856V490.599Z" fill="#2B2BA0" fill-opacity="0.43" mask="url(#path-217-inside-106_491_3243)"/>
<mask id="path-219-inside-107_491_3243" fill="white">
<path d="M881.856 645.877H726.578V490.599H881.856V645.877Z"/>
</mask>
<path d="M726.578 490.599V488.982H724.96V490.599H726.578ZM726.578 645.877H728.195V490.599H726.578H724.96V645.877H726.578ZM726.578 490.599V492.217H881.856V490.599V488.982H726.578V490.599Z" fill="#2B2BA0" fill-opacity="0.43" mask="url(#path-219-inside-107_491_3243)"/>
<mask id="path-221-inside-108_491_3243" fill="white">
<path d="M726.579 645.877H571.3V490.599H726.579V645.877Z"/>
</mask>
<path d="M726.579 645.877H571.3V490.599H726.579V645.877Z" fill="#2B2BA0" fill-opacity="0.58"/>
<path d="M571.3 490.599V488.982H569.683V490.599H571.3ZM571.3 645.877H572.918V490.599H571.3H569.683V645.877H571.3ZM571.3 490.599V492.217H726.579V490.599V488.982H571.3V490.599Z" fill="#2B2BA0" fill-opacity="0.43" mask="url(#path-221-inside-108_491_3243)"/>
<mask id="path-223-inside-109_491_3243" fill="white">
<path d="M571.3 645.877H416.021V490.599H571.3V645.877Z"/>
</mask>
<path d="M416.021 490.599V488.982H414.404V490.599H416.021ZM416.021 645.877H417.639V490.599H416.021H414.404V645.877H416.021ZM416.021 490.599V492.217H571.3V490.599V488.982H416.021V490.599Z" fill="#2B2BA0" fill-opacity="0.43" mask="url(#path-223-inside-109_491_3243)"/>
<mask id="path-225-inside-110_491_3243" fill="white">
<path d="M416.022 645.877H260.743V490.599H416.022V645.877Z"/>
</mask>
<path d="M260.743 490.599V488.982H259.126V490.599H260.743ZM260.743 645.877H262.361V490.599H260.743H259.126V645.877H260.743ZM260.743 490.599V492.217H416.022V490.599V488.982H260.743V490.599Z" fill="#2B2BA0" fill-opacity="0.43" mask="url(#path-225-inside-110_491_3243)"/>
<mask id="path-227-inside-111_491_3243" fill="white">
<path d="M1968.8 490.599H1813.53V335.321H1968.8V490.599Z"/>
</mask>
<path d="M1813.53 335.321V333.703H1811.91V335.321H1813.53ZM1813.53 490.599H1815.14V335.321H1813.53H1811.91V490.599H1813.53ZM1813.53 335.321V336.938H1968.8V335.321V333.703H1813.53V335.321Z" fill="#2B2BA0" fill-opacity="0.43" mask="url(#path-227-inside-111_491_3243)"/>
<mask id="path-229-inside-112_491_3243" fill="white">
<path d="M1813.53 490.599H1658.25V335.321H1813.53V490.599Z"/>
</mask>
<path d="M1658.25 335.321V333.703H1656.63V335.321H1658.25ZM1658.25 490.599H1659.87V335.321H1658.25H1656.63V490.599H1658.25ZM1658.25 335.321V336.938H1813.53V335.321V333.703H1658.25V335.321Z" fill="#2B2BA0" fill-opacity="0.43" mask="url(#path-229-inside-112_491_3243)"/>
<mask id="path-231-inside-113_491_3243" fill="white">
<path d="M1658.25 490.599H1502.97V335.321H1658.25V490.599Z"/>
</mask>
<path d="M1658.25 490.599H1502.97V335.321H1658.25V490.599Z" fill="#2B2BA0" fill-opacity="0.58"/>
<path d="M1502.97 335.321V333.703H1501.35V335.321H1502.97ZM1502.97 490.599H1504.59V335.321H1502.97H1501.35V490.599H1502.97ZM1502.97 335.321V336.938H1658.25V335.321V333.703H1502.97V335.321Z" fill="#2B2BA0" fill-opacity="0.43" mask="url(#path-231-inside-113_491_3243)"/>
<mask id="path-233-inside-114_491_3243" fill="white">
<path d="M1502.97 490.599H1347.69V335.321H1502.97V490.599Z"/>
</mask>
<path d="M1347.69 335.321V333.703H1346.07V335.321H1347.69ZM1347.69 490.599H1349.31V335.321H1347.69H1346.07V490.599H1347.69ZM1347.69 335.321V336.938H1502.97V335.321V333.703H1347.69V335.321Z" fill="#2B2BA0" fill-opacity="0.43" mask="url(#path-233-inside-114_491_3243)"/>
<mask id="path-235-inside-115_491_3243" fill="white">
<path d="M1347.69 490.599H1192.41V335.321H1347.69V490.599Z"/>
</mask>
<path d="M1192.41 335.321V333.703H1190.8V335.321H1192.41ZM1192.41 490.599H1194.03V335.321H1192.41H1190.8V490.599H1192.41ZM1192.41 335.321V336.938H1347.69V335.321V333.703H1192.41V335.321Z" fill="#2B2BA0" fill-opacity="0.43" mask="url(#path-235-inside-115_491_3243)"/>
<mask id="path-237-inside-116_491_3243" fill="white">
<path d="M1192.41 490.599H1037.13V335.321H1192.41V490.599Z"/>
</mask>
<path d="M1037.13 335.321V333.703H1035.52V335.321H1037.13ZM1037.13 490.599H1038.75V335.321H1037.13H1035.52V490.599H1037.13ZM1037.13 335.321V336.938H1192.41V335.321V333.703H1037.13V335.321Z" fill="#2B2BA0" fill-opacity="0.43" mask="url(#path-237-inside-116_491_3243)"/>
<mask id="path-239-inside-117_491_3243" fill="white">
<path d="M1037.13 490.599H881.856V335.321H1037.13V490.599Z"/>
</mask>
<path d="M881.856 335.321V333.703H880.239V335.321H881.856ZM881.856 490.599H883.474V335.321H881.856H880.239V490.599H881.856ZM881.856 335.321V336.938H1037.13V335.321V333.703H881.856V335.321Z" fill="#2B2BA0" fill-opacity="0.43" mask="url(#path-239-inside-117_491_3243)"/>
<mask id="path-241-inside-118_491_3243" fill="white">
<path d="M881.856 490.599H726.578V335.321H881.856V490.599Z"/>
</mask>
<path d="M726.578 335.321V333.703H724.96V335.321H726.578ZM726.578 490.599H728.195V335.321H726.578H724.96V490.599H726.578ZM726.578 335.321V336.938H881.856V335.321V333.703H726.578V335.321Z" fill="#2B2BA0" fill-opacity="0.43" mask="url(#path-241-inside-118_491_3243)"/>
<mask id="path-243-inside-119_491_3243" fill="white">
<path d="M726.579 490.599H571.3V335.321H726.579V490.599Z"/>
</mask>
<path d="M571.3 335.321V333.703H569.683V335.321H571.3ZM571.3 490.599H572.918V335.321H571.3H569.683V490.599H571.3ZM571.3 335.321V336.938H726.579V335.321V333.703H571.3V335.321Z" fill="#2B2BA0" fill-opacity="0.43" mask="url(#path-243-inside-119_491_3243)"/>
<mask id="path-245-inside-120_491_3243" fill="white">
<path d="M571.3 490.599H416.021V335.321H571.3V490.599Z"/>
</mask>
<path d="M416.021 335.321V333.703H414.404V335.321H416.021ZM416.021 490.599H417.639V335.321H416.021H414.404V490.599H416.021ZM416.021 335.321V336.938H571.3V335.321V333.703H416.021V335.321Z" fill="#2B2BA0" fill-opacity="0.43" mask="url(#path-245-inside-120_491_3243)"/>
<mask id="path-247-inside-121_491_3243" fill="white">
<path d="M416.022 490.599H260.743V335.321H416.022V490.599Z"/>
</mask>
<path d="M260.743 335.321V333.703H259.126V335.321H260.743ZM260.743 490.599H262.361V335.321H260.743H259.126V490.599H260.743ZM260.743 335.321V336.938H416.022V335.321V333.703H260.743V335.321Z" fill="#2B2BA0" fill-opacity="0.43" mask="url(#path-247-inside-121_491_3243)"/>
<mask id="path-249-inside-122_491_3243" fill="white">
<path d="M1968.8 335.321H1813.53V180.043H1968.8V335.321Z"/>
</mask>
<path d="M1813.53 180.043V178.425H1811.91V180.043H1813.53ZM1813.53 335.321H1815.14V180.043H1813.53H1811.91V335.321H1813.53ZM1813.53 180.043V181.66H1968.8V180.043V178.425H1813.53V180.043Z" fill="#2B2BA0" fill-opacity="0.43" mask="url(#path-249-inside-122_491_3243)"/>
<mask id="path-251-inside-123_491_3243" fill="white">
<path d="M1813.53 335.321H1658.25V180.043H1813.53V335.321Z"/>
</mask>
<path d="M1658.25 180.043V178.425H1656.63V180.043H1658.25ZM1658.25 335.321H1659.87V180.043H1658.25H1656.63V335.321H1658.25ZM1658.25 180.043V181.66H1813.53V180.043V178.425H1658.25V180.043Z" fill="#2B2BA0" fill-opacity="0.43" mask="url(#path-251-inside-123_491_3243)"/>
<mask id="path-253-inside-124_491_3243" fill="white">
<path d="M1658.25 335.321H1502.97V180.043H1658.25V335.321Z"/>
</mask>
<path d="M1502.97 180.043V178.425H1501.35V180.043H1502.97ZM1502.97 335.321H1504.59V180.043H1502.97H1501.35V335.321H1502.97ZM1502.97 180.043V181.66H1658.25V180.043V178.425H1502.97V180.043Z" fill="#2B2BA0" fill-opacity="0.43" mask="url(#path-253-inside-124_491_3243)"/>
<mask id="path-255-inside-125_491_3243" fill="white">
<path d="M1502.97 335.321H1347.69V180.042H1502.97V335.321Z"/>
</mask>
<path d="M1347.69 180.042V178.425H1346.07V180.042H1347.69ZM1347.69 335.321H1349.31V180.042H1347.69H1346.07V335.321H1347.69ZM1347.69 180.042V181.66H1502.97V180.042V178.425H1347.69V180.042Z" fill="#2B2BA0" fill-opacity="0.43" mask="url(#path-255-inside-125_491_3243)"/>
<mask id="path-257-inside-126_491_3243" fill="white">
<path d="M1347.69 335.321H1192.41V180.042H1347.69V335.321Z"/>
</mask>
<path d="M1192.41 180.042V178.425H1190.8V180.042H1192.41ZM1192.41 335.321H1194.03V180.042H1192.41H1190.8V335.321H1192.41ZM1192.41 180.042V181.66H1347.69V180.042V178.425H1192.41V180.042Z" fill="#2B2BA0" fill-opacity="0.43" mask="url(#path-257-inside-126_491_3243)"/>
<mask id="path-259-inside-127_491_3243" fill="white">
<path d="M1192.41 335.321H1037.13V180.042H1192.41V335.321Z"/>
</mask>
<path d="M1192.41 335.321H1037.13V180.042H1192.41V335.321Z" fill="#2B2BA0" fill-opacity="0.58"/>
<path d="M1037.13 180.042V178.425H1035.52V180.042H1037.13ZM1037.13 335.321H1038.75V180.042H1037.13H1035.52V335.321H1037.13ZM1037.13 180.042V181.66H1192.41V180.042V178.425H1037.13V180.042Z" fill="#2B2BA0" fill-opacity="0.43" mask="url(#path-259-inside-127_491_3243)"/>
<mask id="path-261-inside-128_491_3243" fill="white">
<path d="M1037.13 335.321H881.856V180.042H1037.13V335.321Z"/>
</mask>
<path d="M881.856 180.042V178.425H880.239V180.042H881.856ZM881.856 335.321H883.474V180.042H881.856H880.239V335.321H881.856ZM881.856 180.042V181.66H1037.13V180.042V178.425H881.856V180.042Z" fill="#2B2BA0" fill-opacity="0.43" mask="url(#path-261-inside-128_491_3243)"/>
<mask id="path-263-inside-129_491_3243" fill="white">
<path d="M881.856 335.321H726.578V180.042H881.856V335.321Z"/>
</mask>
<path d="M726.578 180.042V178.425H724.96V180.042H726.578ZM726.578 335.321H728.195V180.042H726.578H724.96V335.321H726.578ZM726.578 180.042V181.66H881.856V180.042V178.425H726.578V180.042Z" fill="#2B2BA0" fill-opacity="0.43" mask="url(#path-263-inside-129_491_3243)"/>
<mask id="path-265-inside-130_491_3243" fill="white">
<path d="M726.578 335.321H571.3V180.042H726.578V335.321Z"/>
</mask>
<path d="M571.3 180.042V178.425H569.682V180.042H571.3ZM571.3 335.321H572.917V180.042H571.3H569.682V335.321H571.3ZM571.3 180.042V181.66H726.578V180.042V178.425H571.3V180.042Z" fill="#2B2BA0" fill-opacity="0.43" mask="url(#path-265-inside-130_491_3243)"/>
<mask id="path-267-inside-131_491_3243" fill="white">
<path d="M571.3 335.321H416.021V180.042H571.3V335.321Z"/>
</mask>
<path d="M416.021 180.042V178.425H414.404V180.042H416.021ZM416.021 335.321H417.639V180.042H416.021H414.404V335.321H416.021ZM416.021 180.042V181.66H571.3V180.042V178.425H416.021V180.042Z" fill="#2B2BA0" fill-opacity="0.43" mask="url(#path-267-inside-131_491_3243)"/>
<mask id="path-269-inside-132_491_3243" fill="white">
<path d="M416.021 335.321H260.743V180.042H416.021V335.321Z"/>
</mask>
<path d="M260.743 180.042V178.425H259.126V180.042H260.743ZM260.743 335.321H262.36V180.042H260.743H259.126V335.321H260.743ZM260.743 180.042V181.66H416.021V180.042V178.425H260.743V180.042Z" fill="#2B2BA0" fill-opacity="0.43" mask="url(#path-269-inside-132_491_3243)"/>
</g>
<rect x="2899.67" y="1110.9" width="3103.95" height="2327.56" transform="rotate(180 2899.67 1110.9)" stroke="#2B2BA0" stroke-opacity="0.43" stroke-width="1.61748"/>
</g>
</g>
</g>
</g>
<defs>
<filter id="filter0_f_491_3243" x="-935.913" y="-179.431" width="1628.1" height="1530.5" filterUnits="userSpaceOnUse" color-interpolation-filters="sRGB">
<feFlood flood-opacity="0" result="BackgroundImageFix"/>
<feBlend mode="normal" in="SourceGraphic" in2="BackgroundImageFix" result="shape"/>
<feGaussianBlur stdDeviation="323.496" result="effect1_foregroundBlur_491_3243"/>
</filter>
<filter id="filter1_f_491_3243" x="1226.81" y="-179.431" width="1628.1" height="1530.5" filterUnits="userSpaceOnUse" color-interpolation-filters="sRGB">
<feFlood flood-opacity="0" result="BackgroundImageFix"/>
<feBlend mode="normal" in="SourceGraphic" in2="BackgroundImageFix" result="shape"/>
<feGaussianBlur stdDeviation="323.496" result="effect1_foregroundBlur_491_3243"/>
</filter>
<radialGradient id="paint0_radial_491_3243" cx="0" cy="0" r="1" gradientUnits="userSpaceOnUse" gradientTransform="translate(1164.59 -0.000230804) rotate(90) scale(1936.13 1215.68)">
<stop/>
<stop offset="0.953125" stop-opacity="0"/>
</radialGradient>
<radialGradient id="paint1_radial_491_3243" cx="0" cy="0" r="1" gradientUnits="userSpaceOnUse" gradientTransform="translate(1164.59 -0.000230804) rotate(90) scale(1936.13 1215.68)">
<stop/>
<stop offset="0.953125" stop-opacity="0"/>
</radialGradient>
<clipPath id="clip0_491_3243">
<rect width="1920" height="929.712" fill="white" transform="matrix(1 0 0 -1 -389 1111.71)"/>
</clipPath>
<clipPath id="clip1_491_3243">
<rect width="3105.57" height="2329.17" transform="matrix(1 0 0 -1 -981.474 1111.71)" fill="white"/>
</clipPath>
<clipPath id="clip2_491_3243">
<rect width="1920" height="929.712" fill="white" transform="matrix(-1 0 0 -1 2308 1111.71)"/>
</clipPath>
<clipPath id="clip3_491_3243">
<rect x="2900.47" y="1111.71" width="3105.57" height="2329.17" transform="rotate(180 2900.47 1111.71)" fill="white"/>
</clipPath>
</defs>
</svg>
