<svg width="783" height="631" viewBox="0 0 783 631" fill="none" xmlns="http://www.w3.org/2000/svg">
<path d="M107.962 14.5L69.4623 57.5L74.4623 0H57.9623L63.4623 57.5L22.4623 12.5L12.4623 23.5L60.4623 61.5L0.96228 57.5V70.5L61.4623 66L16.4623 103L25.9623 111.5L64.9623 68.5L61.4623 128.5H72.9623L69.4623 68.5L107.962 115L115.962 106.5L70.9623 66L130.462 68.5V59.5L70.9623 63.5L115.962 23.5L107.962 14.5Z" fill="#24C4E6"/>
<rect x="48.4623" y="78.4998" width="465" height="327" rx="20.5" fill="#FF596D" stroke="#656565" stroke-width="3"/>
<rect x="70.4623" y="56.4998" width="465" height="327" rx="20.5" fill="url(#paint0_linear_491_4823)" stroke="#656565" stroke-width="3"/>
<circle cx="123.962" cy="175" r="18" fill="#F3F1ED"/>
<rect x="152.962" y="159.5" width="292" height="13" fill="#F3F1ED"/>
<rect x="152.962" y="177.5" width="154" height="13" fill="#F3F1ED"/>
<circle cx="123.962" cy="251" r="18" fill="#F3F1ED"/>
<rect x="152.962" y="235.5" width="292" height="13" fill="#F3F1ED"/>
<rect x="152.962" y="253.5" width="154" height="13" fill="#F3F1ED"/>
<circle cx="123.962" cy="327" r="18" fill="#F3F1ED"/>
<rect x="152.962" y="311.5" width="292" height="13" fill="#F3F1ED"/>
<rect x="152.962" y="329.5" width="154" height="13" fill="#F3F1ED"/>
<rect x="106.462" y="85.4998" width="119" height="31" rx="15.5" fill="#FF596D"/>
<rect x="106.462" y="85.4998" width="119" height="31" rx="15.5" stroke="#656565"/>
<path d="M121.398 105V103.74H123.606C124.182 103.74 124.686 103.616 125.118 103.368C125.558 103.12 125.898 102.776 126.138 102.336C126.386 101.888 126.51 101.372 126.51 100.788C126.51 100.212 126.386 99.7038 126.138 99.2638C125.89 98.8238 125.546 98.4798 125.106 98.2318C124.674 97.9838 124.174 97.8598 123.606 97.8598H121.398V96.5998H123.642C124.25 96.5998 124.814 96.7078 125.334 96.9238C125.854 97.1318 126.306 97.4278 126.69 97.8118C127.082 98.1878 127.386 98.6318 127.602 99.1438C127.818 99.6478 127.926 100.2 127.926 100.8C127.926 101.392 127.818 101.944 127.602 102.456C127.386 102.968 127.086 103.416 126.702 103.8C126.318 104.176 125.866 104.472 125.346 104.688C124.826 104.896 124.266 105 123.666 105H121.398ZM120.45 105V96.5998H121.83V105H120.45ZM129.165 105V99.2398H130.485V105H129.165ZM129.825 98.1838C129.601 98.1838 129.413 98.1078 129.261 97.9558C129.117 97.8038 129.045 97.6158 129.045 97.3918C129.045 97.1678 129.117 96.9798 129.261 96.8278C129.413 96.6758 129.601 96.5998 129.825 96.5998C130.057 96.5998 130.245 96.6758 130.389 96.8278C130.533 96.9798 130.605 97.1678 130.605 97.3918C130.605 97.6158 130.533 97.8038 130.389 97.9558C130.245 98.1078 130.057 98.1838 129.825 98.1838ZM134.366 107.52C133.758 107.52 133.226 107.408 132.77 107.184C132.314 106.968 131.946 106.66 131.666 106.26L132.53 105.396C132.762 105.684 133.026 105.9 133.322 106.044C133.618 106.188 133.974 106.26 134.39 106.26C134.91 106.26 135.322 106.124 135.626 105.852C135.93 105.588 136.082 105.224 136.082 104.76V103.344L136.31 102.072L136.082 100.788V99.2398H137.402V104.76C137.402 105.312 137.274 105.792 137.018 106.2C136.762 106.616 136.406 106.94 135.95 107.172C135.494 107.404 134.966 107.52 134.366 107.52ZM134.306 104.88C133.794 104.88 133.33 104.756 132.914 104.508C132.506 104.252 132.182 103.904 131.942 103.464C131.71 103.024 131.594 102.532 131.594 101.988C131.594 101.444 131.71 100.956 131.942 100.524C132.182 100.092 132.506 99.7518 132.914 99.5038C133.33 99.2478 133.794 99.1198 134.306 99.1198C134.762 99.1198 135.162 99.2118 135.506 99.3958C135.85 99.5798 136.118 99.8358 136.31 100.164C136.502 100.484 136.598 100.86 136.598 101.292V102.708C136.598 103.132 136.498 103.508 136.298 103.836C136.106 104.164 135.838 104.42 135.494 104.604C135.15 104.788 134.754 104.88 134.306 104.88ZM134.57 103.632C134.89 103.632 135.17 103.564 135.41 103.428C135.65 103.292 135.834 103.104 135.962 102.864C136.098 102.616 136.166 102.328 136.166 102C136.166 101.672 136.098 101.388 135.962 101.148C135.834 100.9 135.65 100.708 135.41 100.572C135.17 100.436 134.89 100.368 134.57 100.368C134.25 100.368 133.966 100.436 133.718 100.572C133.478 100.708 133.29 100.9 133.154 101.148C133.018 101.388 132.95 101.672 132.95 102C132.95 102.32 133.018 102.604 133.154 102.852C133.29 103.1 133.478 103.292 133.718 103.428C133.966 103.564 134.25 103.632 134.57 103.632ZM138.88 105V99.2398H140.2V105H138.88ZM139.54 98.1838C139.316 98.1838 139.128 98.1078 138.976 97.9558C138.832 97.8038 138.76 97.6158 138.76 97.3918C138.76 97.1678 138.832 96.9798 138.976 96.8278C139.128 96.6758 139.316 96.5998 139.54 96.5998C139.772 96.5998 139.96 96.6758 140.104 96.8278C140.248 96.9798 140.32 97.1678 140.32 97.3918C140.32 97.6158 140.248 97.8038 140.104 97.9558C139.96 98.1078 139.772 98.1838 139.54 98.1838ZM142.557 105V96.8398H143.877V105H142.557ZM141.177 100.44V99.2398H145.257V100.44H141.177ZM148.464 105.12C147.944 105.12 147.472 104.988 147.048 104.724C146.632 104.46 146.3 104.104 146.052 103.656C145.812 103.2 145.692 102.692 145.692 102.132C145.692 101.564 145.812 101.056 146.052 100.608C146.3 100.152 146.632 99.7918 147.048 99.5278C147.472 99.2558 147.944 99.1198 148.464 99.1198C148.904 99.1198 149.292 99.2158 149.628 99.4078C149.972 99.5918 150.244 99.8478 150.444 100.176C150.644 100.504 150.744 100.876 150.744 101.292V102.948C150.744 103.364 150.644 103.736 150.444 104.064C150.252 104.392 149.984 104.652 149.64 104.844C149.296 105.028 148.904 105.12 148.464 105.12ZM148.68 103.872C149.168 103.872 149.56 103.708 149.856 103.38C150.16 103.052 150.312 102.632 150.312 102.12C150.312 101.776 150.244 101.472 150.108 101.208C149.972 100.944 149.78 100.74 149.532 100.596C149.292 100.444 149.008 100.368 148.68 100.368C148.36 100.368 148.076 100.444 147.828 100.596C147.588 100.74 147.396 100.944 147.252 101.208C147.116 101.472 147.048 101.776 147.048 102.12C147.048 102.464 147.116 102.768 147.252 103.032C147.396 103.296 147.588 103.504 147.828 103.656C148.076 103.8 148.36 103.872 148.68 103.872ZM150.228 105V103.452L150.456 102.048L150.228 100.656V99.2398H151.548V105H150.228ZM153.013 105V96.3598H154.333V105H153.013ZM158.384 105V96.5998H159.344L162.836 102.348H162.212L165.704 96.5998H166.664V105H165.284V99.0238L165.596 99.1078L163.004 103.368H162.044L159.452 99.1078L159.764 99.0238V105H158.384ZM170.718 105.12C170.198 105.12 169.726 104.988 169.302 104.724C168.886 104.46 168.554 104.104 168.306 103.656C168.066 103.2 167.946 102.692 167.946 102.132C167.946 101.564 168.066 101.056 168.306 100.608C168.554 100.152 168.886 99.7918 169.302 99.5278C169.726 99.2558 170.198 99.1198 170.718 99.1198C171.158 99.1198 171.546 99.2158 171.882 99.4078C172.226 99.5918 172.498 99.8478 172.698 100.176C172.898 100.504 172.998 100.876 172.998 101.292V102.948C172.998 103.364 172.898 103.736 172.698 104.064C172.506 104.392 172.238 104.652 171.894 104.844C171.55 105.028 171.158 105.12 170.718 105.12ZM170.934 103.872C171.422 103.872 171.814 103.708 172.11 103.38C172.414 103.052 172.566 102.632 172.566 102.12C172.566 101.776 172.498 101.472 172.362 101.208C172.226 100.944 172.034 100.74 171.786 100.596C171.546 100.444 171.262 100.368 170.934 100.368C170.614 100.368 170.33 100.444 170.082 100.596C169.842 100.74 169.65 100.944 169.506 101.208C169.37 101.472 169.302 101.776 169.302 102.12C169.302 102.464 169.37 102.768 169.506 103.032C169.65 103.296 169.842 103.504 170.082 103.656C170.33 103.8 170.614 103.872 170.934 103.872ZM172.482 105V103.452L172.71 102.048L172.482 100.656V99.2398H173.802V105H172.482ZM175.267 105V99.2398H176.587V105H175.267ZM176.587 101.796L176.131 101.568C176.131 100.84 176.291 100.252 176.611 99.8038C176.939 99.3478 177.431 99.1198 178.087 99.1198C178.375 99.1198 178.635 99.1718 178.867 99.2758C179.099 99.3798 179.315 99.5478 179.515 99.7798L178.651 100.668C178.547 100.556 178.431 100.476 178.303 100.428C178.175 100.38 178.027 100.356 177.859 100.356C177.491 100.356 177.187 100.472 176.947 100.704C176.707 100.936 176.587 101.3 176.587 101.796ZM183.813 105L181.377 102.06L183.801 99.2398H185.373L182.589 102.408L182.649 101.652L185.493 105H183.813ZM180.153 105V96.3598H181.473V105H180.153ZM188.665 105.12C188.089 105.12 187.569 104.992 187.105 104.736C186.649 104.472 186.285 104.112 186.013 103.656C185.749 103.2 185.617 102.688 185.617 102.12C185.617 101.552 185.749 101.044 186.013 100.596C186.277 100.14 186.633 99.7798 187.081 99.5158C187.537 99.2518 188.041 99.1198 188.593 99.1198C189.129 99.1198 189.601 99.2438 190.009 99.4918C190.425 99.7398 190.749 100.08 190.981 100.512C191.221 100.944 191.341 101.436 191.341 101.988C191.341 102.084 191.333 102.184 191.317 102.288C191.309 102.384 191.293 102.492 191.269 102.612H186.541V101.532H190.585L190.093 101.964C190.077 101.612 190.009 101.316 189.889 101.076C189.769 100.836 189.597 100.652 189.373 100.524C189.157 100.396 188.889 100.332 188.569 100.332C188.233 100.332 187.941 100.404 187.693 100.548C187.445 100.692 187.253 100.896 187.117 101.16C186.981 101.416 186.913 101.724 186.913 102.084C186.913 102.444 186.985 102.76 187.129 103.032C187.273 103.304 187.477 103.516 187.741 103.668C188.005 103.812 188.309 103.884 188.653 103.884C188.949 103.884 189.221 103.832 189.469 103.728C189.725 103.624 189.941 103.472 190.117 103.272L190.957 104.124C190.677 104.452 190.337 104.7 189.937 104.868C189.537 105.036 189.113 105.12 188.665 105.12ZM193.135 105V96.8398H194.455V105H193.135ZM191.755 100.44V99.2398H195.835V100.44H191.755ZM196.806 105V99.2398H198.126V105H196.806ZM197.466 98.1838C197.242 98.1838 197.054 98.1078 196.902 97.9558C196.758 97.8038 196.686 97.6158 196.686 97.3918C196.686 97.1678 196.758 96.9798 196.902 96.8278C197.054 96.6758 197.242 96.5998 197.466 96.5998C197.698 96.5998 197.886 96.6758 198.03 96.8278C198.174 96.9798 198.246 97.1678 198.246 97.3918C198.246 97.6158 198.174 97.8038 198.03 97.9558C197.886 98.1078 197.698 98.1838 197.466 98.1838ZM203.554 105V101.676C203.554 101.292 203.43 100.976 203.182 100.728C202.942 100.48 202.63 100.356 202.246 100.356C201.99 100.356 201.762 100.412 201.562 100.524C201.362 100.636 201.206 100.792 201.094 100.992C200.982 101.192 200.926 101.42 200.926 101.676L200.41 101.388C200.41 100.948 200.506 100.56 200.698 100.224C200.89 99.8798 201.154 99.6118 201.49 99.4198C201.834 99.2198 202.218 99.1198 202.642 99.1198C203.074 99.1198 203.458 99.2318 203.794 99.4558C204.13 99.6718 204.394 99.9558 204.586 100.308C204.778 100.652 204.874 101.012 204.874 101.388V105H203.554ZM199.606 105V99.2398H200.926V105H199.606ZM208.616 107.52C208.008 107.52 207.476 107.408 207.02 107.184C206.564 106.968 206.196 106.66 205.916 106.26L206.78 105.396C207.012 105.684 207.276 105.9 207.572 106.044C207.868 106.188 208.224 106.26 208.64 106.26C209.16 106.26 209.572 106.124 209.876 105.852C210.18 105.588 210.332 105.224 210.332 104.76V103.344L210.56 102.072L210.332 100.788V99.2398H211.652V104.76C211.652 105.312 211.524 105.792 211.268 106.2C211.012 106.616 210.656 106.94 210.2 107.172C209.744 107.404 209.216 107.52 208.616 107.52ZM208.556 104.88C208.044 104.88 207.58 104.756 207.164 104.508C206.756 104.252 206.432 103.904 206.192 103.464C205.96 103.024 205.844 102.532 205.844 101.988C205.844 101.444 205.96 100.956 206.192 100.524C206.432 100.092 206.756 99.7518 207.164 99.5038C207.58 99.2478 208.044 99.1198 208.556 99.1198C209.012 99.1198 209.412 99.2118 209.756 99.3958C210.1 99.5798 210.368 99.8358 210.56 100.164C210.752 100.484 210.848 100.86 210.848 101.292V102.708C210.848 103.132 210.748 103.508 210.548 103.836C210.356 104.164 210.088 104.42 209.744 104.604C209.4 104.788 209.004 104.88 208.556 104.88ZM208.82 103.632C209.14 103.632 209.42 103.564 209.66 103.428C209.9 103.292 210.084 103.104 210.212 102.864C210.348 102.616 210.416 102.328 210.416 102C210.416 101.672 210.348 101.388 210.212 101.148C210.084 100.9 209.9 100.708 209.66 100.572C209.42 100.436 209.14 100.368 208.82 100.368C208.5 100.368 208.216 100.436 207.968 100.572C207.728 100.708 207.54 100.9 207.404 101.148C207.268 101.388 207.2 101.672 207.2 102C207.2 102.32 207.268 102.604 207.404 102.852C207.54 103.1 207.728 103.292 207.968 103.428C208.216 103.564 208.5 103.632 208.82 103.632Z" fill="#001C08"/>
<rect x="477.462" y="85.4998" width="33" height="31" rx="15.5" fill="#FF596D"/>
<rect x="477.462" y="85.4998" width="33" height="31" rx="15.5" stroke="#656565"/>
<path d="M493.821 105V96.5998H495.177V105H493.821ZM492.141 97.8358V96.5998H495.057V97.8358H492.141Z" fill="#001C08"/>
<rect x="150.462" y="176.5" width="465" height="327" rx="20.5" fill="#FCD34D" stroke="#656565" stroke-width="3"/>
<rect x="172.462" y="154.5" width="465" height="327" rx="20.5" fill="url(#paint1_linear_491_4823)" stroke="#656565" stroke-width="3"/>
<path d="M199.962 401.874L186.362 401.874L186.362 399.574L199.962 399.574L199.962 401.874ZM188.062 406.434L185.962 406.434L185.962 395.014L188.062 395.014L188.062 406.434ZM200.162 391.332C200.162 392.292 199.949 393.158 199.522 393.932C199.082 394.692 198.482 395.298 197.722 395.752C196.962 396.192 196.109 396.412 195.162 396.412C194.216 396.412 193.369 396.192 192.622 395.752C191.862 395.312 191.262 394.718 190.822 393.972C190.382 393.212 190.162 392.372 190.162 391.452C190.162 390.558 190.369 389.772 190.782 389.092C191.196 388.398 191.762 387.858 192.482 387.472C193.202 387.072 194.022 386.872 194.942 386.872C195.102 386.872 195.269 386.885 195.442 386.912C195.602 386.925 195.782 386.952 195.982 386.992L195.982 394.872L194.182 394.872L194.182 388.132L194.902 388.952C194.316 388.978 193.822 389.092 193.422 389.292C193.022 389.492 192.716 389.778 192.502 390.152C192.289 390.512 192.182 390.958 192.182 391.492C192.182 392.052 192.302 392.538 192.542 392.952C192.782 393.365 193.122 393.685 193.562 393.912C193.989 394.138 194.502 394.252 195.102 394.252C195.702 394.252 196.229 394.132 196.682 393.892C197.136 393.652 197.489 393.312 197.742 392.872C197.982 392.432 198.102 391.925 198.102 391.352C198.102 390.858 198.016 390.405 197.842 389.992C197.669 389.565 197.416 389.205 197.082 388.912L198.502 387.512C199.049 387.978 199.462 388.545 199.742 389.212C200.022 389.878 200.162 390.585 200.162 391.332ZM200.162 381.088C200.162 381.955 199.942 382.741 199.502 383.448C199.062 384.141 198.469 384.695 197.722 385.108C196.962 385.508 196.116 385.708 195.182 385.708C194.236 385.708 193.389 385.508 192.642 385.108C191.882 384.695 191.282 384.141 190.842 383.448C190.389 382.741 190.162 381.955 190.162 381.088C190.162 380.355 190.322 379.708 190.642 379.148C190.949 378.575 191.376 378.121 191.922 377.788C192.469 377.455 193.089 377.288 193.782 377.288L196.542 377.288C197.236 377.288 197.856 377.455 198.402 377.788C198.949 378.108 199.382 378.555 199.702 379.128C200.009 379.701 200.162 380.355 200.162 381.088ZM198.082 380.728C198.082 379.915 197.809 379.261 197.262 378.768C196.716 378.261 196.016 378.008 195.162 378.008C194.589 378.008 194.082 378.121 193.642 378.348C193.202 378.575 192.862 378.895 192.622 379.308C192.369 379.708 192.242 380.181 192.242 380.728C192.242 381.261 192.369 381.735 192.622 382.148C192.862 382.548 193.202 382.868 193.642 383.108C194.082 383.335 194.589 383.448 195.162 383.448C195.736 383.448 196.242 383.335 196.682 383.108C197.122 382.868 197.469 382.548 197.722 382.148C197.962 381.735 198.082 381.261 198.082 380.728ZM199.962 378.148L197.382 378.148L195.042 377.768L192.722 378.148L190.362 378.148L190.362 375.948L199.962 375.948L199.962 378.148ZM199.962 373.507L190.362 373.507L190.362 371.307L199.962 371.307L199.962 373.507ZM199.962 367.127L194.242 367.127C193.602 367.127 193.109 367.327 192.762 367.727C192.402 368.127 192.222 368.62 192.222 369.207C192.222 369.607 192.302 369.967 192.462 370.287C192.622 370.593 192.856 370.84 193.162 371.027C193.456 371.213 193.816 371.307 194.242 371.307L193.762 372.167C193.029 372.167 192.396 372.007 191.862 371.687C191.329 371.367 190.916 370.933 190.622 370.387C190.316 369.84 190.162 369.227 190.162 368.547C190.162 367.867 190.309 367.253 190.602 366.707C190.896 366.16 191.309 365.727 191.842 365.407C192.376 365.087 193.016 364.927 193.762 364.927L199.962 364.927L199.962 367.127ZM199.962 360.747L194.242 360.747C193.602 360.747 193.109 360.947 192.762 361.347C192.402 361.747 192.222 362.24 192.222 362.827C192.222 363.213 192.302 363.567 192.462 363.887C192.622 364.207 192.856 364.46 193.162 364.647C193.456 364.833 193.816 364.927 194.242 364.927L193.762 366.167C193.029 366.1 192.396 365.887 191.862 365.527C191.329 365.167 190.916 364.707 190.622 364.147C190.316 363.573 190.162 362.947 190.162 362.267C190.162 361.573 190.309 360.947 190.602 360.387C190.896 359.827 191.309 359.38 191.842 359.047C192.376 358.713 193.016 358.547 193.762 358.547L199.962 358.547L199.962 360.747ZM199.962 349.476L190.362 353.336L190.362 351.056L197.342 348.456L197.362 349.136L190.362 346.596L190.362 345.316L197.362 342.776L197.342 343.456L190.362 340.856L190.362 338.576L199.962 342.436L199.962 343.716L193.322 346.316L193.322 345.596L199.962 348.196L199.962 349.476ZM199.962 337.334L190.362 337.334L190.362 335.134L199.962 335.134L199.962 337.334ZM188.602 336.234C188.602 336.608 188.476 336.921 188.222 337.174C187.969 337.414 187.656 337.534 187.282 337.534C186.909 337.534 186.596 337.414 186.342 337.174C186.089 336.921 185.962 336.608 185.962 336.234C185.962 335.848 186.089 335.534 186.342 335.294C186.596 335.054 186.909 334.934 187.282 334.934C187.656 334.934 187.969 335.054 188.222 335.294C188.476 335.534 188.602 335.848 188.602 336.234ZM199.962 331.207L186.362 331.207L186.362 329.007L199.962 329.007L199.962 331.207ZM192.362 333.507L190.362 333.507L190.362 326.707L192.362 326.707L192.362 333.507ZM199.962 318.528L194.422 318.528C193.782 318.528 193.256 318.735 192.842 319.148C192.429 319.548 192.222 320.068 192.222 320.708C192.222 321.135 192.316 321.515 192.502 321.848C192.689 322.181 192.949 322.441 193.282 322.628C193.616 322.815 193.996 322.908 194.422 322.908L193.942 323.768C193.209 323.768 192.562 323.608 192.002 323.288C191.429 322.968 190.982 322.528 190.662 321.968C190.329 321.395 190.162 320.755 190.162 320.048C190.162 319.328 190.322 318.688 190.642 318.128C190.962 317.568 191.409 317.128 191.982 316.808C192.542 316.488 193.196 316.328 193.942 316.328L199.962 316.328L199.962 318.528ZM199.962 325.108L185.562 325.108L185.562 322.908L199.962 322.908L199.962 325.108ZM200.162 305.669C200.162 306.615 199.942 307.475 199.502 308.249C199.062 309.009 198.462 309.609 197.702 310.049C196.942 310.489 196.096 310.709 195.162 310.709C194.216 310.709 193.369 310.489 192.622 310.049C191.862 309.609 191.262 309.009 190.822 308.249C190.382 307.475 190.162 306.615 190.162 305.669C190.162 304.922 190.309 304.229 190.602 303.589C190.882 302.935 191.289 302.382 191.822 301.929L193.282 303.369C192.949 303.649 192.702 303.989 192.542 304.389C192.369 304.775 192.282 305.202 192.282 305.669C192.282 306.215 192.409 306.702 192.662 307.129C192.902 307.542 193.236 307.869 193.662 308.109C194.089 308.335 194.589 308.449 195.162 308.449C195.722 308.449 196.222 308.335 196.662 308.109C197.089 307.869 197.429 307.542 197.682 307.129C197.922 306.702 198.042 306.215 198.042 305.669C198.042 305.202 197.962 304.775 197.802 304.389C197.629 303.989 197.376 303.649 197.042 303.369L198.502 301.929C199.036 302.382 199.449 302.935 199.742 303.589C200.022 304.229 200.162 304.922 200.162 305.669ZM199.962 300.342L185.562 300.342L185.562 298.142L199.962 298.142L199.962 300.342ZM199.962 295.674L190.362 295.674L190.362 293.474L199.962 293.474L199.962 295.674ZM188.602 294.574C188.602 294.947 188.476 295.261 188.222 295.514C187.969 295.754 187.656 295.874 187.282 295.874C186.909 295.874 186.596 295.754 186.342 295.514C186.089 295.261 185.962 294.947 185.962 294.574C185.962 294.187 186.089 293.874 186.342 293.634C186.596 293.394 186.909 293.274 187.282 293.274C187.656 293.274 187.969 293.394 188.222 293.634C188.476 293.874 188.602 294.187 188.602 294.574ZM200.162 286.547C200.162 287.507 199.949 288.373 199.522 289.147C199.082 289.907 198.482 290.513 197.722 290.967C196.962 291.407 196.109 291.627 195.162 291.627C194.216 291.627 193.369 291.407 192.622 290.967C191.862 290.527 191.262 289.933 190.822 289.187C190.382 288.427 190.162 287.587 190.162 286.667C190.162 285.773 190.369 284.987 190.782 284.307C191.196 283.613 191.762 283.073 192.482 282.687C193.202 282.287 194.022 282.087 194.942 282.087C195.102 282.087 195.269 282.1 195.442 282.127C195.602 282.14 195.782 282.167 195.982 282.207L195.982 290.087L194.182 290.087L194.182 283.347L194.902 284.167C194.316 284.193 193.822 284.307 193.422 284.507C193.022 284.707 192.716 284.993 192.502 285.367C192.289 285.727 192.182 286.173 192.182 286.707C192.182 287.267 192.302 287.753 192.542 288.167C192.782 288.58 193.122 288.9 193.562 289.127C193.989 289.353 194.502 289.467 195.102 289.467C195.702 289.467 196.229 289.347 196.682 289.107C197.136 288.867 197.489 288.527 197.742 288.087C197.982 287.647 198.102 287.14 198.102 286.567C198.102 286.073 198.016 285.62 197.842 285.207C197.669 284.78 197.416 284.42 197.082 284.127L198.502 282.727C199.049 283.193 199.462 283.76 199.742 284.427C200.022 285.093 200.162 285.8 200.162 286.547ZM199.962 273.743L194.422 273.743C193.782 273.743 193.256 273.95 192.842 274.363C192.429 274.763 192.222 275.283 192.222 275.923C192.222 276.35 192.316 276.73 192.502 277.063C192.689 277.396 192.949 277.656 193.282 277.843C193.616 278.03 193.996 278.123 194.422 278.123L193.942 278.983C193.209 278.983 192.562 278.823 192.002 278.503C191.429 278.183 190.982 277.743 190.662 277.183C190.329 276.61 190.162 275.97 190.162 275.263C190.162 274.543 190.349 273.903 190.722 273.343C191.082 272.783 191.556 272.343 192.142 272.023C192.716 271.703 193.316 271.543 193.942 271.543L199.962 271.543L199.962 273.743ZM199.962 280.323L190.362 280.323L190.362 278.123L199.962 278.123L199.962 280.323ZM199.962 267.965L186.362 267.965L186.362 265.765L199.962 265.765L199.962 267.965ZM192.362 270.265L190.362 270.265L190.362 263.465L192.362 263.465L192.362 270.265Z" fill="#E4E4E4"/>
<circle cx="225.962" cy="273" r="18" fill="#F3F1ED"/>
<rect x="254.962" y="257.5" width="292" height="13" fill="#F3F1ED"/>
<rect x="254.962" y="275.5" width="154" height="13" fill="#F3F1ED"/>
<circle cx="225.962" cy="349" r="18" fill="#F3F1ED"/>
<rect x="254.962" y="333.5" width="292" height="13" fill="#F3F1ED"/>
<rect x="254.962" y="351.5" width="154" height="13" fill="#F3F1ED"/>
<circle cx="225.962" cy="425" r="18" fill="#F3F1ED"/>
<rect x="254.962" y="409.5" width="292" height="13" fill="#F3F1ED"/>
<rect x="254.962" y="427.5" width="154" height="13" fill="#F3F1ED"/>
<rect x="208.462" y="183.5" width="74" height="31" rx="15.5" fill="#FCD34D"/>
<rect x="208.462" y="183.5" width="74" height="31" rx="15.5" stroke="#656565"/>
<path d="M228.936 203V201.74H231.144C231.72 201.74 232.224 201.616 232.656 201.368C233.096 201.12 233.436 200.776 233.676 200.336C233.924 199.888 234.048 199.372 234.048 198.788C234.048 198.212 233.924 197.704 233.676 197.264C233.428 196.824 233.084 196.48 232.644 196.232C232.212 195.984 231.712 195.86 231.144 195.86H228.936V194.6H231.18C231.788 194.6 232.352 194.708 232.872 194.924C233.392 195.132 233.844 195.428 234.228 195.812C234.62 196.188 234.924 196.632 235.14 197.144C235.356 197.648 235.464 198.2 235.464 198.8C235.464 199.392 235.356 199.944 235.14 200.456C234.924 200.968 234.624 201.416 234.24 201.8C233.856 202.176 233.404 202.472 232.884 202.688C232.364 202.896 231.804 203 231.204 203H228.936ZM227.988 203V194.6H229.368V203H227.988ZM239.366 203.12C238.79 203.12 238.27 202.992 237.806 202.736C237.35 202.472 236.986 202.112 236.714 201.656C236.45 201.2 236.318 200.688 236.318 200.12C236.318 199.552 236.45 199.044 236.714 198.596C236.978 198.14 237.334 197.78 237.782 197.516C238.238 197.252 238.742 197.12 239.294 197.12C239.83 197.12 240.302 197.244 240.71 197.492C241.126 197.74 241.45 198.08 241.682 198.512C241.922 198.944 242.042 199.436 242.042 199.988C242.042 200.084 242.034 200.184 242.018 200.288C242.01 200.384 241.994 200.492 241.97 200.612H237.242V199.532H241.286L240.794 199.964C240.778 199.612 240.71 199.316 240.59 199.076C240.47 198.836 240.298 198.652 240.074 198.524C239.858 198.396 239.59 198.332 239.27 198.332C238.934 198.332 238.642 198.404 238.394 198.548C238.146 198.692 237.954 198.896 237.818 199.16C237.682 199.416 237.614 199.724 237.614 200.084C237.614 200.444 237.686 200.76 237.83 201.032C237.974 201.304 238.178 201.516 238.442 201.668C238.706 201.812 239.01 201.884 239.354 201.884C239.65 201.884 239.922 201.832 240.17 201.728C240.426 201.624 240.642 201.472 240.818 201.272L241.658 202.124C241.378 202.452 241.038 202.7 240.638 202.868C240.238 203.036 239.814 203.12 239.366 203.12ZM244.985 203.12C244.665 203.12 244.357 203.08 244.061 203C243.765 202.912 243.493 202.792 243.245 202.64C242.997 202.48 242.781 202.288 242.597 202.064L243.437 201.224C243.637 201.456 243.865 201.632 244.121 201.752C244.385 201.864 244.681 201.92 245.009 201.92C245.305 201.92 245.529 201.876 245.681 201.788C245.833 201.7 245.909 201.572 245.909 201.404C245.909 201.228 245.837 201.092 245.693 200.996C245.549 200.9 245.361 200.82 245.129 200.756C244.905 200.684 244.665 200.612 244.409 200.54C244.161 200.468 243.921 200.372 243.689 200.252C243.465 200.124 243.281 199.952 243.137 199.736C242.993 199.52 242.921 199.24 242.921 198.896C242.921 198.528 243.005 198.212 243.173 197.948C243.349 197.684 243.593 197.48 243.905 197.336C244.225 197.192 244.605 197.12 245.045 197.12C245.509 197.12 245.917 197.204 246.269 197.372C246.629 197.532 246.929 197.776 247.169 198.104L246.329 198.944C246.161 198.736 245.969 198.58 245.753 198.476C245.537 198.372 245.289 198.32 245.009 198.32C244.745 198.32 244.541 198.36 244.397 198.44C244.253 198.52 244.181 198.636 244.181 198.788C244.181 198.948 244.253 199.072 244.397 199.16C244.541 199.248 244.725 199.324 244.949 199.388C245.181 199.452 245.421 199.524 245.669 199.604C245.925 199.676 246.165 199.78 246.389 199.916C246.621 200.044 246.809 200.22 246.953 200.444C247.097 200.66 247.169 200.944 247.169 201.296C247.169 201.856 246.973 202.3 246.581 202.628C246.189 202.956 245.657 203.12 244.985 203.12ZM248.269 203V197.24H249.589V203H248.269ZM248.929 196.184C248.705 196.184 248.517 196.108 248.365 195.956C248.221 195.804 248.149 195.616 248.149 195.392C248.149 195.168 248.221 194.98 248.365 194.828C248.517 194.676 248.705 194.6 248.929 194.6C249.161 194.6 249.349 194.676 249.493 194.828C249.637 194.98 249.709 195.168 249.709 195.392C249.709 195.616 249.637 195.804 249.493 195.956C249.349 196.108 249.161 196.184 248.929 196.184ZM253.469 205.52C252.861 205.52 252.329 205.408 251.873 205.184C251.417 204.968 251.049 204.66 250.769 204.26L251.633 203.396C251.865 203.684 252.129 203.9 252.425 204.044C252.721 204.188 253.077 204.26 253.493 204.26C254.013 204.26 254.425 204.124 254.729 203.852C255.033 203.588 255.185 203.224 255.185 202.76V201.344L255.413 200.072L255.185 198.788V197.24H256.505V202.76C256.505 203.312 256.377 203.792 256.121 204.2C255.865 204.616 255.509 204.94 255.053 205.172C254.597 205.404 254.069 205.52 253.469 205.52ZM253.409 202.88C252.897 202.88 252.433 202.756 252.017 202.508C251.609 202.252 251.285 201.904 251.045 201.464C250.813 201.024 250.697 200.532 250.697 199.988C250.697 199.444 250.813 198.956 251.045 198.524C251.285 198.092 251.609 197.752 252.017 197.504C252.433 197.248 252.897 197.12 253.409 197.12C253.865 197.12 254.265 197.212 254.609 197.396C254.953 197.58 255.221 197.836 255.413 198.164C255.605 198.484 255.701 198.86 255.701 199.292V200.708C255.701 201.132 255.601 201.508 255.401 201.836C255.209 202.164 254.941 202.42 254.597 202.604C254.253 202.788 253.857 202.88 253.409 202.88ZM253.673 201.632C253.993 201.632 254.273 201.564 254.513 201.428C254.753 201.292 254.937 201.104 255.065 200.864C255.201 200.616 255.269 200.328 255.269 200C255.269 199.672 255.201 199.388 255.065 199.148C254.937 198.9 254.753 198.708 254.513 198.572C254.273 198.436 253.993 198.368 253.673 198.368C253.353 198.368 253.069 198.436 252.821 198.572C252.581 198.708 252.393 198.9 252.257 199.148C252.121 199.388 252.053 199.672 252.053 200C252.053 200.32 252.121 200.604 252.257 200.852C252.393 201.1 252.581 201.292 252.821 201.428C253.069 201.564 253.353 201.632 253.673 201.632ZM261.92 203V199.676C261.92 199.292 261.796 198.976 261.548 198.728C261.308 198.48 260.996 198.356 260.612 198.356C260.356 198.356 260.128 198.412 259.928 198.524C259.728 198.636 259.572 198.792 259.46 198.992C259.348 199.192 259.292 199.42 259.292 199.676L258.776 199.388C258.776 198.948 258.872 198.56 259.064 198.224C259.256 197.88 259.52 197.612 259.856 197.42C260.2 197.22 260.584 197.12 261.008 197.12C261.44 197.12 261.824 197.232 262.16 197.456C262.496 197.672 262.76 197.956 262.952 198.308C263.144 198.652 263.24 199.012 263.24 199.388V203H261.92ZM257.972 203V197.24H259.292V203H257.972Z" fill="#001C08"/>
<rect x="579.462" y="183.5" width="33" height="31" rx="15.5" fill="#FCD34D"/>
<rect x="579.462" y="183.5" width="33" height="31" rx="15.5" stroke="#656565"/>
<path d="M595.674 203.12C595.114 203.12 594.606 203.02 594.15 202.82C593.702 202.612 593.322 202.312 593.01 201.92L593.946 200.984C594.114 201.24 594.35 201.444 594.654 201.596C594.958 201.748 595.29 201.824 595.65 201.824C595.994 201.824 596.29 201.76 596.538 201.632C596.786 201.504 596.978 201.324 597.114 201.092C597.258 200.86 597.33 200.592 597.33 200.288C597.33 199.968 597.258 199.696 597.114 199.472C596.978 199.248 596.778 199.076 596.514 198.956C596.258 198.828 595.946 198.764 595.578 198.764C595.434 198.764 595.286 198.776 595.134 198.8C594.982 198.816 594.846 198.844 594.726 198.884L595.338 198.092C595.506 198.028 595.682 197.976 595.866 197.936C596.058 197.888 596.242 197.864 596.418 197.864C596.85 197.864 597.238 197.968 597.582 198.176C597.934 198.384 598.21 198.676 598.41 199.052C598.618 199.42 598.722 199.856 598.722 200.36C598.722 200.904 598.594 201.384 598.338 201.8C598.082 202.216 597.726 202.54 597.27 202.772C596.814 203.004 596.282 203.12 595.674 203.12ZM594.726 198.884V198.068L596.97 195.452L598.626 195.416L596.286 198.104L594.726 198.884ZM593.43 195.836V194.6H598.626V195.416L597.438 195.836H593.43Z" fill="#001C08"/>
<path d="M759.962 516.5L721.462 559.5L726.462 502H709.962L715.462 559.5L674.462 514.5L664.462 525.5L712.462 563.5L652.962 559.5V572.5L713.462 568L668.462 605L677.962 613.5L716.962 570.5L713.462 630.5H724.962L721.462 570.5L759.962 617L767.962 608.5L722.962 568L782.462 570.5V561.5L722.962 565.5L767.962 525.5L759.962 516.5Z" fill="#FEBDC5"/>
<rect x="230.462" y="271.5" width="465" height="327" rx="20.5" fill="#24C4E6" stroke="#656565" stroke-width="3"/>
<rect x="252.462" y="249.5" width="465" height="327" rx="20.5" fill="url(#paint2_linear_491_4823)" stroke="#656565" stroke-width="3"/>
<circle cx="305.962" cy="368" r="18" fill="#F3F1ED"/>
<rect x="334.962" y="352.5" width="292" height="13" fill="#F3F1ED"/>
<rect x="334.962" y="370.5" width="154" height="13" fill="#F3F1ED"/>
<circle cx="305.962" cy="444" r="18" fill="#F3F1ED"/>
<rect x="334.962" y="428.5" width="292" height="13" fill="#F3F1ED"/>
<rect x="334.962" y="446.5" width="154" height="13" fill="#F3F1ED"/>
<circle cx="305.962" cy="520" r="18" fill="#F3F1ED"/>
<rect x="334.962" y="504.5" width="292" height="13" fill="#F3F1ED"/>
<rect x="334.962" y="522.5" width="154" height="13" fill="#F3F1ED"/>
<rect x="288.462" y="278.5" width="74" height="31" rx="15.5" fill="#24C4E6"/>
<rect x="288.462" y="278.5" width="74" height="31" rx="15.5" stroke="#656565"/>
<path d="M308.936 298V296.74H311.144C311.72 296.74 312.224 296.616 312.656 296.368C313.096 296.12 313.436 295.776 313.676 295.336C313.924 294.888 314.048 294.372 314.048 293.788C314.048 293.212 313.924 292.704 313.676 292.264C313.428 291.824 313.084 291.48 312.644 291.232C312.212 290.984 311.712 290.86 311.144 290.86H308.936V289.6H311.18C311.788 289.6 312.352 289.708 312.872 289.924C313.392 290.132 313.844 290.428 314.228 290.812C314.62 291.188 314.924 291.632 315.14 292.144C315.356 292.648 315.464 293.2 315.464 293.8C315.464 294.392 315.356 294.944 315.14 295.456C314.924 295.968 314.624 296.416 314.24 296.8C313.856 297.176 313.404 297.472 312.884 297.688C312.364 297.896 311.804 298 311.204 298H308.936ZM307.988 298V289.6H309.368V298H307.988ZM319.366 298.12C318.79 298.12 318.27 297.992 317.806 297.736C317.35 297.472 316.986 297.112 316.714 296.656C316.45 296.2 316.318 295.688 316.318 295.12C316.318 294.552 316.45 294.044 316.714 293.596C316.978 293.14 317.334 292.78 317.782 292.516C318.238 292.252 318.742 292.12 319.294 292.12C319.83 292.12 320.302 292.244 320.71 292.492C321.126 292.74 321.45 293.08 321.682 293.512C321.922 293.944 322.042 294.436 322.042 294.988C322.042 295.084 322.034 295.184 322.018 295.288C322.01 295.384 321.994 295.492 321.97 295.612H317.242V294.532H321.286L320.794 294.964C320.778 294.612 320.71 294.316 320.59 294.076C320.47 293.836 320.298 293.652 320.074 293.524C319.858 293.396 319.59 293.332 319.27 293.332C318.934 293.332 318.642 293.404 318.394 293.548C318.146 293.692 317.954 293.896 317.818 294.16C317.682 294.416 317.614 294.724 317.614 295.084C317.614 295.444 317.686 295.76 317.83 296.032C317.974 296.304 318.178 296.516 318.442 296.668C318.706 296.812 319.01 296.884 319.354 296.884C319.65 296.884 319.922 296.832 320.17 296.728C320.426 296.624 320.642 296.472 320.818 296.272L321.658 297.124C321.378 297.452 321.038 297.7 320.638 297.868C320.238 298.036 319.814 298.12 319.366 298.12ZM324.985 298.12C324.665 298.12 324.357 298.08 324.061 298C323.765 297.912 323.493 297.792 323.245 297.64C322.997 297.48 322.781 297.288 322.597 297.064L323.437 296.224C323.637 296.456 323.865 296.632 324.121 296.752C324.385 296.864 324.681 296.92 325.009 296.92C325.305 296.92 325.529 296.876 325.681 296.788C325.833 296.7 325.909 296.572 325.909 296.404C325.909 296.228 325.837 296.092 325.693 295.996C325.549 295.9 325.361 295.82 325.129 295.756C324.905 295.684 324.665 295.612 324.409 295.54C324.161 295.468 323.921 295.372 323.689 295.252C323.465 295.124 323.281 294.952 323.137 294.736C322.993 294.52 322.921 294.24 322.921 293.896C322.921 293.528 323.005 293.212 323.173 292.948C323.349 292.684 323.593 292.48 323.905 292.336C324.225 292.192 324.605 292.12 325.045 292.12C325.509 292.12 325.917 292.204 326.269 292.372C326.629 292.532 326.929 292.776 327.169 293.104L326.329 293.944C326.161 293.736 325.969 293.58 325.753 293.476C325.537 293.372 325.289 293.32 325.009 293.32C324.745 293.32 324.541 293.36 324.397 293.44C324.253 293.52 324.181 293.636 324.181 293.788C324.181 293.948 324.253 294.072 324.397 294.16C324.541 294.248 324.725 294.324 324.949 294.388C325.181 294.452 325.421 294.524 325.669 294.604C325.925 294.676 326.165 294.78 326.389 294.916C326.621 295.044 326.809 295.22 326.953 295.444C327.097 295.66 327.169 295.944 327.169 296.296C327.169 296.856 326.973 297.3 326.581 297.628C326.189 297.956 325.657 298.12 324.985 298.12ZM328.269 298V292.24H329.589V298H328.269ZM328.929 291.184C328.705 291.184 328.517 291.108 328.365 290.956C328.221 290.804 328.149 290.616 328.149 290.392C328.149 290.168 328.221 289.98 328.365 289.828C328.517 289.676 328.705 289.6 328.929 289.6C329.161 289.6 329.349 289.676 329.493 289.828C329.637 289.98 329.709 290.168 329.709 290.392C329.709 290.616 329.637 290.804 329.493 290.956C329.349 291.108 329.161 291.184 328.929 291.184ZM333.469 300.52C332.861 300.52 332.329 300.408 331.873 300.184C331.417 299.968 331.049 299.66 330.769 299.26L331.633 298.396C331.865 298.684 332.129 298.9 332.425 299.044C332.721 299.188 333.077 299.26 333.493 299.26C334.013 299.26 334.425 299.124 334.729 298.852C335.033 298.588 335.185 298.224 335.185 297.76V296.344L335.413 295.072L335.185 293.788V292.24H336.505V297.76C336.505 298.312 336.377 298.792 336.121 299.2C335.865 299.616 335.509 299.94 335.053 300.172C334.597 300.404 334.069 300.52 333.469 300.52ZM333.409 297.88C332.897 297.88 332.433 297.756 332.017 297.508C331.609 297.252 331.285 296.904 331.045 296.464C330.813 296.024 330.697 295.532 330.697 294.988C330.697 294.444 330.813 293.956 331.045 293.524C331.285 293.092 331.609 292.752 332.017 292.504C332.433 292.248 332.897 292.12 333.409 292.12C333.865 292.12 334.265 292.212 334.609 292.396C334.953 292.58 335.221 292.836 335.413 293.164C335.605 293.484 335.701 293.86 335.701 294.292V295.708C335.701 296.132 335.601 296.508 335.401 296.836C335.209 297.164 334.941 297.42 334.597 297.604C334.253 297.788 333.857 297.88 333.409 297.88ZM333.673 296.632C333.993 296.632 334.273 296.564 334.513 296.428C334.753 296.292 334.937 296.104 335.065 295.864C335.201 295.616 335.269 295.328 335.269 295C335.269 294.672 335.201 294.388 335.065 294.148C334.937 293.9 334.753 293.708 334.513 293.572C334.273 293.436 333.993 293.368 333.673 293.368C333.353 293.368 333.069 293.436 332.821 293.572C332.581 293.708 332.393 293.9 332.257 294.148C332.121 294.388 332.053 294.672 332.053 295C332.053 295.32 332.121 295.604 332.257 295.852C332.393 296.1 332.581 296.292 332.821 296.428C333.069 296.564 333.353 296.632 333.673 296.632ZM341.92 298V294.676C341.92 294.292 341.796 293.976 341.548 293.728C341.308 293.48 340.996 293.356 340.612 293.356C340.356 293.356 340.128 293.412 339.928 293.524C339.728 293.636 339.572 293.792 339.46 293.992C339.348 294.192 339.292 294.42 339.292 294.676L338.776 294.388C338.776 293.948 338.872 293.56 339.064 293.224C339.256 292.88 339.52 292.612 339.856 292.42C340.2 292.22 340.584 292.12 341.008 292.12C341.44 292.12 341.824 292.232 342.16 292.456C342.496 292.672 342.76 292.956 342.952 293.308C343.144 293.652 343.24 294.012 343.24 294.388V298H341.92ZM337.972 298V292.24H339.292V298H337.972Z" fill="#001C08"/>
<rect x="659.462" y="278.5" width="33" height="31" rx="15.5" fill="#24C4E6"/>
<rect x="659.462" y="278.5" width="33" height="31" rx="15.5" stroke="#656565"/>
<path d="M675.674 298.12C675.114 298.12 674.606 298.02 674.15 297.82C673.702 297.612 673.322 297.312 673.01 296.92L673.946 295.984C674.114 296.24 674.35 296.444 674.654 296.596C674.958 296.748 675.29 296.824 675.65 296.824C675.994 296.824 676.29 296.76 676.538 296.632C676.786 296.504 676.978 296.324 677.114 296.092C677.258 295.86 677.33 295.592 677.33 295.288C677.33 294.968 677.258 294.696 677.114 294.472C676.978 294.248 676.778 294.076 676.514 293.956C676.258 293.828 675.946 293.764 675.578 293.764C675.434 293.764 675.286 293.776 675.134 293.8C674.982 293.816 674.846 293.844 674.726 293.884L675.338 293.092C675.506 293.028 675.682 292.976 675.866 292.936C676.058 292.888 676.242 292.864 676.418 292.864C676.85 292.864 677.238 292.968 677.582 293.176C677.934 293.384 678.21 293.676 678.41 294.052C678.618 294.42 678.722 294.856 678.722 295.36C678.722 295.904 678.594 296.384 678.338 296.8C678.082 297.216 677.726 297.54 677.27 297.772C676.814 298.004 676.282 298.12 675.674 298.12ZM674.726 293.884V293.068L676.97 290.452L678.626 290.416L676.286 293.104L674.726 293.884ZM673.43 290.836V289.6H678.626V290.416L677.438 290.836H673.43Z" fill="#001C08"/>
<defs>
<linearGradient id="paint0_linear_491_4823" x1="302.962" y1="54.9998" x2="302.962" y2="385" gradientUnits="userSpaceOnUse">
<stop stop-color="white"/>
<stop offset="1" stop-color="#EEEEEE"/>
</linearGradient>
<linearGradient id="paint1_linear_491_4823" x1="404.962" y1="153" x2="404.962" y2="483" gradientUnits="userSpaceOnUse">
<stop stop-color="white"/>
<stop offset="1" stop-color="#EEEEEE"/>
</linearGradient>
<linearGradient id="paint2_linear_491_4823" x1="484.962" y1="248" x2="484.962" y2="578" gradientUnits="userSpaceOnUse">
<stop stop-color="white"/>
<stop offset="1" stop-color="#EEEEEE"/>
</linearGradient>
</defs>
</svg>
