<svg width="664" height="747" viewBox="0 0 664 747" fill="none" xmlns="http://www.w3.org/2000/svg">
<path d="M427.92 315.496C428.218 315.405 428.438 315.139 428.438 314.811C428.438 298.191 422.266 298.544 418.747 295.878C415.378 293.234 415.096 288.164 413.385 283.902C412.183 280.893 409.619 279.259 408.397 276.811C407.155 274.413 407.155 271.234 405.622 268.499C402.235 262.401 396.558 257.924 391.456 254.352C386.654 250.941 383.548 247.723 380.093 243.634C375.379 238.112 373.869 230.478 368.646 225.315C363.497 220.223 358.388 214.908 353.448 209.769C336.085 191.775 335.763 191.39 333.368 189.268C330.169 186.416 326.527 183.827 322.234 181.353C316.001 177.764 310.666 175.585 290.975 166.741C286.553 164.769 282.288 161.786 277.85 160.068C264.013 153.598 262.21 153.876 257.515 152.129C256.235 151.654 254.775 151.097 253.65 151.072C253.644 151.068 253.25 150.784 253.241 150.777C257.674 143.336 264.836 136.682 267.837 130.045C272.457 119.89 272.918 111.83 273.312 102.297C277.008 99.4855 280.313 95.5186 283.144 88.7449C288.391 76.1868 290.352 62.3708 288.543 50.7965C288.854 50.8312 289.165 50.8692 289.471 50.9014C294.113 18.1763 275.359 -0.743522 254.424 0.563568C242.072 1.34924 233.314 8.88521 229.531 20.2769C225.807 11.4167 216.859 6.20843 207.316 8.34715C184.42 13.4777 172.743 45.6575 171.57 71.2985C170.915 85.8759 169.373 101.981 160.426 114.333C154.034 123.18 137.922 128.581 131.765 134.599C123.721 142.467 118.803 151.435 118.094 162.075C54.0339 167.709 27.0788 202.122 31.7275 258.89C25.7901 261.879 18.5665 262.129 11.2871 259.158C10.9178 259.005 10.4916 259.182 10.3395 259.557C10.1874 259.928 10.3665 260.353 10.7387 260.505C17.6887 263.344 25.1742 263.633 31.8553 260.477C32.1884 263.998 32.6885 267.72 33.3202 271.626C21.8356 273.816 11.241 271.078 0 269.274C12.0544 284.198 25.7121 296.775 40.7755 306.541C45.2687 324.923 49.7766 341.825 54.9376 363.542C45.9605 372.719 42.8497 380.45 40.6484 391.831C36.5498 413.56 42.8015 430.065 53.5319 440.045C48.5471 439.673 43.8288 441.527 41.0719 445.018C36.0495 451.379 38.8796 460.092 48.8378 468.925C57.2159 476.357 68.4299 481.05 80.4125 482.139C82.8569 482.361 85.3347 482.558 87.799 482.764L55.1067 739.808C53.9248 745.882 69.1486 748.905 70.333 742.719L82.4392 663.553H278.791C285.692 667.923 302.051 665.722 310.175 664.558L322.13 742.747C323.313 748.884 338.53 745.871 337.373 739.855L334.484 717.135C343.018 722.416 363.729 724.318 368.569 724.408C371.562 724.464 375.461 724.623 376.938 721.671C378.414 718.719 377.521 715.722 374.656 713.409C366.276 706.643 342.08 699.19 333.255 707.475L329.869 680.849C331.332 674.36 332.89 667.907 334.492 661.514C359.289 658.151 371.86 651.824 371.873 642.709C371.994 642.738 372.116 642.763 372.237 642.793C383.512 550.817 367.262 484.025 337.728 399.251C335.92 394.089 334.3 389.382 332.796 384.949C333.274 384.859 338.867 385.753 342.787 380.939C345.497 381.498 348.3 381.175 351.023 380.582C357.37 379.2 362.146 376.624 365.213 372.926C369.517 367.751 369.303 360.462 366.149 354.46C372.81 341.661 376.997 331.522 381.981 319.059C407.716 324.27 426.864 323.007 428.089 317.314C428.199 316.816 428.131 316.207 427.92 315.496ZM277.278 161.405C281.602 163.083 285.987 166.11 290.379 168.07C310.564 177.127 322.56 181.584 332.401 190.355C337.106 194.526 356.167 215.024 367.622 226.349C372.443 231.116 374.279 239.065 378.984 244.575C382.51 248.749 385.686 252.038 390.616 255.54C395.587 259.021 401.106 263.366 404.35 269.209C405.747 271.697 405.766 274.899 407.099 277.471C408.419 280.114 410.962 281.756 412.035 284.444C413.727 288.67 414.032 294.029 417.858 297.03C421.337 299.664 426.776 299.229 426.975 313.677L421.173 311.039C388.356 296.124 377.992 289.117 352.284 291.38L358.049 225.707C358.087 225.285 357.756 224.916 357.325 224.916H357.251L351.723 218.369H284.604C280.509 204.409 277.104 190.274 274.472 176.25C273.56 171.366 271.096 166.789 267.35 163.01H267.348C267.33 162.988 267.31 162.968 267.289 162.95L267.29 162.949C264.21 159.86 260.876 156.621 256.785 153.412C262.67 155.583 263.271 154.867 277.278 161.405ZM347.712 343.462L350.509 311.609C351.845 311.967 353.202 312.33 354.579 312.688C353.715 319.778 351.396 333.925 348.914 343.551C348.515 343.512 348.115 343.483 347.712 343.462ZM341.263 358.081C338.257 356.539 334.259 357.411 332.554 355.119C331.791 354.096 331.733 352.485 332.408 351.108C332.98 349.939 334.027 348.874 335.609 347.851C338.452 346.015 341.939 344.995 345.731 344.884C345.509 349.793 343.897 354.298 341.263 358.081ZM335.324 373.31H153.667C154.039 371.443 153.71 369.609 152.688 368.209C151.432 366.503 147.822 364.478 146.64 363.938C145.622 363.474 145.598 363.401 144.974 362.609C144.979 362.607 144.984 362.608 144.988 362.605C145.272 362.423 145.394 362.071 145.282 361.753C145.04 361.061 144.914 360.036 145.687 359.087C147.764 356.505 153.129 357.281 155.014 353.649C155.873 352.043 155.643 349.83 154.447 348.15C151.99 344.59 145.709 343.083 140.953 343.283L130.696 226.371C145.521 226.371 268.119 226.371 286.037 226.371H356.53L346.255 343.423C341.978 343.453 338.029 344.556 334.818 346.629C333.01 347.798 331.794 349.054 331.1 350.469C330.178 352.35 330.291 354.517 331.386 355.989C332.812 357.901 335.288 358.213 337.616 358.532C340.71 358.958 340.88 359.829 341.548 359.753L341.55 359.786C341.561 359.946 341.625 360.097 341.73 360.217C343.176 361.855 341.949 364.108 340.318 365.572C337.793 367.863 334.987 369.369 335.324 373.31ZM324.228 701.226C320.361 683.116 316.952 664.677 313.673 644.102C321.816 642.05 330.139 640.678 338.439 640.117C333.266 660.378 327.883 680.695 324.228 701.226ZM99.736 550.444L194.59 601.242L82.9584 660.157L99.736 550.444ZM99.9691 548.919L109.837 484.39C135.519 486.02 162.182 486.85 189.712 486.85C211.452 486.85 233.746 486.318 256.469 485.298C259.5 494.597 262.306 503.719 264.825 512.395C269.971 530.056 269.847 543.83 274.114 559.273L196.142 600.423L99.9691 548.919ZM164.14 218.369C165.757 208.459 163.789 207.486 171.624 193.622C171.696 193.477 180.783 177.694 185.821 163.02C188.018 156.883 184.708 149.982 177.899 147.887C183.854 146.041 190.171 144.269 194.426 143.157C194.969 146.924 198.365 151.302 199.986 152.74C200.342 153.056 200.872 152.948 201.099 152.561C202.532 150.099 204.276 144.476 205.689 140.209C204.725 155.099 204.005 176.44 204.051 189.515C204.053 189.916 204.378 190.24 204.779 190.24H204.781C205.184 190.238 205.507 189.911 205.506 189.509C205.459 176.029 206.227 153.761 207.239 138.867C208.567 143.618 210.547 150.095 211.891 154.502C211.996 154.847 212.343 155.075 212.726 155.005C221.208 153.354 226.418 150.671 233.295 144.402C236.291 146.07 250.281 150.532 251.678 151.47L252.449 152C259.716 157.075 266.461 164.179 266.316 164.032C269.858 167.604 272.183 171.922 273.043 176.517C275.657 190.453 279.031 204.496 283.086 218.369L164.14 218.369ZM231.06 127.813C231.352 132.95 231.836 138.489 232.121 143.493C225.742 149.269 220.817 151.861 213.09 153.448C211.892 149.522 208.487 138.413 207.607 134.536C207.448 133.833 206.502 133.79 206.23 134.407C204.604 138.161 202.225 146.939 200.279 150.991C198.502 149.094 196.095 145.444 195.83 142.666C195.913 142.574 195.979 142.465 196.007 142.34C197.051 137.75 199.689 131.201 200.52 127.157C202.455 127.77 205.082 128.513 208.078 129.123C215.663 130.902 223.866 131.39 231.06 127.813ZM121.807 184.664C125.395 179.703 128.9 177.369 148.49 163.105C154.173 158.941 164.943 151.64 171.471 149.457C178.79 146.957 186.36 153.375 184.84 161.083C184.393 163.361 180.919 171.491 180.002 173.6C171.818 192.428 166.432 197.574 164.314 206.386C163.378 210.312 163.327 214.394 162.666 218.369H137.221L129.999 224.916H129.902C129.698 224.916 129.503 225.001 129.365 225.152C129.227 225.302 129.159 225.504 129.178 225.707L135.059 292.743C127.467 292.686 120.463 293.101 113.002 294.5C95.0164 297.959 86.3111 305.411 54.0413 326.62C51.9576 312.21 57.4556 311.96 60.4687 308.761C63.7959 305.221 63.273 299.856 64.2849 295.435C64.9308 292.612 67.1842 290.608 68.0954 287.798C68.9804 285.017 68.5147 281.883 69.5105 279.186C71.8079 272.95 76.5858 267.793 80.9575 263.57C85.1942 259.47 87.7657 255.836 90.7763 250.944C97.8883 239.32 96.9403 223.118 106.48 213.81C108.149 212.171 110.134 210.777 111.575 208.806C115.056 204.092 115.859 192.913 121.807 184.664ZM143.703 359.998C140.865 356.736 138.209 351.725 136.686 345.347C140.911 344.316 145.577 344.466 149.595 346.259C151.327 347.035 152.523 347.924 153.256 348.986C154.146 350.234 154.336 351.833 153.728 352.971C152.241 355.833 146.934 355.215 144.556 358.172C144.108 358.722 143.823 359.34 143.703 359.998ZM121.062 355.888C109.563 340.181 98.9896 322.215 89.9585 304.964C98.9252 299.644 106.792 296.614 118.373 295.108C122.485 310.133 128.262 330.246 134.416 344.514C128.374 346.442 123.631 350.008 121.062 355.888ZM135.809 344.071C131.248 333.532 127.883 322.35 125.423 314.46C129.326 312.764 133.075 311.061 136.52 309.4L139.502 343.384C138.362 343.501 137.591 343.608 135.809 344.071ZM89.6693 328.285C92.7758 327.322 96.0052 326.23 99.3383 324.997C105.256 335.306 112.955 347.352 120.443 357.506C118.258 363.908 119.199 370.949 123.978 375.372C107.651 371.141 96.7884 367.034 80.605 360.889C78.8861 360.25 76.9905 359.831 75.3681 359.217C73.5793 358.544 71.8084 356.776 69.8897 355.788C69.4004 355.54 69.3914 356.077 67.3338 354.765C65.9366 353.875 65.4124 353.572 62.7007 353.326C62.2275 353.283 61.7431 353.239 61.273 353.166C63.9452 350.804 65.4008 351.029 67.2416 348.163C67.9243 347.099 68.2256 346.637 70.1953 345.272C71.801 344.115 73.2456 343.029 74.8724 342.303C79.0603 340.428 83.2922 338.619 86.21 335.041C87.7995 333.083 88.884 330.682 89.6693 328.285ZM104.006 432.407C136.769 435.36 172.006 435.36 208.726 432.407C209.725 432.407 209.749 433.794 208.843 433.862C173.953 436.647 138.6 436.968 103.876 433.862C102.93 433.794 103.012 432.338 104.006 432.407ZM312.977 397.711C297.482 403.733 281.928 409.337 264.566 415.143C264.522 405.645 265.081 400.46 266.015 394.827C281.477 396.208 297.469 397.463 312.977 397.711ZM281.628 410.839C281.652 411.844 281.673 412.847 281.673 413.872C281.673 435.341 277.179 450.301 273.147 450.301C272.435 450.301 271.773 449.815 271.29 449.29C266.015 443.251 264.747 424.743 264.595 416.669C270.459 414.71 276.112 412.775 281.628 410.839ZM274.511 560.708C277.902 572.307 281.789 576.015 282.488 584.846C283.453 596.822 276.673 605.717 276.144 620.883C275.908 627.624 277.151 627.671 275.975 643.176L197.69 601.252L274.511 560.708ZM278.17 384.949C279.138 387.992 279.834 391.501 280.301 394.574C275.595 394.206 270.912 393.804 266.257 393.388C267.013 389.002 267.28 387.465 268.067 384.949L278.17 384.949ZM148.953 382.976C149.643 383.12 150.318 383.269 150.966 383.433C150.276 383.355 149.602 383.2 148.953 382.976ZM139.518 379.525C138.076 379.44 138.088 379.517 130.863 377.828C124.148 375.322 120.852 370.582 120.777 364.233C120.673 355.803 125.872 348.55 135.257 345.732C136.609 351.361 140.008 358.31 142.074 361.055C143.783 363.386 143.972 364.319 146.036 365.262C147.042 365.721 150.423 367.587 151.515 369.07C153.388 371.634 151.981 375.621 149.408 377.479C146.673 379.454 142.975 379.739 139.518 379.525ZM281.802 88.1855C276.189 101.604 264.702 109.641 248.545 106.331C235.408 103.649 230.008 94.9145 224.036 81.2596C220.736 95.0427 224.67 109.395 231.756 118.337C231.452 121.023 231.149 123.909 230.915 126.249C224.458 129.7 215.9 129.191 208.776 127.778C206.221 127.193 203.476 126.432 200.421 125.509C204.595 98.1895 207.662 90.2532 209.018 69.2036C209.403 63.3153 208.042 64.5026 204.885 63.355C202.165 62.351 199.881 61.3328 197.887 59.2815C193.192 54.4469 191.794 46.4168 199.391 42.6488C206.163 39.2656 211.12 44.5423 214.081 51.4688C215.855 55.6153 215.52 60.809 220.132 63.2241C223.711 56.4299 227.363 49.5919 230.899 42.7542C249.633 46.1995 268.142 48.5669 287.038 50.6278C289.082 62.8296 286.584 76.7333 281.802 88.1855ZM118.035 163.539C117.819 170.74 119.401 176.321 121.008 183.334C114.578 191.866 113.682 203.504 110.403 207.945C108.059 211.153 105.379 211.763 101.897 217.195C96.5228 218.274 88.7394 218.608 80.5193 220.775C74.9964 220.595 69.8875 219.376 64.2894 220.063C59.608 220.625 53.6992 221.931 49.525 227.061C44.303 233.475 45.615 241.428 42.0091 248.458C39.8232 252.708 36.7537 255.967 33.1265 258.138C28.7856 201.553 56.4532 169.024 118.035 163.539ZM43.3018 249.123C47.0301 241.863 45.7187 234.043 50.6527 227.979C53.6945 224.241 57.8247 222.306 64.4639 221.506C68.5282 221.01 72.3342 221.557 76.5977 221.962C69.3982 224.485 63.1575 228.712 59.7347 236.511C57.6982 241.123 59.2844 245.764 57.8729 250.565C54.5405 261.852 46.0048 268.786 34.7452 271.327C34.0889 267.258 33.5831 263.4 33.2548 259.758C37.3722 257.458 40.8567 253.875 43.3018 249.123ZM42.5558 307.691C46.119 309.932 49.7618 312.012 53.4778 313.934C53.4728 313.944 53.4665 313.951 53.4615 313.961C51.5492 317.995 52.0009 323.08 52.7753 327.974C52.8265 328.294 53.083 328.526 53.3947 328.57C53.2988 329.307 53.3314 329.918 53.5085 330.393C55.2567 334.948 69.0174 334.457 87.9376 328.816C85.4106 335.569 82.0349 337.503 74.8596 340.714C74.1939 341.082 73.7016 340.951 69.9764 343.638C68.7536 344.509 67.5735 345.267 66.6973 346.384C66.1852 347.044 65.775 347.835 65.295 348.407C64.0781 349.812 62.5209 349.986 59.8776 352.471C59.6831 352.653 59.6035 352.927 59.6716 353.185C60.1034 354.334 59.3108 354.48 62.57 354.775C63.1121 354.824 63.6179 354.884 64.0952 354.966C61.8506 356.743 59.6177 358.619 57.5527 360.552C57.655 360.595 57.7566 360.654 57.8582 360.697C57.7424 360.814 57.6109 360.915 57.4944 361.032C57.4835 361.054 57.5941 360.924 56.1469 362.335C53.213 350.02 50.2685 338.375 47.5543 327.643C45.788 320.66 44.1116 314.023 42.5558 307.691ZM49.8031 467.837C45.4001 463.933 35.8485 453.981 42.2134 445.919C44.7977 442.649 49.3626 440.971 54.1093 441.535C54.5355 441.586 54.9617 441.632 55.388 441.682C62.5506 447.586 71.7493 451.145 81.7614 451.145H244.569C248.948 462.942 252.772 474.024 256 483.873C193.567 486.659 134.556 485.598 80.5426 480.691C68.8681 479.63 57.9512 475.065 49.8031 467.837ZM68.8995 742.471C68.1087 746.609 55.7169 744.33 56.5431 740.039L89.2495 482.888C95.5647 483.408 101.935 483.884 108.379 484.302L68.8995 742.471ZM82.6849 661.947L196.138 602.07L275.855 644.761C275.461 649.801 275.031 654.907 275.023 659.654C275.229 659.537 275.439 659.423 275.645 659.307C275.885 660.355 276.377 661.284 277.095 662.098H82.6615L82.6849 661.947ZM276.976 658.563C287.78 652.59 299.789 647.734 312.258 644.464C313.235 650.595 314.225 656.535 315.234 662.335C305.351 663.941 278.393 668.308 276.976 658.563ZM331.978 708.964C330.212 711.463 330.338 713.762 332.867 715.954L335.937 740.084C336.748 744.307 324.357 746.601 323.563 742.5L311.614 664.348C313.608 664.056 315.149 663.818 315.486 663.768C318.014 678.185 320.672 691.75 323.598 705.198C323.67 705.533 323.967 705.771 324.308 705.771C324.314 705.771 324.319 705.771 324.325 705.771C325.487 705.742 324.442 705.735 328.937 685.058L331.978 708.964ZM370.433 642.517C370.608 650.708 358.304 656.737 334.877 659.987C336.196 654.747 336.579 653.289 339.962 640.029C350.31 639.454 360.595 640.154 370.423 642.376C370.425 642.424 370.432 642.469 370.433 642.517ZM351.171 548.329C351.549 548.198 351.956 548.402 352.087 548.78C359.317 570.065 361.748 590.04 359.492 609.84C359.379 610.79 357.947 610.642 358.052 609.666C360.278 590.083 357.878 570.327 350.705 549.245C350.574 548.868 350.792 548.46 351.171 548.329ZM338.863 566.762C341.831 575.506 342.835 583.711 341.903 591.858C341.859 592.222 341.554 592.499 341.19 592.499H341.103C340.696 592.44 340.419 592.091 340.463 591.684C341.365 583.77 340.39 575.768 337.48 567.228C337.201 566.322 338.548 565.857 338.863 566.762ZM334.381 383.494C204.438 383.494 151.813 383.528 150.974 383.434L148.042 382.609C147.039 382.14 146.125 381.486 145.332 380.682C149.818 379.818 152.35 377.353 153.245 374.765H335.606C336.356 377.239 338.266 379.456 341.253 380.508C339.491 382.393 336.994 383.494 334.381 383.494ZM350.713 379.161C346.354 380.107 343.147 379.954 340.62 378.669C337.799 377.249 335.777 373.528 337.241 370.681C338.076 369.05 339.808 367.999 341.293 366.651C343.475 364.696 344.785 361.729 342.985 359.449L342.9 358.247C345.443 354.365 346.989 349.804 347.203 344.881C357.892 345.239 365.531 351.931 366.858 361.161C368.312 371.248 360.669 376.991 350.713 379.161ZM365.287 352.957C361.872 347.595 356.548 344.695 350.368 343.729C354.201 328.792 356.821 307.874 358.544 292.468C370.229 292.171 378.57 293.991 388.143 297.821C381.805 316.468 374.285 335.52 365.287 352.957Z" fill="#171717"/>
<path d="M273.48 71.3326C273.084 71.3966 272.814 71.7703 272.879 72.1667C273.476 75.8436 273.867 79.4949 274.039 83.0198C274.143 85.2331 273.292 85.4304 271.851 85.2702C269.751 85.0973 267.726 84.6253 265.614 84.3269C265.23 84.2757 264.849 84.5485 264.793 84.9463C264.737 85.344 265.014 85.712 265.412 85.7675C268.548 86.2098 266.452 86.0519 272.054 86.7534C274.519 87.0486 275.606 85.3423 275.491 82.9487C275.317 79.3699 274.921 75.6631 274.314 71.9336C274.252 71.5358 273.866 71.2574 273.48 71.3326Z" fill="#171717"/>
<path d="M259.294 60.4321C261.48 60.3094 264.061 61.6182 265.044 61.1582C265.411 60.987 265.68 60.5247 265.705 60.1316C265.73 59.7392 265.563 59.4656 265.325 59.2539C264.528 58.5469 262.594 57.6393 260.514 57.3664C259.193 57.1921 256.98 57.4375 254.97 58.3232C254.363 58.5906 254.242 58.532 253.852 58.9811C253.461 59.4307 253.398 60.2695 253.789 60.7044C254.862 61.8942 257.618 60.5263 259.294 60.4321Z" fill="#171717"/>
<path d="M282.575 57.1235C281.745 57.0115 280.403 57.0958 279.647 57.2865C278.891 57.4772 278.315 57.7256 277.791 57.9837C277.267 58.2419 277.127 58.2419 276.779 58.6227C276.431 59.0028 276.259 59.7417 276.59 60.1244C277.382 61.0413 279.702 59.8397 281.312 59.7835C283.277 59.7151 285.22 61.0368 286.1 60.6765C286.665 60.4443 287.001 59.5613 286.476 59.0082C285.529 58.0157 283.762 57.2849 282.575 57.1235Z" fill="#171717"/>
<path d="M263.973 68.1785C264.737 68.1785 264.982 67.1414 264.297 66.8003C261.413 65.3638 257.699 65.2872 253.837 66.5828C253.456 66.7106 253.252 67.1228 253.38 67.5034C253.505 67.8842 253.92 68.0973 254.3 67.9609C260.406 65.9076 263.422 68.1785 263.973 68.1785Z" fill="#171717"/>
<path d="M284.095 65.5775C281.856 64.3016 279.128 64.7379 277.27 65.1797C276.879 65.2721 276.637 65.6642 276.73 66.0549C276.822 66.4469 277.223 66.6942 277.605 66.5948C279.224 66.2126 281.582 65.8206 283.373 66.8421C283.729 67.042 284.168 66.9153 284.366 66.5707C284.565 66.221 284.443 65.7764 284.095 65.5775Z" fill="#171717"/>
<path d="M257.779 71.5128C258.506 72.7569 260.493 72.6075 261.391 71.5267C262.289 70.4459 262.33 68.4046 260.986 67.7245C258.712 66.5728 256.557 69.4221 257.779 71.5128Z" fill="#171717"/>
<path d="M281.59 66.5748C279.404 65.5162 277.252 68.4086 278.451 70.397C279.19 71.6217 281.16 71.452 282.033 70.3642C282.907 69.2756 282.947 67.2311 281.59 66.5748Z" fill="#171717"/>
<path d="M264.576 89.7921C263.281 89.9639 262.045 89.8124 260.967 89.3503C259.887 88.8881 259.346 88.3402 258.718 87.4767C258.441 87.0966 258.424 86.4975 257.917 86.3841C257.41 86.2708 257.066 86.5629 256.732 86.9353C256.397 87.3083 255.998 87.7099 255.874 88.2715C255.631 89.3719 255.4 90.447 256.225 91.4959C259.298 95.403 264.258 95.6402 267.388 91.6447C267.752 91.1805 267.788 90.6445 267.751 90.2041C267.617 88.6183 265.218 89.7068 264.576 89.7921Z" fill="#171717"/>
<path d="M246.017 287.162C231.938 287.162 220.536 294.766 220.536 304.156C220.536 313.539 231.938 321.143 246.017 321.143C260.086 321.143 271.487 313.539 271.487 304.156C271.487 294.766 260.086 287.162 246.017 287.162Z" fill="#1797B9"/>
<path d="M658.479 446.053H628.508V441.758C671.539 438.91 671.463 386.443 628.508 383.547V372.583C628.508 372.181 628.182 371.856 627.78 371.856H565.222C564.82 371.856 564.494 372.181 564.494 372.583V446.053H525.942V407.5H522.754L526.762 373.974C527.383 368.78 521.371 365.385 517.243 368.628C516.003 369.604 515.216 371.003 515.03 372.571L510.854 407.5H503.705L489.562 370.816C488.434 367.898 484.353 367.841 483.107 370.657C482.727 371.509 482.705 372.46 483.04 373.329L496.214 407.5H494.629L482.702 376.563C481.936 374.57 479.118 374.495 478.249 376.454C477.988 377.042 477.972 377.697 478.204 378.296L489.462 407.5H479.387V446.053H432.802C429.951 446.053 427.58 448.469 427.852 451.508C430.333 474.859 449.373 490.726 470.472 491.851C473.433 492.012 476.384 492.155 479.355 492.291L443.04 717.748C442.976 718.144 443.245 718.518 443.643 718.58C443.681 718.588 443.721 718.59 443.759 718.59C444.11 718.59 444.418 718.336 444.475 717.978L460.038 621.361H632.334L647.897 717.978C647.954 718.336 648.262 718.59 648.613 718.59C648.651 718.59 648.691 718.588 648.73 718.58C649.127 718.518 649.396 718.144 649.332 717.748L612.974 492.031C616.766 491.865 620.568 491.691 624.385 491.488C646.086 490.364 663.233 472.786 663.425 451.467V450.942C663.424 448.292 661.159 446.053 658.479 446.053ZM516.473 372.744C516.615 371.562 517.208 370.506 518.142 369.772C519.077 369.036 520.24 368.703 521.423 368.849C523.862 369.142 525.61 371.363 525.319 373.801L521.29 407.5H512.319L516.473 372.744ZM484.398 372.806C484.202 372.298 484.215 371.744 484.436 371.246C485.163 369.606 487.546 369.635 488.204 371.339L502.145 407.5H497.772L484.398 372.806ZM479.579 377.042C479.928 376.257 481.044 376.305 481.344 377.086L493.07 407.5H491.022C479.069 376.212 479.276 377.727 479.579 377.042ZM628.508 392.516C659.799 395.016 659.461 430.286 628.508 432.804V392.516ZM628.508 440.319V434.278C661.685 431.681 661.392 393.581 628.508 391.036V384.981C669.565 387.817 669.584 437.526 628.508 440.319ZM565.949 373.311H627.053V384.208C627.053 391.43 627.053 438.491 627.053 446.053H565.949V373.311ZM460.272 619.906L480.816 492.357C524.541 494.332 568.652 494.008 611.512 492.095L632.099 619.906H460.272V619.906ZM661.969 451.459C661.785 472.006 645.243 488.95 624.31 490.036C574.618 492.679 520.593 493.108 470.55 490.399C450.501 489.33 431.79 474.428 429.293 451.3C429.108 449.223 430.8 447.508 432.802 447.508C441.196 447.508 635.239 447.508 658.479 447.508C660.371 447.508 661.969 449.081 661.969 450.942V451.459Z" fill="#171717"/>
<path d="M580.835 395.428C584.205 395.428 586.927 392.706 586.927 389.352C586.927 385.982 584.205 383.26 580.835 383.26C577.466 383.26 574.744 385.983 574.744 389.352C574.744 392.706 577.466 395.428 580.835 395.428Z" fill="#1797B9"/>
<path d="M617.901 404.916C614.532 404.916 611.809 407.639 611.809 411.008C611.809 414.362 614.532 417.084 617.901 417.084C621.27 417.084 623.992 414.362 623.992 411.008C623.992 407.639 621.27 404.916 617.901 404.916Z" fill="#1797B9"/>
<path d="M581.618 424.934C578.233 424.934 575.498 427.669 575.498 431.055C575.498 434.425 578.232 437.16 581.618 437.16C585.004 437.16 587.739 434.425 587.739 431.055C587.739 427.669 585.004 424.934 581.618 424.934Z" fill="#1797B9"/>
</svg>
