<svg width="938" height="938" viewBox="0 0 938 938" fill="none" xmlns="http://www.w3.org/2000/svg">
<path d="M0.982292 0.243408H0.0479126V937.803H0.982292V0.243408Z" fill="#737373" fill-opacity="0.27"/>
<path d="M188.305 0.243408H187.371V937.803H188.305V0.243408Z" fill="#737373" fill-opacity="0.27"/>
<path d="M375.635 0.243408H374.701V937.803H375.635V0.243408Z" fill="#737373" fill-opacity="0.27"/>
<path d="M562.958 0.243408H562.024V937.803H562.958V0.243408Z" fill="#737373" fill-opacity="0.27"/>
<path d="M750.281 0.243408H749.347V937.803H750.281V0.243408Z" fill="#737373" fill-opacity="0.27"/>
<path d="M937.608 0.243408H936.673V937.803H937.608V0.243408Z" fill="#737373" fill-opacity="0.27"/>
<path d="M937.607 0.243408H0.0479126V1.17779H937.607V0.243408Z" fill="#737373" fill-opacity="0.27"/>
<path d="M937.607 187.568H0.0479126V188.502H937.607V187.568Z" fill="#737373" fill-opacity="0.27"/>
<path d="M937.607 374.894H0.0479126V375.828H937.607V374.894Z" fill="#737373" fill-opacity="0.27"/>
<path d="M937.607 562.219H0.0479126V563.153H937.607V562.219Z" fill="#737373" fill-opacity="0.27"/>
<path d="M937.607 749.542H0.0479126V750.477H937.607V749.542Z" fill="#737373" fill-opacity="0.27"/>
<path d="M937.607 936.868H0.0479126V937.803H937.607V936.868Z" fill="#737373" fill-opacity="0.27"/>
</svg>
