<svg width="24" height="21" viewBox="0 0 24 21" fill="none" xmlns="http://www.w3.org/2000/svg">
<path d="M10.7848 20.6469L12.8422 13.7931C12.8676 13.7113 12.9134 13.6373 12.9752 13.578C13.0369 13.5187 13.1128 13.476 13.1955 13.4539L20.1274 11.677C20.2325 11.6492 20.3257 11.588 20.3929 11.5026C20.4601 11.4172 20.4977 11.3121 20.4999 11.2035C20.5021 11.0948 20.4689 10.9883 20.4052 10.9002C20.3415 10.8121 20.2508 10.7472 20.1469 10.7152L13.2931 8.65777C13.2113 8.63236 13.1373 8.58662 13.078 8.52484C13.0187 8.46306 12.976 8.38724 12.9539 8.30448L11.177 1.37265C11.1492 1.26753 11.088 1.17431 11.0026 1.10709C10.9172 1.03987 10.8121 1.00231 10.7035 1.0001C10.5948 0.997892 10.4883 1.03115 10.4002 1.09484C10.3121 1.15852 10.2472 1.24918 10.2152 1.35308L8.15777 8.2069C8.13236 8.28869 8.08662 8.36271 8.02484 8.42203C7.96305 8.48135 7.88724 8.52403 7.80448 8.5461L0.872648 10.323C0.767532 10.3508 0.674311 10.412 0.607092 10.4974C0.539872 10.5828 0.502315 10.6879 0.500104 10.7965C0.497892 10.9052 0.531147 11.0117 0.594836 11.0998C0.658524 11.1879 0.749178 11.2528 0.853079 11.2848L7.7069 13.3422C7.78869 13.3676 7.86271 13.4134 7.92203 13.4752C7.98134 13.5369 8.02403 13.6128 8.0461 13.6955L9.82303 20.6274C9.85075 20.7325 9.91197 20.8257 9.99741 20.8929C10.0828 20.9601 10.1879 20.9977 10.2965 20.9999C10.4052 21.0021 10.5117 20.9689 10.5998 20.9052C10.6879 20.8415 10.7528 20.7508 10.7848 20.6469Z" fill="white"/>
<circle cx="21" cy="2.521" r="2.5" fill="white"/>
</svg>
