<svg width="29" height="29" viewBox="0 0 29 29" fill="none" xmlns="http://www.w3.org/2000/svg">
<path d="M2.20964 28.0814L14.0353 21.4026C14.1776 21.324 14.3375 21.2828 14.5 21.2828C14.6626 21.2828 14.8225 21.324 14.9648 21.4026L26.7904 28.0814C26.9707 28.1816 27.1788 28.2203 27.3832 28.1917C27.5875 28.1631 27.7769 28.0687 27.9228 27.9228C28.0687 27.7769 28.1631 27.5875 28.1917 27.3832C28.2203 27.1788 28.1816 26.9707 28.0814 26.7904L21.4026 14.9648C21.324 14.8225 21.2828 14.6626 21.2828 14.5C21.2828 14.3375 21.324 14.1776 21.4026 14.0353L28.0814 2.20964C28.1816 2.02929 28.2203 1.8212 28.1917 1.61687C28.1631 1.41255 28.0687 1.2231 27.9228 1.07721C27.7769 0.931315 27.5875 0.836921 27.3832 0.80831C27.1788 0.779698 26.9707 0.818427 26.7904 0.918636L14.9648 7.59744C14.8225 7.67601 14.6626 7.71722 14.5 7.71722C14.3375 7.71722 14.1776 7.67601 14.0353 7.59744L2.20964 0.918634C2.02929 0.818425 1.8212 0.779696 1.61687 0.808308C1.41254 0.836919 1.2231 0.931315 1.07721 1.07721C0.931315 1.2231 0.836919 1.41254 0.808308 1.61687C0.779696 1.8212 0.818425 2.02929 0.918634 2.20964L7.59744 14.0353C7.67601 14.1776 7.71721 14.3375 7.71721 14.5C7.71721 14.6626 7.67601 14.8225 7.59744 14.9648L0.918634 26.7904C0.818425 26.9707 0.779696 27.1788 0.808308 27.3832C0.836919 27.5875 0.931315 27.7769 1.07721 27.9228C1.2231 28.0687 1.41254 28.1631 1.61687 28.1917C1.8212 28.2203 2.02929 28.1816 2.20964 28.0814Z" fill="#808198"/>
</svg>
