<svg width="48" height="48" viewBox="0 0 48 48" fill="none" xmlns="http://www.w3.org/2000/svg">
<circle cx="24" cy="24" r="24" fill="#F8A14C"/>
<path d="M31 16.0002H26.82C26.6152 15.4156 26.2339 14.9092 25.7287 14.5508C25.2235 14.1925 24.6194 14 24 14C23.3806 14 22.7765 14.1925 22.2713 14.5508C21.7661 14.9092 21.3848 15.4156 21.18 16.0002H17C16.4701 16.0018 15.9623 16.213 15.5875 16.5877C15.2128 16.9625 15.0016 17.4703 15 18.0002V32.0002C15.0016 32.5301 15.2128 33.0379 15.5875 33.4127C15.9623 33.7874 16.4701 33.9986 17 34.0002H31C31.5299 33.9986 32.0377 33.7874 32.4125 33.4127C32.7872 33.0379 32.9984 32.5301 33 32.0002V18.0002C32.9984 17.4703 32.7872 16.9625 32.4125 16.5877C32.0377 16.213 31.5299 16.0018 31 16.0002ZM24 16.0002C24.1978 16.0002 24.3911 16.0589 24.5556 16.1687C24.72 16.2786 24.8482 16.4348 24.9239 16.6175C24.9996 16.8002 25.0194 17.0013 24.9808 17.1953C24.9422 17.3893 24.847 17.5675 24.7071 17.7073C24.5673 17.8472 24.3891 17.9424 24.1951 17.981C24.0011 18.0196 23.8 17.9998 23.6173 17.9241C23.4346 17.8484 23.2784 17.7202 23.1685 17.5558C23.0586 17.3913 23 17.198 23 17.0002C23.0008 16.7352 23.1064 16.4813 23.2938 16.294C23.4811 16.1066 23.735 16.001 24 16.0002ZM22 21.0002L24.79 23.7942L27.31 21.2742L26 20.0002H30V24.0002L28.724 22.6892L24.792 26.6242L22 23.8302L19.414 26.4142L18 25.0002L22 21.0002ZM31 31.0002H17V29.0002H31V31.0002Z" fill="white"/>
</svg>
