<svg width="48" height="48" viewBox="0 0 48 48" fill="none" xmlns="http://www.w3.org/2000/svg">
<circle cx="24" cy="24" r="24" fill="#F8A14C"/>
<path d="M16 33C16 33.1768 16.0702 33.3464 16.1953 33.4714C16.3203 33.5964 16.4899 33.6667 16.6667 33.6667H31.3333C31.5101 33.6667 31.6797 33.5964 31.8047 33.4714C31.9298 33.3464 32 33.1768 32 33C32 32.8232 31.9298 32.6536 31.8047 32.5286C31.6797 32.4036 31.5101 32.3333 31.3333 32.3333H30V31C30.0003 29.868 29.6803 28.7589 29.077 27.801C28.4737 26.8431 27.6117 26.0755 26.5907 25.5867C26.204 25.4013 26 25.084 26 24.8V23.8667C26 23.5827 26.2053 23.2653 26.5907 23.08C27.6117 22.5912 28.4737 21.8235 29.077 20.8656C29.6803 19.9077 30.0003 18.7987 30 17.6667V16.3333H31.3333C31.5101 16.3333 31.6797 16.2631 31.8047 16.1381C31.9298 16.013 32 15.8435 32 15.6667C32 15.4899 31.9298 15.3203 31.8047 15.1953C31.6797 15.0702 31.5101 15 31.3333 15H16.6667C16.4899 15 16.3203 15.0702 16.1953 15.1953C16.0702 15.3203 16 15.4899 16 15.6667C16 15.8435 16.0702 16.013 16.1953 16.1381C16.3203 16.2631 16.4899 16.3333 16.6667 16.3333H18V17.6667C17.9997 18.7987 18.3197 19.9077 18.923 20.8656C19.5263 21.8235 20.3883 22.5912 21.4093 23.08C21.796 23.2653 22 23.5827 22 23.8667V24.8C22 25.084 21.7947 25.4013 21.4093 25.5867C20.3883 26.0755 19.5263 26.8431 18.923 27.801C18.3197 28.7589 17.9997 29.868 18 31V32.3333H16.6667C16.4899 32.3333 16.3203 32.4036 16.1953 32.5286C16.0702 32.6536 16 32.8232 16 33ZM19.3333 32.3333V31C19.3331 30.1194 19.582 29.2568 20.0513 28.5117C20.5205 27.7666 21.1911 27.1695 21.9853 26.7893C22.696 26.448 23.3333 25.736 23.3333 24.8013V23.8653C23.3333 23.8653 23.5733 24 24 24C24.4267 24 24.6667 23.8667 24.6667 23.8667V24.8C24.6667 25.7347 25.304 26.448 26.0147 26.7893C26.8089 27.1695 27.4795 27.7666 27.9487 28.5117C28.418 29.2568 28.6669 30.1194 28.6667 31V32.3333H19.3333Z" fill="white"/>
</svg>
