<svg width="48" height="48" viewBox="0 0 48 48" fill="none" xmlns="http://www.w3.org/2000/svg">
<circle cx="24" cy="24" r="24" fill="#F8A14C"/>
<path d="M18 25.8C18.5 25.8 18.9252 25.6252 19.2756 25.2756C19.626 24.926 19.8008 24.5008 19.8 24C19.7992 23.4992 19.6244 23.0744 19.2756 22.7256C18.9268 22.3768 18.5016 22.2016 18 22.2C17.4984 22.1984 17.0736 22.3736 16.7256 22.7256C16.3776 23.0776 16.2024 23.5024 16.2 24C16.1976 24.4976 16.3728 24.9228 16.7256 25.2756C17.0784 25.6284 17.5032 25.8032 18 25.8ZM24 25.8C24.5 25.8 24.9252 25.6252 25.2756 25.2756C25.626 24.926 25.8008 24.5008 25.8 24C25.7992 23.4992 25.6244 23.0744 25.2756 22.7256C24.9268 22.3768 24.5016 22.2016 24 22.2C23.4984 22.1984 23.0736 22.3736 22.7256 22.7256C22.3776 23.0776 22.2024 23.5024 22.2 24C22.1976 24.4976 22.3728 24.9228 22.7256 25.2756C23.0784 25.6284 23.5032 25.8032 24 25.8ZM30 25.8C30.5 25.8 30.9252 25.6252 31.2756 25.2756C31.626 24.926 31.8008 24.5008 31.8 24C31.7992 23.4992 31.6244 23.0744 31.2756 22.7256C30.9268 22.3768 30.5016 22.2016 30 22.2C29.4984 22.1984 29.0736 22.3736 28.7256 22.7256C28.3776 23.0776 28.2024 23.5024 28.2 24C28.1976 24.4976 28.3728 24.9228 28.7256 25.2756C29.0784 25.6284 29.5032 25.8032 30 25.8ZM24 36C22.34 36 20.78 35.6848 19.32 35.0544C17.86 34.424 16.59 33.5692 15.51 32.49C14.43 31.4108 13.5752 30.1408 12.9456 28.68C12.316 27.2192 12.0008 25.6592 12 24C11.9992 22.3408 12.3144 20.7808 12.9456 19.32C13.5768 17.8592 14.4316 16.5892 15.51 15.51C16.5884 14.4308 17.8584 13.576 19.32 12.9456C20.7816 12.3152 22.3416 12 24 12C25.6584 12 27.2184 12.3152 28.68 12.9456C30.1416 13.576 31.4116 14.4308 32.49 15.51C33.5684 16.5892 34.4236 17.8592 35.0556 19.32C35.6876 20.7808 36.0024 22.3408 36 24C35.9976 25.6592 35.6824 27.2192 35.0544 28.68C34.4264 30.1408 33.5716 31.4108 32.49 32.49C31.4084 33.5692 30.1384 34.4244 28.68 35.0556C27.2216 35.6868 25.6616 36.0016 24 36Z" fill="white"/>
</svg>
