<svg width="21" height="18" viewBox="0 0 21 18" fill="none" xmlns="http://www.w3.org/2000/svg">
<path d="M6 3.59998C5.80109 3.59998 5.61032 3.67109 5.46967 3.79768C5.32902 3.92427 5.25 4.09595 5.25 4.27498V11.025C5.25 11.204 5.32902 11.3757 5.46967 11.5023C5.61032 11.6289 5.80109 11.7 6 11.7C6.19891 11.7 6.38968 11.6289 6.53033 11.5023C6.67098 11.3757 6.75 11.204 6.75 11.025V4.27498C6.75 4.09595 6.67098 3.92427 6.53033 3.79768C6.38968 3.67109 6.19891 3.59998 6 3.59998ZM10.75 3.59998C10.5511 3.59998 10.3603 3.67109 10.2197 3.79768C10.079 3.92427 10 4.09595 10 4.27498V8.32498C10 8.504 10.079 8.67568 10.2197 8.80227C10.3603 8.92886 10.5511 8.99998 10.75 8.99998C10.9489 8.99998 11.1397 8.92886 11.2803 8.80227C11.421 8.67568 11.5 8.504 11.5 8.32498V4.27498C11.5 4.09595 11.421 3.92427 11.2803 3.79768C11.1397 3.67109 10.9489 3.59998 10.75 3.59998ZM14.75 4.27498C14.75 4.09595 14.829 3.92427 14.9697 3.79768C15.1103 3.67109 15.3011 3.59998 15.5 3.59998C15.6989 3.59998 15.8897 3.67109 16.0303 3.79768C16.171 3.92427 16.25 4.09595 16.25 4.27498V12.825C16.25 13.004 16.171 13.1757 16.0303 13.3023C15.8897 13.4289 15.6989 13.5 15.5 13.5C15.3011 13.5 15.1103 13.4289 14.9697 13.3023C14.829 13.1757 14.75 13.004 14.75 12.825V4.27498Z" fill="#6F6E78"/>
<path d="M2.5 0H19C19.966 0 20.75 0.7056 20.75 1.575V16.425C20.75 16.8427 20.5656 17.2433 20.2374 17.5387C19.9092 17.8341 19.4641 18 19 18H2.5C2.03587 18 1.59075 17.8341 1.26256 17.5387C0.934375 17.2433 0.75 16.8427 0.75 16.425V1.575C0.75 0.7056 1.534 0 2.5 0ZM2.25 1.575V16.425C2.25 16.5492 2.362 16.65 2.5 16.65H19C19.0663 16.65 19.1299 16.6263 19.1768 16.5841C19.2237 16.5419 19.25 16.4847 19.25 16.425V1.575C19.25 1.51533 19.2237 1.4581 19.1768 1.4159C19.1299 1.37371 19.0663 1.35 19 1.35H2.5C2.4337 1.35 2.37011 1.37371 2.32322 1.4159C2.27634 1.4581 2.25 1.51533 2.25 1.575Z" fill="#6F6E78"/>
</svg>
