<svg width="21" height="21" viewBox="0 0 21 21" fill="none" xmlns="http://www.w3.org/2000/svg">
<path d="M15.5167 11.6815C15.7696 11.6815 16.0122 11.581 16.191 11.4022C16.3698 11.2233 16.4703 10.9808 16.4703 10.7279C16.4703 10.475 16.3698 10.2324 16.191 10.0536C16.0122 9.87476 15.7696 9.77429 15.5167 9.77429C15.2638 9.77429 15.0213 9.87476 14.8424 10.0536C14.6636 10.2324 14.5631 10.475 14.5631 10.7279C14.5631 10.9808 14.6636 11.2233 14.8424 11.4022C15.0213 11.581 15.2638 11.6815 15.5167 11.6815ZM15.5167 15.4958C15.7696 15.4958 16.0122 15.3953 16.191 15.2165C16.3698 15.0376 16.4703 14.7951 16.4703 14.5422C16.4703 14.2893 16.3698 14.0467 16.191 13.8679C16.0122 13.6891 15.7696 13.5886 15.5167 13.5886C15.2638 13.5886 15.0213 13.6891 14.8424 13.8679C14.6636 14.0467 14.5631 14.2893 14.5631 14.5422C14.5631 14.7951 14.6636 15.0376 14.8424 15.2165C15.0213 15.3953 15.2638 15.4958 15.5167 15.4958ZM11.7024 10.7279C11.7024 10.9808 11.6019 11.2233 11.4231 11.4022C11.2443 11.581 11.0017 11.6815 10.7488 11.6815C10.4959 11.6815 10.2534 11.581 10.0745 11.4022C9.89571 11.2233 9.79524 10.9808 9.79524 10.7279C9.79524 10.475 9.89571 10.2324 10.0745 10.0536C10.2534 9.87476 10.4959 9.77429 10.7488 9.77429C11.0017 9.77429 11.2443 9.87476 11.4231 10.0536C11.6019 10.2324 11.7024 10.475 11.7024 10.7279ZM11.7024 14.5422C11.7024 14.7951 11.6019 15.0376 11.4231 15.2165C11.2443 15.3953 11.0017 15.4958 10.7488 15.4958C10.4959 15.4958 10.2534 15.3953 10.0745 15.2165C9.89571 15.0376 9.79524 14.7951 9.79524 14.5422C9.79524 14.2893 9.89571 14.0467 10.0745 13.8679C10.2534 13.6891 10.4959 13.5886 10.7488 13.5886C11.0017 13.5886 11.2443 13.6891 11.4231 13.8679C11.6019 14.0467 11.7024 14.2893 11.7024 14.5422ZM5.98092 11.6815C6.23383 11.6815 6.47637 11.581 6.65521 11.4022C6.83404 11.2233 6.9345 10.9808 6.9345 10.7279C6.9345 10.475 6.83404 10.2324 6.65521 10.0536C6.47637 9.87476 6.23383 9.77429 5.98092 9.77429C5.72802 9.77429 5.48547 9.87476 5.30664 10.0536C5.12781 10.2324 5.02734 10.475 5.02734 10.7279C5.02734 10.9808 5.12781 11.2233 5.30664 11.4022C5.48547 11.581 5.72802 11.6815 5.98092 11.6815ZM5.98092 15.4958C6.23383 15.4958 6.47637 15.3953 6.65521 15.2165C6.83404 15.0376 6.9345 14.7951 6.9345 14.5422C6.9345 14.2893 6.83404 14.0467 6.65521 13.8679C6.47637 13.6891 6.23383 13.5886 5.98092 13.5886C5.72802 13.5886 5.48547 13.6891 5.30664 13.8679C5.12781 14.0467 5.02734 14.2893 5.02734 14.5422C5.02734 14.7951 5.12781 15.0376 5.30664 15.2165C5.48547 15.3953 5.72802 15.4958 5.98092 15.4958Z" fill="#6F6E78"/>
<path fill-rule="evenodd" clip-rule="evenodd" d="M5.97822 0.00012207C6.1679 0.00012207 6.34981 0.0754717 6.48393 0.209595C6.61806 0.343718 6.69341 0.525628 6.69341 0.715307V1.44289C7.32467 1.43049 8.01983 1.43049 8.7846 1.43049H12.7067C13.4724 1.43049 14.1676 1.43049 14.7988 1.44289V0.715307C14.7988 0.525628 14.8742 0.343718 15.0083 0.209595C15.1424 0.0754717 15.3243 0.00012207 15.514 0.00012207C15.7037 0.00012207 15.8856 0.0754717 16.0197 0.209595C16.1538 0.343718 16.2292 0.525628 16.2292 0.715307V1.50392C16.4771 1.52299 16.712 1.54715 16.9339 1.57639C18.0515 1.72705 18.9564 2.04364 19.6707 2.75692C20.3839 3.47115 20.7005 4.3761 20.8512 5.49369C20.9971 6.58077 20.9971 7.96823 20.9971 9.72091V11.7349C20.9971 13.4875 20.9971 14.876 20.8512 15.9621C20.7005 17.0797 20.3839 17.9846 19.6707 18.6989C18.9564 19.4121 18.0515 19.7287 16.9339 19.8794C15.8468 20.0253 14.4594 20.0253 12.7067 20.0253H8.78651C7.03383 20.0253 5.64542 20.0253 4.55929 19.8794C3.4417 19.7287 2.53675 19.4121 1.82252 18.6989C1.10925 17.9846 0.792657 17.0797 0.641991 15.9621C0.496094 14.875 0.496094 13.4875 0.496094 11.7349V9.72091C0.496094 7.96823 0.496094 6.57982 0.641991 5.49369C0.792657 4.3761 1.10925 3.47115 1.82252 2.75692C2.53675 2.04364 3.4417 1.72705 4.55929 1.57639C4.7818 1.54715 5.0167 1.52299 5.26399 1.50392V0.715307C5.26399 0.525793 5.33921 0.344027 5.47313 0.209932C5.60704 0.0758359 5.78871 0.000374755 5.97822 0.00012207ZM4.7481 2.99436C3.78976 3.12309 3.23668 3.3653 2.83332 3.76867C2.42995 4.17203 2.18774 4.72511 2.05901 5.68345C2.0374 5.84556 2.01896 6.01689 2.0037 6.19743H19.4885C19.4733 6.01689 19.4548 5.84524 19.4332 5.6825C19.3045 4.72415 19.0623 4.17108 18.6589 3.76771C18.2556 3.36435 17.7025 3.12214 16.7432 2.99341C15.7639 2.86181 14.4718 2.85991 12.6533 2.85991H8.83896C7.02048 2.85991 5.72934 2.86277 4.7481 2.99436ZM1.92551 9.77431C1.92551 8.95995 1.92551 8.25144 1.93791 7.62876H19.5543C19.5667 8.25144 19.5667 8.95995 19.5667 9.77431V11.6815C19.5667 13.4999 19.5648 14.792 19.4332 15.7723C19.3045 16.7307 19.0623 17.2837 18.6589 17.6871C18.2556 18.0905 17.7025 18.3327 16.7432 18.4614C15.7639 18.593 14.4718 18.5949 12.6533 18.5949H8.83896C7.02048 18.5949 5.72934 18.593 4.7481 18.4614C3.78976 18.3327 3.23668 18.0905 2.83332 17.6871C2.42995 17.2837 2.18774 16.7307 2.05901 15.7714C1.92742 14.792 1.92551 13.4999 1.92551 11.6815V9.77431Z" fill="#6F6E78"/>
</svg>
