<svg width="71" height="62" viewBox="0 0 71 62" fill="none" xmlns="http://www.w3.org/2000/svg">
<path d="M63.1913 9.90491H54.3555V18.1855C54.3555 19.5739 55.4915 20.71 56.88 20.71H70.765V17.4785C70.765 13.2879 67.3569 9.90491 63.1913 9.90491Z" fill="#62A1C0"/>
<path d="M35.4224 45.7532C40.9994 45.7532 45.5205 41.2321 45.5205 35.655C45.5205 30.078 40.9994 25.5569 35.4224 25.5569C29.8453 25.5569 25.3242 30.078 25.3242 35.655C25.3242 41.2321 29.8453 45.7532 35.4224 45.7532Z" fill="#62A1C0"/>
<path d="M49.3066 18.1852V7.73363L48.9278 6.42083C47.9938 3.21477 44.9896 0.967896 41.6572 0.967896H29.1861C25.8537 0.967896 22.8495 3.21477 21.9154 6.42083L21.4358 8.08711C21.1328 9.14737 20.1229 9.9047 19.0121 9.9047H7.65173C3.48619 9.9047 0.078125 13.2876 0.078125 17.4783V53.9832C0.078125 58.1485 3.48619 61.5568 7.65173 61.5568H54.0275C53.8254 60.9509 53.7245 60.3198 53.674 59.6634C49.7104 59.4108 46.5548 56.1795 46.5548 52.1401C46.5548 48.1262 49.7104 44.8696 53.674 44.6171C53.9013 40.6535 57.1578 37.5231 61.1972 37.5231C65.2111 37.5231 68.4679 40.6535 68.7203 44.6171C69.4271 44.6676 70.1087 44.7938 70.7651 45.0462V25.7589H56.8802C52.7146 25.7589 49.3066 22.3506 49.3066 18.1852ZM35.4216 50.8022C27.0654 50.8022 20.2744 44.0112 20.2744 35.655C20.2744 27.2988 27.0654 20.5078 35.4216 20.5078C43.7778 20.5078 50.5688 27.2988 50.5688 35.655C50.5688 44.0112 43.7778 50.8022 35.4216 50.8022Z" fill="#62A1C0"/>
<path d="M68.2422 49.6219H63.7145V45.0955C63.7145 43.7001 62.5842 42.5709 61.19 42.5709C59.7958 42.5709 58.6655 43.7001 58.6655 45.0955V49.6219H54.1378C52.7437 49.6219 51.6133 50.751 51.6133 52.1464C51.6133 53.5418 52.7437 54.6709 54.1378 54.6709H58.6655V59.1998C58.6655 60.5952 59.7958 61.7244 61.19 61.7244C62.5842 61.7244 63.7145 60.5952 63.7145 59.1998V54.6709H68.2422C69.6363 54.6709 70.7667 53.5418 70.7667 52.1464C70.7667 50.751 69.6363 49.6219 68.2422 49.6219Z" fill="#62A1C0"/>
</svg>
