<svg width="18" height="19" viewBox="0 0 18 19" fill="none" xmlns="http://www.w3.org/2000/svg">
<rect x="2" y="4.34668" width="13" height="12" fill="#989898"/>
<path d="M7.6 10.7467L5.45 8.59668C5.26667 8.41335 5.03333 8.32168 4.75 8.32168C4.46667 8.32168 4.23333 8.41335 4.05 8.59668C3.86667 8.78001 3.775 9.01334 3.775 9.29668C3.775 9.58001 3.86667 9.81334 4.05 9.99668L6.9 12.8467C7.1 13.0467 7.33333 13.1467 7.6 13.1467C7.86667 13.1467 8.1 13.0467 8.3 12.8467L13.95 7.19668C14.1333 7.01335 14.225 6.78001 14.225 6.49668C14.225 6.21335 14.1333 5.98001 13.95 5.79668C13.7667 5.61335 13.5333 5.52168 13.25 5.52168C12.9667 5.52168 12.7333 5.61335 12.55 5.79668L7.6 10.7467ZM2 18.3467C1.45 18.3467 0.979333 18.151 0.588 17.7597C0.196667 17.3683 0.000666667 16.8973 0 16.3467V2.34668C0 1.79668 0.196 1.32601 0.588 0.93468C0.98 0.543346 1.45067 0.347346 2 0.34668H16C16.55 0.34668 17.021 0.54268 17.413 0.93468C17.805 1.32668 18.0007 1.79735 18 2.34668V16.3467C18 16.8967 17.8043 17.3677 17.413 17.7597C17.0217 18.1517 16.5507 18.3473 16 18.3467H2Z" fill="#F2F4F5"/>
</svg>
