<svg width="63" height="63" viewBox="0 0 63 63" fill="none" xmlns="http://www.w3.org/2000/svg">
<path d="M55.0562 22.3371C53.613 18.9248 51.547 15.8605 48.9158 13.2293C46.2846 10.5981 43.2203 8.53208 39.808 7.08885C36.2747 5.59443 32.5221 4.83667 28.6542 4.83667C24.7864 4.83667 21.0337 5.59443 17.5004 7.08885C14.0881 8.53208 11.0238 10.5981 8.39264 13.2293C7.81517 13.8068 7.26487 14.4051 6.74263 15.0235C4.88448 17.2224 3.37861 19.6738 2.25218 22.3371C1.73668 23.556 1.30874 24.8012 0.969487 26.0682C0.325108 28.4735 0 30.9576 0 33.4909C0 37.3587 0.757763 41.1114 2.25218 44.6447C3.69541 48.057 5.76147 51.1213 8.39264 53.7524C11.0238 56.3836 14.0881 58.4497 17.5004 59.8929C21.0337 61.3873 24.7864 62.1451 28.6542 62.1451C32.5221 62.1451 36.2747 61.3873 39.808 59.8929C40.5404 59.5831 41.2569 59.2447 41.9563 58.8781C44.5158 57.5368 46.8493 55.819 48.9158 53.7524C49.857 52.8112 50.7261 51.8144 51.5202 50.7661C52.9455 48.8841 54.1294 46.8363 55.0562 44.6447C56.5507 41.1114 57.3084 37.3587 57.3084 33.4909C57.3084 29.623 56.5507 25.8704 55.0562 22.3371ZM28.6542 59.7034C14.2006 59.7034 2.44168 47.9445 2.44168 33.4909C2.44168 27.0439 4.7812 21.1334 8.65556 16.563C11.0889 13.6927 14.1276 11.3512 17.5727 9.73754C20.9403 8.16005 24.6963 7.27835 28.6542 7.27835C43.1078 7.27835 54.8667 19.0373 54.8667 33.4909C54.8667 35.3982 54.662 37.2586 54.2731 39.0512C53.457 42.8162 51.8292 46.2824 49.5828 49.2568C44.7942 55.5978 37.1946 59.7034 28.6542 59.7034Z" fill="#FF9A38"/>
<path d="M44.8782 17.2664C42.7713 15.1597 40.3178 13.5054 37.5853 12.3496C34.7559 11.1529 31.7509 10.546 28.6538 10.546C25.5568 10.546 22.5518 11.1529 19.7223 12.3496C16.9899 13.5054 14.5363 15.1597 12.4294 17.2664C11.9994 17.6964 11.5883 18.1409 11.1965 18.5992C9.66821 20.3864 8.43244 22.3846 7.51257 24.5594C7.11629 25.4965 6.78467 26.4528 6.51839 27.4254C5.98043 29.3893 5.70898 31.4194 5.70898 33.4909C5.70898 36.5879 6.31587 39.5929 7.51257 42.4224C8.66841 45.1548 10.3227 47.6084 12.4294 49.7153C14.5363 51.822 16.9899 53.4763 19.7223 54.6321C22.5518 55.8288 25.5568 56.4357 28.6538 56.4357C31.7509 56.4357 34.7559 55.8288 37.5853 54.6321C38.2131 54.3665 38.8262 54.0746 39.4237 53.7569C41.4269 52.6922 43.2554 51.3379 44.8782 49.7153C45.6641 48.9295 46.3866 48.0956 47.044 47.217C48.1495 45.7394 49.0703 44.1357 49.7951 42.4224C50.9918 39.5929 51.5986 36.5879 51.5986 33.4909C51.5986 30.3938 50.9918 27.3888 49.7951 24.5594C48.6392 21.8269 46.9849 19.3733 44.8782 17.2664ZM14.746 35.9049H13.882H8.66347H7.56691V30.6614H14.746V35.9049ZM26.0321 12.3278H31.2756V19.5069H26.0321V12.3278ZM38.7117 26.7433L38.0305 27.4243L31.2821 34.1727L31.0858 34.369V37.9553V49.7624V50.3722V50.6401H25.8424V32.1972L26.0199 32.0196L26.3022 31.7376L34.323 23.7167L34.9355 23.104L35.004 23.0355L35.4326 22.6069L35.8612 23.0355L36.0357 23.21L36.5424 23.7167L38.1864 25.3607L38.7117 25.8858L39.1404 26.3147L38.7117 26.7433ZM49.7407 35.9049H42.5616V30.6614H43.3735H43.9811H49.7407V32.7421V33.3499V35.9049Z" fill="#FF9A38"/>
<path d="M55.6342 19.0908C53.9164 15.7199 51.5899 12.7488 48.7189 10.2597C45.8482 7.77087 42.5771 5.88892 38.9966 4.66662C35.2886 3.40054 31.4111 2.90098 27.4719 3.18163C23.5324 3.46228 19.765 4.50654 16.2741 6.28543C12.9031 8.00325 9.932 10.3297 7.44294 13.2007C4.95411 16.0715 3.07217 19.3425 1.84987 22.923C1.49624 23.9589 1.20234 25.0081 0.968617 26.0681C0.36555 28.8023 0.162583 31.6089 0.364878 34.4477C0.64553 38.387 1.68978 42.1544 3.46867 45.6455C5.18649 49.0165 7.51299 51.9876 10.384 54.4767C13.2547 56.9655 16.5258 58.8475 20.1062 60.0698C23.8142 61.3358 27.6915 61.8354 31.631 61.5547C35.2437 61.2974 38.7122 60.3976 41.9554 58.878C42.2484 58.7408 42.5396 58.5985 42.8288 58.4509C46.1998 56.7331 49.1709 54.4066 51.6599 51.5357C54.1487 48.6649 56.0307 45.3938 57.253 41.8134C58.5191 38.1054 59.0186 34.2279 58.738 30.2887C58.4573 26.3492 57.4131 22.5819 55.6342 19.0908ZM56.6793 41.6176C55.5347 44.9697 53.7998 48.0452 51.5194 50.766C51.4147 50.8911 51.309 51.0152 51.2019 51.1387C48.7643 53.9502 45.8547 56.2286 42.5535 57.9107C39.1352 59.6526 35.4458 60.6751 31.5878 60.9501C27.7299 61.2249 23.9328 60.7357 20.302 59.4961C16.7959 58.2989 13.5926 56.4561 10.7809 54.0187C7.96945 51.581 5.691 48.6714 4.00887 45.3703C2.26703 41.9519 1.24456 38.2626 0.969516 34.4046C0.694701 30.5466 1.18393 26.7495 2.42352 23.1188C3.42287 20.1921 4.87216 17.4763 6.74176 15.0234C7.11155 14.5377 7.49817 14.0624 7.90097 13.5977C10.3386 10.7862 13.2482 8.50775 16.5493 6.82563C19.9677 5.08378 23.657 4.06131 27.515 3.78627C31.373 3.51145 35.1701 4.00069 38.8008 5.24028C42.307 6.43743 45.5102 8.28031 48.3219 10.7177C51.1334 13.1554 53.4119 16.0649 55.094 19.3661C56.8358 22.7844 57.8583 26.4738 58.1333 30.3318C58.4082 34.1897 57.9189 37.9869 56.6793 41.6176Z" fill="#333333"/>
<path d="M31.371 57.9099C17.2874 58.9133 5.01321 48.2719 4.0096 34.188C3.26755 23.7729 8.89408 14.3472 17.5716 9.73755C14.1266 11.3512 11.0879 13.6927 8.65452 16.563C4.95237 21.4516 2.93593 27.6481 3.40496 34.2311C4.43215 48.6482 16.9971 59.5418 31.4141 58.5146C38.7517 57.9919 45.1769 54.4801 49.5818 49.2568C51.8281 46.2824 53.4559 42.8162 54.2721 39.0512C51.5003 49.2683 42.5129 57.116 31.371 57.9099Z" fill="#333333"/>
<path d="M11.756 16.9409C9.7528 19.2515 8.23817 21.8842 7.25431 24.766C6.95547 25.6414 6.70962 26.5287 6.51698 27.4255C6.05334 29.5858 5.89932 31.8014 6.05918 34.0421C6.28505 37.2126 7.12544 40.245 8.55744 43.0549C9.94005 45.7683 11.8126 48.1596 14.1231 50.1628C16.4337 52.166 19.0664 53.6806 21.9482 54.6645C24.9327 55.6834 28.0536 56.0855 31.2243 55.8596C34.0906 55.6555 36.8441 54.9487 39.4223 53.757C39.696 53.6306 39.9677 53.4988 40.2371 53.3614C42.9502 51.9788 45.3418 50.1063 47.345 47.7957C49.3482 45.4851 50.8628 42.8524 51.8467 39.9706C52.8656 36.9861 53.2679 33.8652 53.0418 30.6945C52.816 27.524 51.9753 24.4916 50.5436 21.6817C49.1609 18.9686 47.2884 16.577 44.9779 14.5738C42.6673 12.5706 40.0346 11.056 37.1528 10.0721C34.1682 9.05324 31.0472 8.6509 27.8767 8.87699C24.7062 9.10286 21.6738 9.94325 18.8639 11.3753C16.1506 12.7579 13.7592 14.6304 11.756 16.9409ZM19.1392 11.9155C21.8763 10.5205 24.8306 9.70166 27.9198 9.48163C31.009 9.26138 34.0495 9.65317 36.9568 10.6458C39.7645 11.6045 42.3296 13.0801 44.5807 15.0318C46.832 16.9836 48.6564 19.3137 50.0034 21.957C51.3983 24.6941 52.2171 27.6484 52.4372 30.7376C52.6574 33.8268 52.2656 36.8673 51.273 39.7746C50.3399 42.5071 48.9173 45.01 47.0426 47.2171C46.9912 47.2777 46.9393 47.3383 46.887 47.3985C44.9352 49.6498 42.6051 51.4743 39.9618 52.8212C37.2247 54.2161 34.2704 55.035 31.1812 55.255C28.092 55.475 25.0515 55.0835 22.1442 54.0908C19.3365 53.1321 16.7714 51.6566 14.5201 49.7048C12.269 47.753 10.4445 45.4229 9.09764 42.7796C7.70268 40.0425 6.88385 37.0882 6.66382 33.999C6.44356 30.9098 6.83535 27.8693 7.82797 24.962C8.612 22.6658 9.74179 20.5319 11.1951 18.5993C11.5184 18.1686 11.8584 17.7481 12.214 17.3379C14.1658 15.0868 16.4956 13.2624 19.1392 11.9155Z" fill="#333333"/>
<path d="M8.92127 31.0015L8.31641 31.0446L8.35952 31.6493L8.42799 32.61L8.57753 34.7093L8.64601 35.67L8.66285 35.9049H13.8814L14.2847 35.8761L14.7454 35.8434L15.2454 35.8077L15.85 35.7645L15.8069 35.1599L15.7387 34.1992L15.5889 32.0999L15.5207 31.1389L15.4775 30.5343L14.8727 30.5774L13.912 30.6459L13.6946 30.6614L9.882 30.9331L8.92127 31.0015ZM13.9551 31.2505L14.7454 31.1942L14.9158 31.182L14.9843 32.1428L15.1338 34.2421L15.2023 35.203L14.7454 35.2356L14.2415 35.2713L10.2116 35.5584L9.25064 35.6269L9.18239 34.6662L9.03263 32.5669L8.96415 31.6062L9.92511 31.5377L13.9551 31.2505Z" fill="#333333"/>
<path d="M25.5432 13.0105L25.8303 17.0406L25.8988 18.0013L25.9419 18.606L26.5466 18.5629L27.5073 18.4945L29.6066 18.3449L30.5674 18.2765L31.172 18.2334L31.129 17.6287L31.0605 16.6679L30.7734 12.6378L30.7049 11.6771L30.6618 11.0724L30.0571 11.1155L29.0964 11.1839L26.9971 11.3335L26.0363 11.402L25.4316 11.4451L25.4747 12.0497L25.5432 13.0105ZM27.0402 11.9382L29.1394 11.7886L30.1002 11.7202L30.1687 12.681L30.4558 16.711L30.5243 17.6718L29.5635 17.7402L27.4642 17.8898L26.5035 17.9583L26.435 16.9975L26.1479 12.9674L26.0794 12.0067L27.0402 11.9382Z" fill="#333333"/>
<path d="M26.2193 31.8887L25.9697 32.1999L25.8415 32.3595L25.8125 32.3956L25.8397 32.6451L25.8415 32.6615L25.883 33.0418L27.6457 49.1693L27.7504 50.1268L27.8065 50.6401L27.8164 50.7295L28.419 50.6637L28.6343 50.6401L29.3763 50.5588L31.085 50.3722V49.7624L29.3106 49.9562L28.353 50.0608L28.2483 49.1035L26.4856 32.976L26.4423 32.5793L26.6922 32.2681L30.4471 27.5918L33.794 23.4235L34.3971 22.6725L34.9346 23.104L35.1481 23.2755L36.7892 24.593L37.5402 25.1961L36.9371 25.9474L30.631 33.8012L31.085 37.9553V34.369L31.2812 34.1727L31.2608 33.9848L37.4098 26.3268L38.0128 25.5758L38.1855 25.3607L38.3925 25.1029L37.9199 24.7235L37.1686 24.1204L36.0348 23.21L35.5276 22.8027L35.3659 22.6727L34.7766 22.1996L34.3039 21.8202L33.9243 22.2928L33.3212 23.0438L26.5011 31.5377L26.2193 31.8887Z" fill="#333333"/>
<path d="M43.5527 33.183L43.5958 33.7876L44.2004 33.7445L45.1611 33.676L49.1913 33.3889L49.7403 33.3498V32.742L49.1482 32.7842L45.118 33.0714L44.1573 33.1399L44.0888 32.1791L43.9806 30.6614H43.373L43.4842 32.2223L43.5527 33.183Z" fill="#333333"/>
<path d="M10.6156 56.436C10.6063 56.4256 10.5966 56.4155 10.5866 56.4058C10.4905 56.3128 10.3657 56.2579 10.2308 56.2502C10.0819 56.2417 9.93855 56.2916 9.82723 56.3909C9.61769 56.5778 9.57956 56.8929 9.73859 57.1239C9.75186 57.1432 9.76652 57.1618 9.7821 57.1793C9.88435 57.294 9.98804 57.4092 10.0902 57.5217C10.2974 57.7497 10.6511 57.7667 10.879 57.5597C11.1069 57.3528 11.1239 56.9989 10.917 56.7709C10.8165 56.6603 10.7151 56.5476 10.6156 56.436Z" fill="#333333"/>
<path d="M12.4711 58.2289C12.3604 58.129 12.2484 58.027 12.1381 57.9256C11.9115 57.7172 11.5575 57.7321 11.3491 57.9588C11.1639 58.1602 11.1512 58.4631 11.3189 58.6789C11.3379 58.7035 11.3594 58.7266 11.3823 58.7477C11.4962 58.8524 11.6108 58.9568 11.7229 59.058C11.9516 59.2643 12.3053 59.2461 12.5116 59.0176C12.7134 58.7939 12.7003 58.4503 12.4853 58.2422C12.4807 58.2378 12.476 58.2333 12.4711 58.2289Z" fill="#333333"/>
<path d="M14.1283 59.3358C14.0118 59.2595 13.8894 59.1782 13.7541 59.0874C13.4985 58.9157 13.1509 58.9839 12.9792 59.2395C12.8318 59.459 12.8594 59.7548 13.0449 59.9428C13.071 59.9693 13.1002 59.9934 13.1314 60.0144C13.2708 60.108 13.3967 60.1917 13.5162 60.2699C13.7737 60.4387 14.1205 60.3665 14.2893 60.1089C14.4383 59.8814 14.3994 59.5843 14.2107 59.4017C14.1858 59.3776 14.1583 59.3555 14.1283 59.3358Z" fill="#333333"/>
<path d="M16.055 60.3284C16.0162 60.2908 15.9716 60.2588 15.9223 60.2333L15.8842 60.2136C15.7636 60.1515 15.6438 60.0883 15.5281 60.0259C15.2571 59.8797 14.9177 59.9812 14.7715 60.2521C14.6543 60.4693 14.6951 60.7419 14.8708 60.9149C14.9083 60.952 14.951 60.9834 14.9977 61.0087C15.1206 61.0749 15.2467 61.1414 15.3725 61.2062L15.4097 61.2255C15.5422 61.2939 15.6934 61.3067 15.8355 61.2614C15.9776 61.216 16.0936 61.1181 16.162 60.9856C16.2305 60.8531 16.2433 60.7018 16.1979 60.5597C16.1695 60.4706 16.1204 60.3917 16.055 60.3284Z" fill="#333333"/>
<path d="M18.1109 61.1177C18.0435 61.0419 17.9565 60.9858 17.8571 60.9554C17.7348 60.9181 17.5972 60.8739 17.4364 60.8204C17.1442 60.7231 16.8275 60.8817 16.7302 61.1738C16.6521 61.4086 16.7351 61.6625 16.9367 61.8056C16.9816 61.8374 17.0311 61.8624 17.0837 61.8799C17.2537 61.9365 17.3999 61.9835 17.5308 62.0234C17.8253 62.1134 18.138 61.947 18.228 61.6525C18.2715 61.5099 18.2569 61.3588 18.1868 61.2271C18.1657 61.1873 18.1401 61.1506 18.1109 61.1177Z" fill="#333333"/>
<path d="M20.3064 61.5008C20.2328 61.431 20.1412 61.3826 20.0396 61.3609C19.9146 61.3342 19.7737 61.302 19.6089 61.2624C19.3095 61.1906 19.0075 61.3758 18.9356 61.6752C18.8779 61.9158 18.9824 62.1616 19.1956 62.2869C19.243 62.3147 19.2944 62.3354 19.3484 62.3484C19.5226 62.3902 19.6723 62.4244 19.8061 62.453C20.1072 62.5173 20.4045 62.3248 20.4689 62.0237C20.5001 61.8778 20.4726 61.7285 20.3915 61.6033C20.3669 61.5654 20.3384 61.5311 20.3064 61.5008Z" fill="#333333"/>
<path d="M33.6446 2.82594C33.7861 2.87395 33.9294 2.92332 34.0706 2.97265C34.0838 2.97727 34.0972 2.9814 34.1106 2.98502C34.2397 3.01975 34.3755 3.0072 34.4972 2.94853C34.6316 2.88378 34.7327 2.77055 34.7819 2.62976C34.8745 2.36471 34.755 2.07067 34.5039 1.94579L34.5039 1.94577C34.4829 1.93535 34.4611 1.92617 34.439 1.91842C34.2939 1.86775 34.1474 1.81725 34.0035 1.76842C33.7117 1.6695 33.3942 1.82621 33.2953 2.11778C33.1964 2.40921 33.3531 2.72691 33.6446 2.82594Z" fill="#333333"/>
<path d="M31.56 2.29945C31.5662 2.30113 31.5725 2.30271 31.5789 2.30419C31.7241 2.33784 31.8716 2.37276 32.0172 2.40794C32.3165 2.48024 32.6188 2.29557 32.6911 1.9963C32.7553 1.73029 32.6196 1.45927 32.3683 1.35188C32.3397 1.33964 32.3097 1.32976 32.2794 1.32242C32.1291 1.28611 31.9782 1.25039 31.831 1.21626C31.531 1.14675 31.2305 1.33421 31.161 1.63415C31.0929 1.9276 31.2711 2.22179 31.56 2.29945Z" fill="#333333"/>
<path d="M29.4855 2.12275C29.519 2.13176 29.5538 2.13773 29.5896 2.1404C29.7285 2.15066 29.8749 2.16238 30.0373 2.17624C30.3441 2.20241 30.615 1.97414 30.6411 1.66735C30.6636 1.40388 30.496 1.15861 30.2426 1.08418C30.2069 1.0737 30.1697 1.06671 30.1322 1.06352C29.9649 1.04925 29.8142 1.03721 29.6718 1.02668C29.3648 1.004 29.0965 1.23535 29.0738 1.54241C29.0538 1.81365 29.232 2.05461 29.4855 2.12275Z" fill="#333333"/>
<path d="M27.1871 2.0742C27.2552 2.13839 27.3364 2.18354 27.4243 2.20716C27.4765 2.22119 27.531 2.22764 27.5865 2.22597L27.6293 2.22472C27.765 2.22056 27.9004 2.21769 28.0318 2.21621C28.3397 2.21266 28.5873 1.95931 28.5838 1.65147C28.5809 1.40465 28.413 1.18608 28.1755 1.11991C28.1247 1.1057 28.0721 1.09892 28.019 1.09952C27.8794 1.10114 27.7369 1.10415 27.5955 1.10848L27.5536 1.10972C27.4045 1.11412 27.2661 1.17631 27.1638 1.28484C27.0615 1.39338 27.0075 1.53525 27.012 1.68431C27.0163 1.83342 27.0785 1.97188 27.1871 2.0742Z" fill="#333333"/>
<path d="M25.1237 2.45504C25.1616 2.47963 25.2017 2.4993 25.2433 2.51389C25.3389 2.54755 25.4423 2.55437 25.5439 2.5327C25.6689 2.5061 25.8107 2.47799 25.9774 2.44678C26.28 2.39013 26.4801 2.09783 26.4235 1.79519C26.3779 1.55197 26.1822 1.3702 25.9365 1.34287C25.8817 1.33679 25.8264 1.3389 25.7718 1.34909C25.5958 1.38205 25.4451 1.41193 25.3113 1.44045C25.0101 1.50462 24.8173 1.8018 24.8815 2.1029C24.9126 2.24884 24.9986 2.37388 25.1237 2.45504Z" fill="#333333"/>
<path d="M23.0146 3.19477C23.0545 3.21601 23.0961 3.23215 23.1388 3.24316C23.237 3.26848 23.3405 3.26642 23.4399 3.23611C23.5622 3.19886 23.701 3.15871 23.8644 3.11334C24.161 3.03094 24.3353 2.72256 24.253 2.42589C24.1867 2.18745 23.9761 2.02315 23.729 2.01702C23.6739 2.01565 23.6189 2.02249 23.5655 2.03734C23.3929 2.08527 23.2454 2.12798 23.1145 2.16787C22.8199 2.25762 22.6533 2.57024 22.743 2.86475C22.7865 3.00743 22.883 3.12461 23.0146 3.19477Z" fill="#333333"/>
<path d="M4.11722 57.4198L3.32275 58.2143C3.15544 58.3816 3.15544 58.6528 3.32275 58.8202C3.49007 58.9875 3.76133 58.9875 3.92862 58.8202L4.7231 58.0257C4.89041 57.8584 4.89041 57.5871 4.7231 57.4198C4.55581 57.2525 4.28454 57.2525 4.11722 57.4198Z" fill="#333333"/>
<path d="M7.48636 54.0511L6.69189 54.8456C6.52458 55.0129 6.52458 55.2842 6.69189 55.4515C6.85921 55.6188 7.13047 55.6188 7.29776 55.4515L8.09224 54.657C8.25955 54.4897 8.25955 54.2185 8.09224 54.0511C7.92492 53.8838 7.65366 53.8838 7.48636 54.0511Z" fill="#333333"/>
<path d="M7.29776 57.4198C7.13045 57.2525 6.85918 57.2525 6.69189 57.4198C6.52458 57.5871 6.52458 57.8584 6.69189 58.0257L7.48636 58.8202C7.65368 58.9875 7.92495 58.9875 8.09224 58.8202C8.25955 58.6529 8.25955 58.3816 8.09224 58.2143L7.29776 57.4198Z" fill="#333333"/>
<path d="M3.92862 54.0511C3.7613 53.8838 3.49003 53.8838 3.32274 54.0511C3.15545 54.2185 3.15543 54.4897 3.32274 54.657L4.11722 55.4515C4.28453 55.6188 4.5558 55.6188 4.72309 55.4515C4.8904 55.2842 4.8904 55.013 4.72309 54.8456L3.92862 54.0511Z" fill="#333333"/>
<path d="M37.1377 3.45734L37.6989 2.89614C37.8171 2.77795 37.8171 2.58635 37.6989 2.46816C37.5807 2.34997 37.3891 2.34997 37.2709 2.46816L36.7097 3.02935C36.5915 3.14754 36.5915 3.33915 36.7097 3.45734C36.8279 3.57552 37.0195 3.57552 37.1377 3.45734Z" fill="#333333"/>
<path d="M39.5166 1.07782L40.0778 0.516626C40.196 0.398438 40.196 0.20683 40.0778 0.0886414C39.9596 -0.0295471 39.768 -0.0295471 39.6498 0.0886414L39.0886 0.649835C38.9705 0.768023 38.9705 0.959631 39.0886 1.0778C39.2069 1.19599 39.3985 1.19599 39.5166 1.07782Z" fill="#333333"/>
<path d="M39.6498 3.45734C39.768 3.57552 39.9596 3.57552 40.0778 3.45734C40.196 3.33915 40.196 3.14754 40.0778 3.02935L39.5166 2.46816C39.3984 2.34997 39.2068 2.34997 39.0886 2.46816C38.9705 2.58635 38.9705 2.77795 39.0886 2.89614L39.6498 3.45734Z" fill="#333333"/>
<path d="M37.2709 1.07782C37.3891 1.19601 37.5807 1.19601 37.6989 1.07782C37.8171 0.959631 37.8171 0.768023 37.6989 0.649835L37.1377 0.0886414C37.0195 -0.0295471 36.8279 -0.0295471 36.7097 0.0886414C36.5915 0.20683 36.5915 0.398438 36.7097 0.516626L37.2709 1.07782Z" fill="#333333"/>
<path d="M44.2475 60.8476L43.6863 61.4087C43.5681 61.5269 43.5681 61.7185 43.6863 61.8367C43.8045 61.9549 43.9961 61.9549 44.1143 61.8367L44.6755 61.2755C44.7937 61.1573 44.7937 60.9657 44.6755 60.8476C44.5573 60.7294 44.3657 60.7294 44.2475 60.8476Z" fill="#333333"/>
<path d="M46.6264 58.4681L46.0652 59.0293C45.947 59.1475 45.947 59.3391 46.0652 59.4573C46.1834 59.5755 46.375 59.5755 46.4932 59.4573L47.0544 58.8961C47.1726 58.7779 47.1726 58.5863 47.0544 58.4681C46.9362 58.35 46.7446 58.35 46.6264 58.4681Z" fill="#333333"/>
<path d="M46.4932 60.8476C46.375 60.7294 46.1834 60.7294 46.0652 60.8476C45.947 60.9657 45.947 61.1573 46.0652 61.2755L46.6264 61.8367C46.7446 61.9549 46.9362 61.9549 47.0544 61.8367C47.1726 61.7185 47.1726 61.5269 47.0544 61.4087L46.4932 60.8476Z" fill="#333333"/>
<path d="M44.1143 58.468C43.9961 58.3498 43.8045 58.3498 43.6863 58.468C43.5681 58.5862 43.5681 58.7778 43.6863 58.896L44.2475 59.4572C44.3657 59.5754 44.5573 59.5754 44.6755 59.4572C44.7937 59.339 44.7937 59.1474 44.6755 59.0292L44.1143 58.468Z" fill="#333333"/>
<path d="M1.94241 15.1777L2.5036 14.6165C2.62179 14.4983 2.62179 14.3067 2.5036 14.1885C2.38541 14.0703 2.1938 14.0703 2.07562 14.1885L1.51442 14.7497C1.39623 14.8679 1.39623 15.0595 1.51442 15.1777C1.63261 15.2958 1.82422 15.2958 1.94241 15.1777Z" fill="#333333"/>
<path d="M4.32131 12.798L4.88251 12.2368C5.0007 12.1187 5.0007 11.927 4.88251 11.8089C4.76432 11.6907 4.57271 11.6907 4.45452 11.8089L3.89333 12.37C3.77514 12.4882 3.77514 12.6798 3.89333 12.798C4.01152 12.9162 4.20313 12.9162 4.32131 12.798Z" fill="#333333"/>
<path d="M4.45452 15.1777C4.57271 15.2959 4.76432 15.2959 4.88251 15.1777C5.0007 15.0595 5.0007 14.8679 4.88251 14.7497L4.32131 14.1885C4.20313 14.0703 4.01152 14.0703 3.89333 14.1885C3.77514 14.3067 3.77514 14.4983 3.89333 14.6165L4.45452 15.1777Z" fill="#333333"/>
<path d="M2.07562 12.798C2.1938 12.9162 2.38541 12.9162 2.5036 12.798C2.62179 12.6798 2.62179 12.4882 2.5036 12.37L1.94241 11.8089C1.82422 11.6907 1.63261 11.6907 1.51442 11.8089C1.39623 11.927 1.39623 12.1187 1.51442 12.2368L2.07562 12.798Z" fill="#333333"/>
<path d="M59.9135 29.3903L59.3523 29.9515C59.2341 30.0697 59.2341 30.2613 59.3523 30.3795C59.4705 30.4976 59.6621 30.4976 59.7803 30.3795L60.3415 29.8183C60.4597 29.7001 60.4597 29.5085 60.3415 29.3903C60.2233 29.2721 60.0317 29.2721 59.9135 29.3903Z" fill="#333333"/>
<path d="M62.1592 27.9998L62.7204 27.4386C62.8386 27.3204 62.8386 27.1288 62.7204 27.0106C62.6022 26.8924 62.4106 26.8924 62.2924 27.0106L61.7312 27.5718C61.613 27.69 61.613 27.8816 61.7312 27.9998C61.8494 28.118 62.041 28.118 62.1592 27.9998Z" fill="#333333"/>
<path d="M62.1592 29.3903C62.041 29.2721 61.8494 29.2721 61.7312 29.3903C61.613 29.5085 61.613 29.7001 61.7312 29.8183L62.2924 30.3795C62.4106 30.4976 62.6022 30.4976 62.7204 30.3795C62.8386 30.2613 62.8386 30.0697 62.7204 29.9515L62.1592 29.3903Z" fill="#333333"/>
<path d="M59.7803 27.0106C59.6621 26.8924 59.4705 26.8924 59.3523 27.0106C59.2341 27.1288 59.2341 27.3204 59.3523 27.4386L59.9135 27.9998C60.0317 28.118 60.2233 28.118 60.3415 27.9998C60.4597 27.8816 60.4597 27.69 60.3415 27.5718L59.7803 27.0106Z" fill="#333333"/>
</svg>
