<svg width="29" height="27" viewBox="0 0 29 27" fill="none" xmlns="http://www.w3.org/2000/svg">
<g clip-path="url(#clip0_98_1752)">
<path d="M16.918 5.95502V10.9098L18.7049 11.9998C18.7695 12.0133 18.8362 12.0133 18.9008 11.9998L26.584 6.97546C26.5784 6.73161 26.4864 6.49706 26.3235 6.31124C26.1607 6.12541 25.9368 5.99962 25.6896 5.95502H16.918Z" fill="#0072C6"/>
<path d="M16.6171 12.2944L18.2966 13.4195C18.3751 13.4664 18.4655 13.4912 18.5576 13.4912C18.6497 13.4912 18.74 13.4664 18.8186 13.4195C18.5302 13.5892 26.5795 8.37695 26.5795 8.37695V17.8151C26.6005 18.0063 26.5784 18.1998 26.5147 18.3818C26.4511 18.5638 26.3474 18.7301 26.211 18.869C26.0745 19.0079 25.9086 19.116 25.7249 19.1858C25.5411 19.2556 25.3439 19.2854 25.1471 19.2731H16.6161L16.6171 12.2944ZM7.92272 9.92685C7.6437 9.92564 7.36952 9.99802 7.12922 10.1363C6.88891 10.2747 6.69141 10.4738 6.55762 10.7126C6.19237 11.3458 6.01714 12.0665 6.05195 12.7922C6.014 13.5165 6.18947 14.2362 6.55762 14.8663C6.69077 15.0953 6.88339 15.2862 7.11612 15.4196C7.34885 15.5531 7.61349 15.6244 7.88345 15.6265C8.15341 15.6286 8.41919 15.5613 8.65406 15.4315C8.88893 15.3017 9.08463 15.1139 9.2215 14.8869C9.58635 14.26 9.75824 13.5438 9.71659 12.8241C9.75824 12.0819 9.59209 11.3426 9.23592 10.6854C9.10829 10.4546 8.91862 10.262 8.68726 10.1284C8.45591 9.99472 8.1916 9.92506 7.92272 9.92685Z" fill="#0072C6"/>
<path d="M0.00390625 2.90203V23.2895L15.7112 26.5417V-0.0999146L0.00390625 2.90203ZM10.5153 16.5425C10.2215 16.9516 9.83082 17.2835 9.3773 17.5092C8.92379 17.7349 8.42122 17.8476 7.91345 17.8375C7.41847 17.8462 6.9287 17.7367 6.48577 17.5184C6.04285 17.3 5.65988 16.9793 5.36944 16.5835C4.68069 15.6339 4.33612 14.4828 4.39135 13.3161C4.3329 12.0921 4.68369 10.8832 5.38968 9.87547C5.6874 9.45884 6.08427 9.12084 6.54535 8.89121C7.00644 8.66158 7.51762 8.54737 8.03391 8.55862C8.52524 8.54921 9.01142 8.65887 9.44989 8.87799C9.88835 9.09712 10.2657 9.41902 10.549 9.81553C11.2309 10.7857 11.5696 11.9509 11.5126 13.1305C11.5729 14.3456 11.2221 15.546 10.5153 16.5425Z" fill="#0072C6"/>
</g>
<defs>
<clipPath id="clip0_98_1752">
<rect width="29" height="26" fill="white" transform="matrix(-1 0 0 1 29 0.473633)"/>
</clipPath>
</defs>
</svg>
