<svg width="27" height="23" viewBox="0 0 27 23" fill="none" xmlns="http://www.w3.org/2000/svg">
<g clip-path="url(#clip0_98_1634)">
<path d="M15.2734 10.9086L17.9056 13.8037L21.4454 15.9801L22.0611 10.9268L21.4454 5.98755L17.8378 7.89947L15.2734 10.9086Z" fill="#00832D"/>
<path d="M0 15.5098V19.8159C0 20.7991 0.829406 21.5974 1.8514 21.5974H6.32644L7.25309 18.3439L6.32644 15.5098L3.25624 14.6182L0 15.5098Z" fill="#0066DA"/>
<path d="M6.32644 0.219727L0 6.30733L3.25645 7.19687L6.32644 6.30733L7.23621 3.51187L6.32644 0.219727Z" fill="#E94235"/>
<path d="M0 15.5117H6.32633V6.30725H0V15.5117Z" fill="#2684FC"/>
<path d="M25.4868 2.7973L21.4453 5.98765V15.9801L25.5034 19.1828C26.1109 19.6407 26.9996 19.2234 26.9996 18.4803V3.48559C26.9996 2.73428 26.0897 2.319 25.4867 2.79741" fill="#00AC47"/>
<path d="M15.2759 10.9086V15.5098H6.32812V21.5974H19.5965C20.6185 21.5974 21.4478 20.7991 21.4478 19.8159V15.9801L15.2759 10.9086Z" fill="#00AC47"/>
<path d="M19.5965 0.219727H6.32812V6.30733H15.2759V10.9086L21.4479 5.98745V2.00133C21.4479 1.01792 20.6185 0.219828 19.5965 0.219828" fill="#FFBA00"/>
</g>
<defs>
<clipPath id="clip0_98_1634">
<rect width="27" height="22.2539" fill="white" transform="translate(0 0.219727)"/>
</clipPath>
</defs>
</svg>
