<svg width="23" height="22" viewBox="0 0 23 22" fill="none" xmlns="http://www.w3.org/2000/svg">
<path d="M6.5 13.0001L8.793 10.7071C8.98053 10.5197 9.23484 10.4143 9.5 10.4143C9.76516 10.4143 10.0195 10.5197 10.207 10.7071L11.793 12.2931C11.9805 12.4806 12.2348 12.5859 12.5 12.5859C12.7652 12.5859 13.0195 12.4806 13.207 12.2931L16.5 9.00012M16.5 9.00012V11.5001M16.5 9.00012H14" stroke="#FFCC00" stroke-width="1.5" stroke-linecap="round" stroke-linejoin="round"/>
<path d="M21.5 11.0001C21.5 15.7141 21.5 18.0711 20.035 19.5351C18.572 21.0001 16.214 21.0001 11.5 21.0001C6.786 21.0001 4.429 21.0001 2.964 19.5351C1.5 18.0721 1.5 15.7141 1.5 11.0001C1.5 6.28612 1.5 3.92912 2.964 2.46412C4.43 1.00012 6.786 1.00012 11.5 1.00012C16.214 1.00012 18.571 1.00012 20.035 2.46412C21.009 3.43812 21.335 4.80712 21.445 7.00012" stroke="#FFCC00" stroke-width="1.5" stroke-linecap="round"/>
</svg>
