<svg width="64" height="65" viewBox="0 0 64 65" fill="none" xmlns="http://www.w3.org/2000/svg">
<path fill-rule="evenodd" clip-rule="evenodd" d="M32.0026 45.3974C32.6245 45.3974 33.2209 45.1504 33.6606 44.7106C34.1004 44.2709 34.3474 43.6745 34.3474 43.0526V8.74623L39.5998 14.8772C40.0045 15.3498 40.5803 15.6423 41.2006 15.6904C41.821 15.7385 42.435 15.5382 42.9076 15.1335C43.3802 14.7289 43.6728 14.1531 43.7209 13.5327C43.7689 12.9124 43.5686 12.2984 43.164 11.8258L33.7847 0.883247C33.5645 0.625833 33.2913 0.419164 32.9836 0.277459C32.676 0.135754 32.3413 0.0623779 32.0026 0.0623779C31.6639 0.0623779 31.3292 0.135754 31.0216 0.277459C30.714 0.419164 30.4407 0.625833 30.2205 0.883247L20.8412 11.8258C20.6409 12.0598 20.4886 12.331 20.393 12.6239C20.2975 12.9168 20.2606 13.2256 20.2844 13.5327C20.3082 13.8399 20.3922 14.1394 20.5318 14.414C20.6713 14.6887 20.8636 14.9332 21.0976 15.1335C21.3316 15.3339 21.6028 15.4862 21.8957 15.5817C22.1886 15.6773 22.4974 15.7142 22.8046 15.6904C23.1117 15.6666 23.4112 15.5825 23.6859 15.443C23.9605 15.3035 24.205 15.1112 24.4054 14.8772L29.6578 8.74936V43.0526C29.6578 44.3469 30.7083 45.3974 32.0026 45.3974Z" fill="#62A1C0"/>
<path d="M44.5064 24.294C42.3117 24.294 41.2143 24.294 40.4233 24.8224C40.0832 25.0499 39.7911 25.3421 39.5635 25.6821C39.0352 26.4731 39.0352 27.5705 39.0352 29.7653V43.0526C39.0352 44.9183 38.294 46.7075 36.9748 48.0267C35.6556 49.346 33.8663 50.0871 32.0007 50.0871C30.135 50.0871 28.3458 49.346 27.0266 48.0267C25.7073 46.7075 24.9662 44.9183 24.9662 43.0526V29.7653C24.9662 27.5705 24.9662 26.4731 24.4378 25.6821C24.2103 25.3421 23.9182 25.0499 23.5781 24.8224C22.7871 24.294 21.6897 24.294 19.4949 24.294C10.6534 24.294 6.22947 24.294 3.48446 27.0421C0.736328 29.7872 0.736328 34.2048 0.736328 43.0495V46.1759C0.736328 55.0237 0.736328 59.4414 3.48446 62.1895C6.22947 64.9377 10.6534 64.9377 19.4949 64.9377H44.5064C53.348 64.9377 57.7719 64.9377 60.5169 62.1895C63.2619 59.4414 63.265 55.0206 63.265 46.1791V43.0526C63.265 34.2079 63.265 29.7872 60.5169 27.0421C57.7719 24.294 53.348 24.294 44.5064 24.294Z" fill="#62A1C0"/>
</svg>
