<svg width="26" height="27" viewBox="0 0 26 27" fill="none" xmlns="http://www.w3.org/2000/svg">
<g clip-path="url(#clip0_98_1742)">
<path d="M0.553828 13.4184C0.553219 15.6199 1.12847 17.7696 2.2223 19.6644L0.449219 26.1382L7.07434 24.401C8.90677 25.3986 10.9599 25.9213 13.0462 25.9214H13.0517C19.9392 25.9214 25.5457 20.3169 25.5487 13.4282C25.55 10.0902 24.2512 6.95128 21.8915 4.58975C19.5322 2.22842 16.3944 0.927305 13.0512 0.925781C6.16292 0.925781 0.556773 6.53 0.55393 13.4184" fill="url(#paint0_linear_98_1742)"/>
<path d="M9.81898 8.00429C9.57666 7.46571 9.32163 7.45484 9.09119 7.44539C8.90248 7.43727 8.68677 7.43788 8.47125 7.43788C8.25553 7.43788 7.90504 7.51903 7.60878 7.8425C7.31222 8.16628 6.47656 8.94872 6.47656 10.5401C6.47656 12.1315 7.6357 13.6695 7.79728 13.8856C7.95907 14.1012 10.035 17.4714 13.3228 18.768C16.0552 19.8455 16.6113 19.6312 17.2043 19.5771C17.7974 19.5233 19.1181 18.7949 19.3876 18.0396C19.6572 17.2844 19.6572 16.637 19.5764 16.5017C19.4956 16.3669 19.2798 16.286 18.9564 16.1243C18.6329 15.9626 17.0425 15.18 16.7461 15.072C16.4495 14.9642 16.2339 14.9103 16.0182 15.2342C15.8024 15.5576 15.183 16.286 14.9942 16.5017C14.8056 16.7179 14.6168 16.7449 14.2934 16.5831C13.9697 16.4208 12.928 16.0796 11.6921 14.9778C10.7305 14.1204 10.0813 13.0616 9.89262 12.7377C9.70391 12.4143 9.87241 12.239 10.0346 12.0779C10.1799 11.9329 10.3582 11.7002 10.5201 11.5113C10.6814 11.3224 10.7352 11.1877 10.843 10.9719C10.951 10.756 10.897 10.5671 10.8162 10.4053C10.7352 10.2435 10.1066 8.64383 9.81898 8.00429Z" fill="white"/>
</g>
<defs>
<linearGradient id="paint0_linear_98_1742" x1="1255.42" y1="2522.16" x2="1255.42" y2="0.925781" gradientUnits="userSpaceOnUse">
<stop stop-color="#1FAF38"/>
<stop offset="1" stop-color="#60D669"/>
</linearGradient>
<clipPath id="clip0_98_1742">
<rect width="26" height="26.2031" fill="white" transform="translate(0 0.473633)"/>
</clipPath>
</defs>
</svg>
