<svg width="19" height="20" viewBox="0 0 19 20" fill="none" xmlns="http://www.w3.org/2000/svg">
<path d="M8.1 15.05L15.15 8L13.75 6.6L8.1 12.25L5.25 9.4L3.85 10.8L8.1 15.05ZM2.5 20C1.95 20 1.47933 19.8043 1.088 19.413C0.696667 19.0217 0.500667 18.5507 0.5 18V4C0.5 3.45 0.696 2.97933 1.088 2.588C1.48 2.19667 1.95067 2.00067 2.5 2H6.7C6.91667 1.4 7.27933 0.916667 7.788 0.55C8.29667 0.183333 8.86733 0 9.5 0C10.1327 0 10.7037 0.183333 11.213 0.55C11.7223 0.916667 12.0847 1.4 12.3 2H16.5C17.05 2 17.521 2.196 17.913 2.588C18.305 2.98 18.5007 3.45067 18.5 4V18C18.5 18.55 18.3043 19.021 17.913 19.413C17.5217 19.805 17.0507 20.0007 16.5 20H2.5ZM9.5 3.25C9.71667 3.25 9.896 3.179 10.038 3.037C10.18 2.895 10.2507 2.716 10.25 2.5C10.2493 2.284 10.1783 2.105 10.037 1.963C9.89567 1.821 9.71667 1.75 9.5 1.75C9.28333 1.75 9.10433 1.821 8.963 1.963C8.82167 2.105 8.75067 2.284 8.75 2.5C8.74933 2.716 8.82033 2.89533 8.963 3.038C9.10567 3.18067 9.28467 3.25133 9.5 3.25Z" fill="white"/>
</svg>
