<svg width="48" height="48" viewBox="0 0 48 48" fill="none" xmlns="http://www.w3.org/2000/svg">
<circle cx="24" cy="24" r="24" fill="#F8A14C"/>
<path d="M19.517 12.4301L16.2009 15.7143H19.517V12.4301ZM31.0537 36H16.9516C16.2994 36 15.7666 35.4724 15.7666 34.8264V16.6303C15.7666 16.6126 15.7666 16.5933 15.7682 16.5756H19.9524C20.1925 16.5756 20.3867 16.3822 20.3867 16.1439V12.0016C20.4046 12 20.4241 12 20.442 12H31.0537C31.706 12 32.2372 12.5261 32.2372 13.1736V34.8264C32.2372 35.4724 31.706 36 31.0537 36ZM25.895 32.536C25.895 32.2982 25.6997 32.1043 25.4591 32.1043H18.3825C18.1425 32.1043 17.9466 32.2977 17.9466 32.536C17.9466 32.7737 18.142 32.9661 18.3825 32.9661H25.4591C25.6997 32.9661 25.895 32.7737 25.895 32.536ZM25.895 28.6001C25.895 28.3624 25.6997 28.17 25.4591 28.17H18.3825C18.1425 28.17 17.9466 28.3624 17.9466 28.6001C17.9466 28.8379 18.142 29.0302 18.3825 29.0302H25.4591C25.6997 29.0302 25.895 28.8379 25.895 28.6001ZM25.895 24.6658C25.895 24.428 25.6997 24.2341 25.4591 24.2341H18.3825C18.1425 24.2341 17.9466 24.4275 17.9466 24.6658C17.9466 24.9025 18.142 25.0959 18.3825 25.0959H25.4591C25.6997 25.0959 25.895 24.9025 25.895 24.6658ZM27.5275 20.6517C27.7455 20.4301 27.8871 20.1475 27.9277 19.8493C27.9692 19.5433 27.9082 19.2242 27.7187 18.939C27.6634 18.8535 27.5949 18.7722 27.5128 18.6924C27.2143 18.4056 26.8174 18.3123 26.3951 18.2138C26.0372 18.1309 25.6565 18.0407 25.4433 17.8238C25.3938 17.7737 25.357 17.7117 25.3328 17.6408C25.2985 17.5433 25.2922 17.4322 25.3164 17.3243C25.3386 17.2211 25.3912 17.122 25.4718 17.0448C25.5328 16.9844 25.6149 16.9338 25.7181 16.8999C25.7508 16.8879 25.7839 16.879 25.8166 16.8717C25.9029 16.8493 25.9956 16.8363 26.0866 16.8332H26.0956C26.1061 16.8332 26.1167 16.8332 26.1267 16.8316C26.2772 16.83 26.4294 16.854 26.5668 16.9041C26.7668 16.9765 26.9327 17.1111 27.0027 17.3165C27.01 17.3373 27.0148 17.3566 27.019 17.3754C27.0774 17.6058 27.3117 17.7466 27.5444 17.6903C27.7771 17.6324 27.9187 17.4004 27.8624 17.17C27.8503 17.1241 27.8387 17.0813 27.825 17.0412C27.6592 16.561 27.298 16.2534 26.8668 16.097C26.7579 16.0568 26.6447 16.0276 26.5294 16.0068V15.4645C26.5294 15.2268 26.3357 15.0344 26.0951 15.0344C25.855 15.0344 25.6607 15.2268 25.6607 15.4645V16.0245C25.6428 16.0287 25.6249 16.0318 25.6086 16.0365C25.5491 16.0511 25.4923 16.0678 25.4386 16.0855C25.2085 16.1621 25.0179 16.2821 24.8669 16.4286C24.6563 16.6309 24.5252 16.8806 24.4668 17.1423C24.4099 17.3994 24.4252 17.67 24.5099 17.9166C24.5741 18.1043 24.6784 18.2774 24.8205 18.4234C25.2133 18.8212 25.7202 18.939 26.1977 19.0516C26.4994 19.121 26.7842 19.1877 26.9079 19.3071C26.9395 19.3384 26.9674 19.3738 26.9916 19.4093C27.0601 19.5125 27.0827 19.6267 27.068 19.7357C27.0532 19.8509 26.9948 19.9635 26.9069 20.0532C26.8769 20.0845 26.8411 20.1137 26.7995 20.1403C26.7531 20.17 26.7052 20.195 26.6547 20.2158C26.4367 20.306 26.1698 20.3279 25.9113 20.2586C25.6544 20.1908 25.407 20.0282 25.2233 19.7503C25.1711 19.6721 25.1232 19.585 25.0843 19.4901C24.9916 19.2711 24.7379 19.1663 24.5173 19.2581C24.2951 19.3498 24.1904 19.6011 24.2814 19.8196C24.3441 19.9672 24.4157 20.1017 24.4947 20.2216C24.8005 20.6825 25.2201 20.9578 25.6602 21.0819V21.6674C25.6602 21.9051 25.854 22.0975 26.0945 22.0975C26.3346 22.0975 26.5289 21.9051 26.5289 21.6674V21.1366C26.69 21.1116 26.8437 21.0688 26.9869 21.0094C27.0901 20.9682 27.1869 20.9161 27.2748 20.8603C27.3665 20.8014 27.4517 20.7304 27.5275 20.6517ZM30.0572 32.536C30.0572 32.2982 29.8629 32.1043 29.6228 32.1043H28.1767C27.9366 32.1043 27.7423 32.2977 27.7423 32.536C27.7423 32.7737 27.9366 32.9661 28.1767 32.9661H29.6228C29.8629 32.9661 30.0572 32.7737 30.0572 32.536ZM30.0572 28.6001C30.0572 28.3624 29.8629 28.17 29.6228 28.17H28.1767C27.9366 28.17 27.7423 28.3624 27.7423 28.6001C27.7423 28.8379 27.9366 29.0302 28.1767 29.0302H29.6228C29.8629 29.0302 30.0572 28.8379 30.0572 28.6001ZM30.0572 24.6658C30.0572 24.428 29.8629 24.2341 29.6228 24.2341H28.1767C27.9366 24.2341 27.7423 24.4275 27.7423 24.6658C27.7423 24.9025 27.9366 25.0959 28.1767 25.0959H29.6228C29.8629 25.0959 30.0572 24.9025 30.0572 24.6658Z" fill="white"/>
</svg>
