<svg width="48" height="49" viewBox="0 0 48 49" fill="none" xmlns="http://www.w3.org/2000/svg">
<circle cx="24" cy="24.8438" r="24" fill="#F8A14C"/>
<path d="M35.3483 19.9902H32.0899V34.3273H35.3483C35.7068 34.3273 36 34.034 36 33.6756V20.6419C36 20.2835 35.7068 19.9902 35.3483 19.9902ZM34.6966 31.0689C34.6966 31.4273 34.4034 31.7206 34.045 31.7206C33.6865 31.7206 33.3933 31.4273 33.3933 31.0689V30.4172C33.3933 30.0588 33.6865 29.7655 34.045 29.7655C34.4034 29.7655 34.6966 30.0588 34.6966 30.4172V31.0689ZM34.6966 27.4846C34.6966 27.843 34.4034 28.1363 34.045 28.1363C33.6865 28.1363 33.3933 27.843 33.3933 27.4846V26.8329C33.3933 26.4745 33.6865 26.1812 34.045 26.1812C34.4034 26.1812 34.6966 26.4745 34.6966 26.8329V27.4846ZM34.6966 23.9003C34.6966 24.2588 34.4034 24.552 34.045 24.552C33.6865 24.552 33.3933 24.2588 33.3933 23.9003V23.2487C33.3933 22.8902 33.6865 22.597 34.045 22.597C34.4034 22.597 34.6966 22.8902 34.6966 23.2487V23.9003Z" fill="white"/>
<path d="M11.9996 20.6419V33.6756C11.9996 34.034 12.2929 34.3273 12.6513 34.3273H15.9097V19.9902H12.6513C12.2929 19.9902 11.9996 20.2835 11.9996 20.6419ZM13.303 23.2487C13.303 22.8902 13.5963 22.597 13.9547 22.597C14.3131 22.597 14.6064 22.8902 14.6064 23.2487V23.9003C14.6064 24.2588 14.3131 24.552 13.9547 24.552C13.5963 24.552 13.303 24.2588 13.303 23.9003V23.2487ZM13.303 26.8329C13.303 26.4745 13.5963 26.1812 13.9547 26.1812C14.3131 26.1812 14.6064 26.4745 14.6064 26.8329V27.4846C14.6064 27.843 14.3131 28.1363 13.9547 28.1363C13.5963 28.1363 13.303 27.843 13.303 27.4846V26.8329ZM13.303 30.4172C13.303 30.0588 13.5963 29.7655 13.9547 29.7655C14.3131 29.7655 14.6064 30.0588 14.6064 30.4172V31.0689C14.6064 31.4273 14.3131 31.7206 13.9547 31.7206C13.5963 31.7206 13.303 31.4273 13.303 31.0689V30.4172Z" fill="white"/>
<path d="M30.5166 16.0804H27.9099V14.1253C27.9099 13.7669 27.6166 13.4736 27.2582 13.4736H20.7413C20.3829 13.4736 20.0897 13.7669 20.0897 14.1253V16.0804H17.4829C17.1245 16.0804 16.8312 16.3736 16.8312 16.7321V34.3275H21.393V28.4624C21.393 28.1039 21.6863 27.8107 22.0447 27.8107H25.9548C26.3132 27.8107 26.6065 28.1039 26.6065 28.4624V34.3275H31.1683V16.7321C31.1683 16.3736 30.875 16.0804 30.5166 16.0804ZM21.0672 25.8556H20.4155C20.0571 25.8556 19.7638 25.5624 19.7638 25.204C19.7638 24.8455 20.0571 24.5523 20.4155 24.5523H21.0672C21.4256 24.5523 21.7189 24.8455 21.7189 25.204C21.7189 25.5624 21.4256 25.8556 21.0672 25.8556ZM21.0672 23.2489H20.4155C20.0571 23.2489 19.7638 22.9556 19.7638 22.5972C19.7638 22.2388 20.0571 21.9455 20.4155 21.9455H21.0672C21.4256 21.9455 21.7189 22.2388 21.7189 22.5972C21.7189 22.9556 21.4256 23.2489 21.0672 23.2489ZM21.0672 20.6422H20.4155C20.0571 20.6422 19.7638 20.3489 19.7638 19.9905C19.7638 19.6321 20.0571 19.3388 20.4155 19.3388H21.0672C21.4256 19.3388 21.7189 19.6321 21.7189 19.9905C21.7189 20.3489 21.4256 20.6422 21.0672 20.6422ZM24.3256 25.8556H23.6739C23.3155 25.8556 23.0222 25.5624 23.0222 25.204C23.0222 24.8455 23.3155 24.5523 23.6739 24.5523H24.3256C24.684 24.5523 24.9773 24.8455 24.9773 25.204C24.9773 25.5624 24.684 25.8556 24.3256 25.8556ZM24.3256 23.2489H23.6739C23.3155 23.2489 23.0222 22.9556 23.0222 22.5972C23.0222 22.2388 23.3155 21.9455 23.6739 21.9455H24.3256C24.684 21.9455 24.9773 22.2388 24.9773 22.5972C24.9773 22.9556 24.684 23.2489 24.3256 23.2489ZM24.3256 20.6422H23.6739C23.3155 20.6422 23.0222 20.3489 23.0222 19.9905C23.0222 19.6321 23.3155 19.3388 23.6739 19.3388H24.3256C24.684 19.3388 24.9773 19.6321 24.9773 19.9905C24.9773 20.3489 24.684 20.6422 24.3256 20.6422ZM27.584 25.8556H26.9323C26.5739 25.8556 26.2807 25.5624 26.2807 25.204C26.2807 24.8455 26.5739 24.5523 26.9323 24.5523H27.584C27.9425 24.5523 28.2357 24.8455 28.2357 25.204C28.2357 25.5624 27.9425 25.8556 27.584 25.8556ZM27.584 23.2489H26.9323C26.5739 23.2489 26.2807 22.9556 26.2807 22.5972C26.2807 22.2388 26.5739 21.9455 26.9323 21.9455H27.584C27.9425 21.9455 28.2357 22.2388 28.2357 22.5972C28.2357 22.9556 27.9425 23.2489 27.584 23.2489ZM27.584 20.6422H26.9323C26.5739 20.6422 26.2807 20.3489 26.2807 19.9905C26.2807 19.6321 26.5739 19.3388 26.9323 19.3388H27.584C27.9425 19.3388 28.2357 19.6321 28.2357 19.9905C28.2357 20.3489 27.9425 20.6422 27.584 20.6422Z" fill="white"/>
</svg>
