<svg width="48" height="48" viewBox="0 0 48 48" fill="none" xmlns="http://www.w3.org/2000/svg">
<circle cx="24" cy="24" r="24" fill="#F8A14C"/>
<path d="M21.897 12.69H26.0972C25.885 11.7252 25.0248 11.001 23.9997 11.001C22.9746 11.001 22.1101 11.7252 21.897 12.69Z" fill="white"/>
<path d="M21.3827 13.6182H11.0552V15.0708H36.9452V13.6182H26.6121H21.3827Z" fill="white"/>
<path d="M24 34.0704C25.1305 34.0704 26.0469 33.154 26.0469 32.0235C26.0469 30.893 25.1305 29.9766 24 29.9766C22.8695 29.9766 21.9531 30.893 21.9531 32.0235C21.9531 33.154 22.8695 34.0704 24 34.0704Z" fill="white"/>
<path d="M36.0025 31.5565V16.001H11.9983V31.557H18.0889V31.05C18.0889 30.8156 18.264 30.6178 18.4966 30.5895L19.5518 30.4599C19.6075 30.2988 19.6739 30.1401 19.7501 29.9836L19.0973 29.1433C18.9534 28.9585 18.9706 28.6953 19.1363 28.53L20.1739 27.4956V23.5276C20.1739 23.2709 20.3815 23.0633 20.6382 23.0633H22.849C23.1058 23.0633 23.3133 23.2709 23.3133 23.5276V26.1196H24.687V21.5624C24.687 21.3056 24.8946 21.0981 25.1513 21.0981H27.3621C27.6188 21.0981 27.8264 21.3056 27.8264 21.5624V27.4947L28.8682 28.5295C29.0348 28.6948 29.0516 28.9595 28.9067 29.1442L28.2498 29.9855C28.3273 30.1447 28.3932 30.3026 28.448 30.4595L29.5037 30.589C29.7363 30.6178 29.9114 30.8151 29.9114 31.0496V31.5565H36.0025Z" fill="white"/>
<path d="M27.6429 33.0466C27.6912 32.8628 27.8458 32.7267 28.0343 32.7031L28.9828 32.5833V31.4612L28.0357 31.3446C27.8467 31.3214 27.6912 31.1854 27.6429 31.0011C27.5719 30.7281 27.4581 30.4542 27.2942 30.1636C27.2028 30.0001 27.2181 29.7977 27.3332 29.6505L27.9214 28.898L27.1211 28.1032L26.3713 28.6886C26.2222 28.8056 26.017 28.8195 25.8536 28.7248C25.6015 28.5795 25.3197 28.462 25.0161 28.3766C25.0082 28.3743 25.0017 28.3692 24.9938 28.3669C24.9762 28.3604 24.9604 28.3529 24.9441 28.3446C24.9019 28.3246 24.8643 28.2991 24.8304 28.268C24.8271 28.2647 24.8234 28.2624 24.8202 28.2592C24.7464 28.1872 24.6944 28.0939 24.6814 27.9871L24.5653 27.0488H23.4358L23.3234 27.9857C23.3034 28.1501 23.1957 28.2852 23.0472 28.3506C23.0356 28.3562 23.0249 28.3613 23.0128 28.3659C23.0035 28.3692 22.9956 28.3752 22.9863 28.378C22.6823 28.4625 22.3995 28.5795 22.146 28.7257C21.9821 28.82 21.7774 28.8065 21.6284 28.6895L20.8791 28.1046L20.0819 28.8989L20.6674 29.6524C20.783 29.8014 20.7969 30.0057 20.7026 30.1691C20.5466 30.4389 20.4306 30.7193 20.3568 31.002C20.3085 31.1863 20.1534 31.3224 19.964 31.3456L19.0169 31.4621V32.5842L19.9654 32.704C20.1539 32.7277 20.3085 32.8642 20.3568 33.0476C20.4315 33.334 20.5443 33.6065 20.7026 33.8804C20.7969 34.0443 20.783 34.2491 20.6664 34.3981L20.0819 35.1469L20.8795 35.9445L21.6284 35.36C21.7756 35.2449 21.978 35.2296 22.1414 35.321C22.4009 35.4668 22.685 35.5834 22.9859 35.6669C23.1674 35.7175 23.3002 35.8721 23.3229 36.0592L23.4358 37.0003H24.5644L24.6809 36.0578C24.7036 35.8721 24.8355 35.7185 25.0156 35.6674C25.3155 35.5829 25.5992 35.4664 25.8573 35.321C26.0217 35.2296 26.2232 35.2449 26.3703 35.36L27.1197 35.945L27.9201 35.1474L27.3328 34.399C27.2172 34.2514 27.2018 34.0485 27.2933 33.8851C27.4572 33.5945 27.5709 33.3201 27.642 33.0476L27.6429 33.0466ZM24.0003 34.9988C22.3596 34.9988 21.0248 33.6641 21.0248 32.0234C21.0248 30.3827 22.3596 29.0479 24.0003 29.0479C25.641 29.0479 26.9757 30.3827 26.9757 32.0234C26.9757 33.6641 25.641 34.9988 24.0003 34.9988Z" fill="white"/>
<path d="M26.873 27.1198C26.8804 27.1137 26.8902 27.1124 26.8981 27.1068V22.0264H25.6158V27.597C25.7602 27.65 25.9018 27.7066 26.0369 27.7721L26.873 27.1198Z" fill="white"/>
<path d="M22.3848 27.5976V23.9912H21.1025V27.1059C21.1104 27.1115 21.1197 27.1129 21.1276 27.1189L21.9637 27.7712C22.0988 27.7058 22.2404 27.6501 22.3848 27.5976Z" fill="white"/>
</svg>
