<svg width="48" height="48" viewBox="0 0 48 48" fill="none" xmlns="http://www.w3.org/2000/svg">
<circle cx="24" cy="24" r="24" fill="#F8A14C"/>
<path d="M22.3085 15.2314L22.435 14.7513C22.6526 13.9271 23.3338 13.3111 24.1722 13.1587C24.7135 13.0613 25.2533 13.0079 25.7923 13C26.3321 13.0079 26.8719 13.0613 27.4124 13.1595C28.2508 13.3119 28.932 13.9279 29.1496 14.7521L29.2761 15.2322C29.5189 16.1523 28.8259 17.0527 27.8744 17.0527H23.7102C22.7587 17.0527 22.0657 16.1515 22.3085 15.2314Z" fill="white"/>
<path d="M31.6126 15.4902H30.7342C30.7617 16.1542 30.5606 16.8079 30.1441 17.3492C29.5981 18.0587 28.7699 18.4657 27.8742 18.4657H23.7092C22.8135 18.4657 21.9862 18.0587 21.4393 17.3492C21.0229 16.8079 20.8217 16.1542 20.8492 15.4902H19.9763C18.3735 15.4902 17.0692 16.7945 17.0692 18.3973V26.4155H17.0708C19.827 26.4155 22.0694 28.6579 22.0694 31.4141C22.0694 32.082 21.9351 32.7192 21.6962 33.3022H31.6126C33.2155 33.3022 34.5119 32.0058 34.5119 30.4029V18.3895C34.5119 16.7866 33.2155 15.4902 31.6126 15.4902ZM21.9406 26.7502H21.5328C21.1423 26.7502 20.8257 26.4335 20.8257 26.043C20.8257 25.6526 21.1423 25.3359 21.5328 25.3359H21.9406C22.3311 25.3359 22.6477 25.6526 22.6477 26.043C22.6477 26.4335 22.3311 26.7502 21.9406 26.7502ZM21.9406 23.4581H21.5328C21.1423 23.4581 20.8257 23.1414 20.8257 22.7509C20.8257 22.3604 21.1423 22.0438 21.5328 22.0438H21.9406C22.3311 22.0438 22.6477 22.3604 22.6477 22.7509C22.6477 23.1414 22.3311 23.4581 21.9406 23.4581ZM30.0522 26.7502H24.5798C24.1893 26.7502 23.8726 26.4335 23.8726 26.043C23.8726 25.6526 24.1893 25.3359 24.5798 25.3359H30.0522C30.4427 25.3359 30.7593 25.6526 30.7593 26.043C30.7593 26.4335 30.4427 26.7502 30.0522 26.7502ZM30.0522 23.4581H24.5798C24.1893 23.4581 23.8726 23.1414 23.8726 22.7509C23.8726 22.3604 24.1893 22.0438 24.5798 22.0438H30.0522C30.4427 22.0438 30.7593 22.3604 30.7593 22.7509C30.7593 23.1414 30.4427 23.4581 30.0522 23.4581Z" fill="white"/>
<path d="M17.07 27.8301C15.0901 27.8301 13.4849 29.4353 13.4849 31.4153C13.4849 33.3952 15.0901 35.0004 17.07 35.0004C19.05 35.0004 20.6552 33.3952 20.6552 31.4153C20.6552 29.4353 19.05 27.8301 17.07 27.8301ZM18.7326 31.3548L16.9828 32.7651C16.8571 32.8665 16.7 32.9215 16.5397 32.9215C16.513 32.9215 16.4863 32.9199 16.4595 32.9167C16.2718 32.8955 16.0997 32.7997 15.9834 32.6512L15.2951 31.7743C15.0539 31.4671 15.1081 31.0224 15.4146 30.7812C15.7226 30.5384 16.1665 30.5942 16.4077 30.9006L16.6536 31.2141L17.8455 30.254C18.1504 30.0088 18.5943 30.0576 18.8402 30.3608C19.0846 30.6649 19.0374 31.1096 18.7326 31.3548Z" fill="white"/>
</svg>
