<svg width="29" height="29" viewBox="0 0 29 29" fill="none" xmlns="http://www.w3.org/2000/svg">
<g clip-path="url(#clip0_368_2844)">
<path d="M9.95477 28.9973C9.49561 28.9973 9.03765 28.9091 8.60627 28.7303C7.70727 28.3569 6.99557 27.6223 6.65482 26.7112L5.73648 24.2655C5.56248 23.8027 5.19757 23.4366 4.73477 23.2638L2.2879 22.3455C1.37802 22.0047 0.642149 21.293 0.269982 20.3952C-0.102184 19.4962 -0.0852675 18.4727 0.318316 17.587L1.39977 15.2078C1.60398 14.7583 1.60398 14.2412 1.39977 13.7917L0.317107 11.4125C-0.0852675 10.5267 -0.103393 9.50329 0.268774 8.60429C0.642149 7.7065 1.37802 6.99479 2.28911 6.65404L4.73477 5.73571C5.19877 5.56171 5.56369 5.19679 5.73769 4.734L6.65602 2.28833C6.99677 1.37725 7.70727 0.641374 8.60627 0.269207C9.50407 -0.102959 10.5275 -0.0860428 11.4132 0.317541L13.7912 1.39779C14.2407 1.602 14.7567 1.602 15.2074 1.39779L17.5866 0.317541C18.4711 -0.0860428 19.4946 -0.101751 20.3936 0.269207C21.2926 0.642582 22.0043 1.37725 22.345 2.28833L23.2634 4.734C23.4374 5.19679 23.8023 5.56292 24.2651 5.73571L26.7119 6.65404C27.6218 6.99479 28.3577 7.7065 28.7299 8.60429C29.102 9.50329 29.0851 10.5267 28.6815 11.4125L27.6001 13.7917C27.3959 14.2412 27.3959 14.7583 27.6001 15.2078L28.6815 17.587C29.0851 18.4727 29.102 19.4962 28.7299 20.3952C28.3577 21.293 27.6218 22.0047 26.7107 22.3455L24.2651 23.2638C23.8011 23.4378 23.4361 23.8027 23.2621 24.2655L22.3438 26.7112C22.0019 27.6223 21.2914 28.3569 20.3924 28.7303C19.4946 29.1037 18.4711 29.0843 17.5854 28.682L15.2074 27.6005C14.7567 27.3975 14.2407 27.3975 13.79 27.6005L11.4108 28.682C10.9516 28.8922 10.4526 28.9973 9.95477 28.9973Z" fill="#263238"/>
<path d="M20.7379 20.5419H8.26068C7.81964 20.5419 7.44264 20.2242 7.36772 19.7892L6.05426 12.1368C5.99626 11.8021 6.1316 11.4625 6.40347 11.2583C6.67535 11.0529 7.03785 11.0203 7.34476 11.1689L10.8417 12.8714L13.7078 7.71548C14.0268 7.13911 14.973 7.13911 15.292 7.71548L18.1581 12.8714L21.6551 11.1689C21.962 11.0203 22.3245 11.0529 22.5963 11.2583C22.8682 11.4625 23.0023 11.8009 22.9456 12.1368L21.6321 19.7892C21.556 20.2242 21.179 20.5419 20.7379 20.5419Z" fill="white"/>
<path d="M9.95279 0.00195312C9.49362 0.00195312 9.03446 0.0913698 8.6055 0.268995C7.7065 0.641162 6.996 1.37704 6.65404 2.28812L5.73571 4.73379C5.56171 5.19658 5.19679 5.5627 4.73279 5.7355L2.28712 6.65383C1.37725 6.99458 0.641374 7.70629 0.269207 8.60408C-0.102959 9.50308 -0.0860428 10.5265 0.317541 11.4122L1.399 13.7915C1.60321 14.241 1.60321 14.7581 1.399 15.2076L0.317541 17.5868C-0.0848344 18.4725 -0.102959 19.496 0.269207 20.395C0.641374 21.2928 1.37725 22.0045 2.28712 22.3452L4.734 23.2636C5.19679 23.4376 5.56292 23.8025 5.73571 24.2653L6.65404 26.711C6.996 27.622 7.7065 28.3567 8.6055 28.7301C9.03566 28.9077 9.49483 28.9971 9.954 28.9971C10.453 28.9971 10.9521 28.892 11.4125 28.6817L13.7917 27.6003C14.0164 27.5 14.2581 27.4492 14.4997 27.4492V20.5412H8.26112C7.82008 20.5412 7.44308 20.2234 7.36817 19.7884L6.05471 12.136C5.99671 11.8013 6.13204 11.4618 6.40391 11.2576C6.56342 11.1367 6.75433 11.0763 6.94646 11.0763C7.08179 11.0763 7.21833 11.1065 7.34521 11.1682L10.8421 12.8707L13.7083 7.71475C13.8678 7.42716 14.1832 7.28337 14.4997 7.28337V1.54983H14.4985C14.2569 1.54983 14.0152 1.49908 13.7905 1.39637L11.4125 0.317328C10.9509 0.107078 10.4518 0.00195312 9.95279 0.00195312Z" fill="#263238"/>
<path d="M14.4989 7.2832C14.1823 7.2832 13.8669 7.427 13.7074 7.71458L10.8413 12.8705L7.34437 11.168C7.21749 11.1064 7.08095 11.0762 6.94562 11.0762C6.75349 11.0762 6.56257 11.1378 6.40307 11.2574C6.1312 11.4616 5.99707 11.8 6.05387 12.1359L7.36732 19.7882C7.44224 20.2232 7.81924 20.541 8.26028 20.541H14.4989V7.2832Z" fill="white"/>
</g>
<defs>
<clipPath id="clip0_368_2844">
<rect width="29" height="29" fill="white"/>
</clipPath>
</defs>
</svg>
