<svg width="56" height="56" viewBox="0 0 56 56" fill="none" xmlns="http://www.w3.org/2000/svg">
<circle cx="28" cy="28" r="28" fill="#F8A14C"/>
<path d="M41.2385 22.3379H37.437V39.0645H41.2385C41.6567 39.0645 41.9988 38.7223 41.9988 38.3042V23.0982C41.9988 22.68 41.6567 22.3379 41.2385 22.3379ZM40.4782 35.263C40.4782 35.6811 40.1361 36.0233 39.7179 36.0233C39.2997 36.0233 38.9576 35.6811 38.9576 35.263V34.5027C38.9576 34.0845 39.2997 33.7424 39.7179 33.7424C40.1361 33.7424 40.4782 34.0845 40.4782 34.5027V35.263ZM40.4782 31.0813C40.4782 31.4995 40.1361 31.8416 39.7179 31.8416C39.2997 31.8416 38.9576 31.4995 38.9576 31.0813V30.321C38.9576 29.9029 39.2997 29.5607 39.7179 29.5607C40.1361 29.5607 40.4782 29.9029 40.4782 30.321V31.0813ZM40.4782 26.8997C40.4782 27.3178 40.1361 27.66 39.7179 27.66C39.2997 27.66 38.9576 27.3178 38.9576 26.8997V26.1394C38.9576 25.7212 39.2997 25.3791 39.7179 25.3791C40.1361 25.3791 40.4782 25.7212 40.4782 26.1394V26.8997Z" fill="white"/>
<path d="M13.998 23.0982V38.3042C13.998 38.7223 14.3402 39.0645 14.7583 39.0645H18.5598V22.3379H14.7583C14.3402 22.3379 13.998 22.68 13.998 23.0982ZM15.5186 26.1394C15.5186 25.7212 15.8608 25.3791 16.2789 25.3791C16.6971 25.3791 17.0392 25.7212 17.0392 26.1394V26.8997C17.0392 27.3178 16.6971 27.66 16.2789 27.66C15.8608 27.66 15.5186 27.3178 15.5186 26.8997V26.1394ZM15.5186 30.321C15.5186 29.9029 15.8608 29.5607 16.2789 29.5607C16.6971 29.5607 17.0392 29.9029 17.0392 30.321V31.0813C17.0392 31.4995 16.6971 31.8416 16.2789 31.8416C15.8608 31.8416 15.5186 31.4995 15.5186 31.0813V30.321ZM15.5186 34.5027C15.5186 34.0845 15.8608 33.7424 16.2789 33.7424C16.6971 33.7424 17.0392 34.0845 17.0392 34.5027V35.263C17.0392 35.6811 16.6971 36.0233 16.2789 36.0233C15.8608 36.0233 15.5186 35.6811 15.5186 35.263V34.5027Z" fill="white"/>
<path d="M35.6035 17.7765H32.5623V15.4956C32.5623 15.0775 32.2201 14.7354 31.802 14.7354H24.199C23.7808 14.7354 23.4387 15.0775 23.4387 15.4956V17.7765H20.3975C19.9793 17.7765 19.6372 18.1187 19.6372 18.5368V39.0649H24.9593V32.2222C24.9593 31.8041 25.3014 31.4619 25.7196 31.4619H30.2814C30.6995 31.4619 31.0417 31.8041 31.0417 32.2222V39.0649H36.3638V18.5368C36.3638 18.1187 36.0216 17.7765 35.6035 17.7765ZM24.5791 29.181H23.8188C23.4007 29.181 23.0585 28.8389 23.0585 28.4207C23.0585 28.0026 23.4007 27.6604 23.8188 27.6604H24.5791C24.9973 27.6604 25.3394 28.0026 25.3394 28.4207C25.3394 28.8389 24.9973 29.181 24.5791 29.181ZM24.5791 26.1398H23.8188C23.4007 26.1398 23.0585 25.7977 23.0585 25.3795C23.0585 24.9614 23.4007 24.6192 23.8188 24.6192H24.5791C24.9973 24.6192 25.3394 24.9614 25.3394 25.3795C25.3394 25.7977 24.9973 26.1398 24.5791 26.1398ZM24.5791 23.0986H23.8188C23.4007 23.0986 23.0585 22.7565 23.0585 22.3383C23.0585 21.9202 23.4007 21.578 23.8188 21.578H24.5791C24.9973 21.578 25.3394 21.9202 25.3394 22.3383C25.3394 22.7565 24.9973 23.0986 24.5791 23.0986ZM28.3806 29.181H27.6203C27.2022 29.181 26.86 28.8389 26.86 28.4207C26.86 28.0026 27.2022 27.6604 27.6203 27.6604H28.3806C28.7988 27.6604 29.1409 28.0026 29.1409 28.4207C29.1409 28.8389 28.7988 29.181 28.3806 29.181ZM28.3806 26.1398H27.6203C27.2022 26.1398 26.86 25.7977 26.86 25.3795C26.86 24.9614 27.2022 24.6192 27.6203 24.6192H28.3806C28.7988 24.6192 29.1409 24.9614 29.1409 25.3795C29.1409 25.7977 28.7988 26.1398 28.3806 26.1398ZM28.3806 23.0986H27.6203C27.2022 23.0986 26.86 22.7565 26.86 22.3383C26.86 21.9202 27.2022 21.578 27.6203 21.578H28.3806C28.7988 21.578 29.1409 21.9202 29.1409 22.3383C29.1409 22.7565 28.7988 23.0986 28.3806 23.0986ZM32.1821 29.181H31.4218C31.0037 29.181 30.6615 28.8389 30.6615 28.4207C30.6615 28.0026 31.0037 27.6604 31.4218 27.6604H32.1821C32.6003 27.6604 32.9424 28.0026 32.9424 28.4207C32.9424 28.8389 32.6003 29.181 32.1821 29.181ZM32.1821 26.1398H31.4218C31.0037 26.1398 30.6615 25.7977 30.6615 25.3795C30.6615 24.9614 31.0037 24.6192 31.4218 24.6192H32.1821C32.6003 24.6192 32.9424 24.9614 32.9424 25.3795C32.9424 25.7977 32.6003 26.1398 32.1821 26.1398ZM32.1821 23.0986H31.4218C31.0037 23.0986 30.6615 22.7565 30.6615 22.3383C30.6615 21.9202 31.0037 21.578 31.4218 21.578H32.1821C32.6003 21.578 32.9424 21.9202 32.9424 22.3383C32.9424 22.7565 32.6003 23.0986 32.1821 23.0986Z" fill="white"/>
</svg>
