<svg width="21" height="21" viewBox="0 0 21 21" fill="none" xmlns="http://www.w3.org/2000/svg">
<path d="M20.7215 4.52659L16.9112 0.80511C16.6583 0.558209 16.2542 0.558209 16.0013 0.80511L13.6659 3.08608L1.6938 14.7792C1.57087 14.8661 1.47894 14.9933 1.43922 15.1433L0.103791 20.1823C0.0446701 20.4053 0.107958 20.6429 0.270084 20.8069C0.393926 20.9322 0.561261 21.0002 0.733154 21.0002C0.786284 21.0002 0.839936 20.9937 0.892806 20.9804L6.05207 19.6761C6.20079 19.6385 6.32788 19.55 6.41591 19.4305L18.3862 7.73917L20.7216 5.45807C20.847 5.33553 20.9177 5.16768 20.9177 4.99227C20.9177 4.81686 20.847 4.649 20.7216 4.52646L20.7215 4.52659ZM5.88565 18.1282L3.00722 15.3168L14.1208 4.462L16.9992 7.2735L5.88565 18.1282ZM2.41198 16.556L4.6057 18.6987L1.64575 19.447L2.41198 16.556ZM17.9312 6.36338L15.0528 3.55188L16.4563 2.18117L19.3347 4.99253L17.9312 6.36338Z" fill="#323334"/>
<path d="M1.56076 6.33681C1.75492 6.29149 1.95676 6.26871 2.16056 6.26871C3.35795 6.26871 4.41262 7.07465 4.72242 8.21722L4.73231 8.25589C4.73648 8.2723 4.74091 8.28884 4.74481 8.30525C4.74651 8.31293 4.74833 8.32048 4.75002 8.32817C4.81956 8.62924 5.0873 8.83304 5.38394 8.83304C5.43121 8.83304 5.47927 8.82783 5.52732 8.81702C5.87683 8.7385 6.09717 8.3925 6.0206 8.04272C6.01878 8.03426 6.01682 8.02553 6.01487 8.01694C5.70377 6.62551 6.53472 5.24855 7.91963 4.87468C7.94736 4.86687 7.97575 4.85996 8.00375 4.85306L8.02498 4.84785C8.37202 4.76126 8.58415 4.41096 8.50016 4.0634C8.41616 3.7157 8.06782 3.50149 7.71935 3.5821C7.52519 3.62741 7.32334 3.6502 7.11954 3.6502C5.92293 3.6502 4.86866 2.84426 4.55795 1.69778L4.52604 1.57446C4.43684 1.2295 4.08667 1.0205 3.7408 1.10488C3.39467 1.18953 3.18098 1.53683 3.26133 1.88413C3.58467 3.28128 2.75268 4.66867 1.36061 5.04449C1.33287 5.0523 1.30448 5.0592 1.27648 5.0661L1.25526 5.07131C0.908214 5.15791 0.696082 5.50821 0.780075 5.85577C0.863938 6.20346 1.2128 6.41807 1.56089 6.33707L1.56076 6.33681ZM4.38944 3.8583C4.77633 4.2263 5.23588 4.51514 5.7401 4.70331C5.36728 5.09293 5.07831 5.55522 4.89145 6.06022C4.50443 5.69221 4.045 5.40351 3.54052 5.21534C3.91361 4.82558 4.20244 4.3633 4.38944 3.8583Z" fill="#323334"/>
<path d="M19.4391 15.2833C19.2449 15.3286 19.0431 15.3514 18.8393 15.3514C17.6427 15.3514 16.5884 14.5455 16.2777 13.399L16.2458 13.2757C16.1567 12.9307 15.8064 12.7219 15.4605 12.8061C15.1144 12.8908 14.9007 13.2381 14.9811 13.5854C15.3044 14.9825 14.4724 16.3699 13.0803 16.7457C13.0526 16.7535 13.0242 16.7604 12.9962 16.7673L12.975 16.7726C12.6279 16.8591 12.4158 17.2094 12.4998 17.557C12.5838 17.9047 12.9323 18.1192 13.2806 18.0383C13.475 17.993 13.6769 17.9701 13.8804 17.9701C15.0778 17.9701 16.1325 18.776 16.4423 19.9187L16.4522 19.9574C16.4563 19.9738 16.4608 19.9903 16.4647 20.0067C16.4664 20.0144 16.4682 20.022 16.4699 20.0297C16.5394 20.3307 16.8072 20.5345 17.1038 20.5345C17.1511 20.5345 17.1991 20.5293 17.2472 20.5185C17.5967 20.44 17.817 20.094 17.7405 19.7442C17.7386 19.7358 17.7367 19.727 17.7347 19.7184C17.4236 18.327 18.2546 16.95 19.6395 16.5762C19.6672 16.5684 19.6956 16.5615 19.7236 16.5546L19.7448 16.5493C20.0919 16.4628 20.304 16.1125 20.22 15.7649C20.1362 15.4172 19.7875 15.2029 19.4392 15.2836L19.4391 15.2833ZM16.6112 17.7616C16.2242 17.3937 15.7647 17.105 15.2604 16.9168C15.6333 16.5271 15.9223 16.0648 16.1092 15.5598C16.4961 15.9278 16.9556 16.2166 17.4598 16.4048C17.087 16.7944 16.798 17.2567 16.6112 17.7616Z" fill="#323334"/>
</svg>
