<svg width="25" height="25" viewBox="0 0 25 25" fill="none" xmlns="http://www.w3.org/2000/svg">
<path d="M18.9161 24.6548H1.14881C0.876377 24.6548 0.655273 24.4337 0.655273 24.1613C0.655273 23.8889 0.876377 23.6678 1.14881 23.6678H18.9161C19.1885 23.6678 19.4096 23.8889 19.4096 24.1613C19.4096 24.4337 19.1885 24.6548 18.9161 24.6548Z" fill="black"/>
<path d="M12.0066 24.6549H1.14881C0.876377 24.6549 0.655273 24.4338 0.655273 24.1614V6.39415C0.655273 5.57784 1.31957 4.91354 2.13588 4.91354H10.1608C10.4332 4.91354 10.6543 5.13465 10.6543 5.40708C10.6543 5.67951 10.4332 5.90061 10.1608 5.90061H2.13588C1.86443 5.90061 1.64234 6.12172 1.64234 6.39415V23.6679H11.513V14.3795C11.513 14.1071 11.7341 13.886 12.0066 13.886C12.279 13.886 12.5001 14.1071 12.5001 14.3795V24.1614C12.5001 24.4338 12.279 24.6549 12.0066 24.6549Z" fill="black"/>
<path d="M10.0319 5.90056H3.12244C2.85001 5.90056 2.62891 5.67945 2.62891 5.40702V4.41995C2.62891 3.60364 3.2932 2.93935 4.10951 2.93935H9.04486C9.86117 2.93935 10.5255 3.60364 10.5255 4.41995V5.40702C10.5255 5.67945 10.3044 5.90056 10.0319 5.90056ZM3.61598 4.91349H9.5384V4.41995C9.5384 4.14752 9.31631 3.92642 9.04486 3.92642H4.10951C3.83807 3.92642 3.61598 4.14752 3.61598 4.41995V4.91349Z" fill="black"/>
<path d="M6.5785 3.92636C6.30606 3.92636 6.08496 3.70526 6.08496 3.43282V1.45868C6.08496 1.18625 6.30606 0.965149 6.5785 0.965149C6.85093 0.965149 7.07203 1.18625 7.07203 1.45868V3.43282C7.07203 3.70526 6.85093 3.92636 6.5785 3.92636Z" fill="black"/>
<path d="M15.4613 24.6547C15.1889 24.6547 14.9678 24.4336 14.9678 24.1612V19.2308C14.9678 18.9583 15.1889 18.7372 15.4613 18.7372C15.7337 18.7372 15.9548 18.9583 15.9548 19.2308V24.1612C15.9548 24.4336 15.7337 24.6547 15.4613 24.6547Z" fill="black"/>
<path d="M15.4614 19.7244C14.3727 19.7244 13.4873 18.839 13.4873 17.7503C13.4873 16.6616 14.3727 15.7762 15.4614 15.7762C16.5502 15.7762 17.4356 16.6616 17.4356 17.7503C17.4356 18.839 16.5502 19.7244 15.4614 19.7244ZM15.4614 16.7632C14.9166 16.7632 14.4744 17.2064 14.4744 17.7503C14.4744 18.2942 14.9166 18.7374 15.4614 18.7374C16.0063 18.7374 16.4485 18.2942 16.4485 17.7503C16.4485 17.2064 16.0063 16.7632 15.4614 16.7632Z" fill="black"/>
<path d="M8.05826 24.6549H5.09705C4.82462 24.6549 4.60352 24.4338 4.60352 24.1614V19.226C4.60352 18.9536 4.82462 18.7325 5.09705 18.7325H8.05826C8.33069 18.7325 8.5518 18.9536 8.5518 19.226V24.1614C8.5518 24.4338 8.33069 24.6549 8.05826 24.6549ZM5.59059 23.6678H7.56473V19.7196H5.59059V23.6678Z" fill="black"/>
<path d="M7.56473 16.7584H5.59059C5.04572 16.7584 4.60352 16.3152 4.60352 15.7713V13.7972C4.60352 13.2533 5.04572 12.8101 5.59059 12.8101H7.56473C8.10959 12.8101 8.5518 13.2533 8.5518 13.7972V15.7713C8.5518 16.3152 8.10959 16.7584 7.56473 16.7584ZM5.59059 13.7972V15.7713H7.56473V13.7972H5.59059Z" fill="black"/>
<path d="M7.56473 11.8229H5.59059C5.04572 11.8229 4.60352 11.3797 4.60352 10.8358V8.86169C4.60352 8.31781 5.04572 7.87462 5.59059 7.87462H7.56473C8.10959 7.87462 8.5518 8.31781 8.5518 8.86169V10.8358C8.5518 11.3797 8.10959 11.8229 7.56473 11.8229ZM5.59059 8.86169V10.8358H7.56473V8.86169H5.59059Z" fill="black"/>
<path d="M18.4228 10.8357C17.0616 10.8357 15.9551 9.72823 15.9551 8.36805C15.9551 7.00787 17.0616 5.90038 18.4228 5.90038C19.7839 5.90038 20.8904 7.00787 20.8904 8.36805C20.8904 9.72823 19.7839 10.8357 18.4228 10.8357ZM18.4228 6.88745C17.6064 6.88745 16.9421 7.55174 16.9421 8.36805C16.9421 9.18436 17.6064 9.84866 18.4228 9.84866C19.2391 9.84866 19.9034 9.18436 19.9034 8.36805C19.9034 7.55174 19.2391 6.88745 18.4228 6.88745Z" fill="black"/>
<path d="M19.1857 14.7842H17.6567C17.1533 14.7842 16.7368 14.4012 16.6884 13.8929L16.567 12.6373C16.2798 12.5051 16.0064 12.3412 15.7487 12.1477L14.6422 12.662C14.1773 12.8762 13.6423 12.6995 13.3916 12.2533L12.6266 10.8892C12.3818 10.4529 12.4983 9.90018 12.8981 9.60307L13.8852 8.87263C13.8664 8.71865 13.8526 8.5469 13.8526 8.36725C13.8526 8.18761 13.8674 8.01586 13.8852 7.86187L12.8981 7.13144C12.4983 6.83433 12.3818 6.28158 12.6276 5.84529L13.3906 4.48215C13.6423 4.035 14.1793 3.85931 14.6412 4.07251L15.7487 4.58678C16.0064 4.39331 16.2798 4.22946 16.567 4.09818L16.6884 2.84065C16.7378 2.33527 17.1543 1.95229 17.6577 1.95229H19.1867C19.6901 1.95229 20.1067 2.33527 20.155 2.84361L20.2764 4.10015C20.5637 4.23242 20.8371 4.39528 21.0947 4.58875L22.2012 4.07449C22.6661 3.86128 23.2021 4.03698 23.4518 4.48412L24.2168 5.84726C24.4616 6.28355 24.3451 6.83631 23.9454 7.13342L22.9583 7.86385C22.9771 8.01783 22.9909 8.18958 22.9909 8.36923C22.9909 8.54888 22.9761 8.72063 22.9583 8.87461L23.9454 9.60504C24.3451 9.90215 24.4616 10.4539 24.2158 10.8912L23.4528 12.2543C23.1991 12.7015 22.6632 12.8772 22.2022 12.664L21.0947 12.1497C20.8371 12.3432 20.5637 12.507 20.2764 12.6393L20.155 13.8958C20.1057 14.4012 19.6891 14.7842 19.1857 14.7842ZM15.8188 11.0777C15.9353 11.0777 16.0498 11.1192 16.1416 11.1982C16.4624 11.4755 16.8207 11.6897 17.2027 11.8348C17.3794 11.901 17.5028 12.0619 17.5205 12.2484L17.6706 13.7991L19.1857 13.7971L19.3219 12.2484C19.3407 12.0619 19.4641 11.9 19.6398 11.8348C20.0228 11.6907 20.3801 11.4765 20.7009 11.1982C20.847 11.0699 21.0542 11.0412 21.2319 11.1232L22.6168 11.7667L23.3541 10.4065L22.1311 9.49054C21.9821 9.37999 21.9071 9.19442 21.9387 9.01082C21.9752 8.80157 22.0028 8.58935 22.0028 8.36923C22.0028 8.14911 21.9752 7.93689 21.9387 7.72763C21.9081 7.54404 21.9821 7.35847 22.1311 7.24792L23.3571 6.33981L22.5911 4.9668L21.2329 5.61333C21.0562 5.69526 20.8479 5.66564 20.7019 5.53831C20.3811 5.25996 20.0228 5.04675 19.6408 4.90264C19.4641 4.8365 19.3407 4.67561 19.3229 4.48807L19.1719 2.93837L17.6577 2.93936L17.5215 4.48906C17.5028 4.6766 17.3794 4.83749 17.2037 4.90363C16.8217 5.04675 16.4644 5.26094 16.1426 5.5393C15.9955 5.66564 15.7882 5.69427 15.6115 5.61333L14.2267 4.96976L13.4893 6.32994L14.7123 7.24594C14.8614 7.35649 14.9364 7.54206 14.9048 7.72566C14.8683 7.93492 14.8406 8.14813 14.8406 8.36725C14.8406 8.58737 14.8683 8.79959 14.9048 9.00885C14.9354 9.19245 14.8614 9.37801 14.7123 9.48857L13.4864 10.3967L14.2523 11.7697L15.6106 11.1232C15.6777 11.0926 15.7487 11.0777 15.8188 11.0777Z" fill="black"/>
</svg>
