<svg width="21" height="21" viewBox="0 0 21 21" fill="none" xmlns="http://www.w3.org/2000/svg">
<path d="M-0.00335693 18.9874C-0.00335693 20.0977 0.899279 21.0004 2.00962 21.0004H14.5534C15.6637 21.0004 16.5663 20.0977 16.5663 18.9874V11.3723H18.9905C20.1008 11.3723 21.0034 10.4696 21.0034 9.35927V3.71438C21.0034 2.00826 19.6153 0.620117 17.9092 0.620117H3.09005C1.38393 0.620117 -0.00335693 2.00826 -0.00335693 3.71438V18.9874ZM19.2529 3.71438V9.35927C19.2529 9.50373 19.1349 9.62169 18.9905 9.62169H16.5663V3.71438C16.5663 2.94354 17.2036 2.37068 17.9092 2.37068C18.6503 2.37068 19.2529 2.9733 19.2529 3.71438ZM1.74721 3.71438C1.74721 2.9733 2.34982 2.37068 3.09005 2.37068H15.1235C14.9546 2.71976 14.8158 3.24414 14.8158 3.71438V18.9874C14.8158 19.1318 14.6978 19.2498 14.5534 19.2498H2.00962C1.86517 19.2498 1.74721 19.1318 1.74721 18.9874V3.71438Z" fill="#323334"/>
<path d="M4.72082 12.9212V15.5505C4.72082 16.0343 5.1123 16.4258 5.5961 16.4258H6.62012C7.10391 16.4258 7.4954 16.0343 7.4954 15.5505C7.4954 15.0667 7.10391 14.6752 6.62012 14.6752H6.47139V12.5878C6.47139 12.3733 6.39275 12.1656 6.24915 12.0049L5.1841 10.8108L6.24915 9.61666C6.39275 9.45597 6.47139 9.24826 6.47139 9.03371V6.94637H6.62012C7.10391 6.94637 7.4954 6.55488 7.4954 6.07108C7.4954 5.58728 7.10391 5.1958 6.62012 5.1958H5.5961C5.1123 5.1958 4.72082 5.58728 4.72082 6.07108V8.70035L3.35832 10.2278C3.06171 10.5603 3.06171 11.0612 3.35832 11.3937L4.72082 12.9212Z" fill="#323334"/>
<path d="M10.0913 12.5878V14.6752H9.9426C9.45881 14.6752 9.06732 15.0667 9.06732 15.5505C9.06732 16.0343 9.45881 16.4258 9.9426 16.4258H10.9666C11.4504 16.4258 11.8419 16.0343 11.8419 15.5505V12.9212L13.2044 11.3937C13.501 11.0612 13.501 10.5603 13.2044 10.2278L11.8419 8.70121V6.07108C11.8419 5.58728 11.4504 5.1958 10.9666 5.1958H9.9426C9.45881 5.1958 9.06732 5.58728 9.06732 6.07108C9.06732 6.55488 9.45881 6.94637 9.9426 6.94637H10.0913V9.03457C10.0913 9.24911 10.1708 9.45682 10.3136 9.61752L11.3786 10.8108L10.3136 12.0049C10.17 12.1656 10.0913 12.3733 10.0913 12.5878Z" fill="#323334"/>
</svg>
