<svg width="21" height="21" viewBox="0 0 21 21" fill="none" xmlns="http://www.w3.org/2000/svg">
<path d="M16.0583 21.0004H4.94175C4.33348 21.0004 3.73117 20.8806 3.16921 20.6478C2.60724 20.415 2.09663 20.0738 1.66652 19.6437C1.23641 19.2136 0.895229 18.703 0.662456 18.141C0.429682 17.5791 0.309875 16.9768 0.309875 16.3685V5.25199C0.309875 4.02354 0.797875 2.84541 1.66652 1.97676C2.53517 1.10812 3.7133 0.620117 4.94175 0.620117H16.0583C16.6665 0.620117 17.2688 0.739924 17.8308 0.972698C18.3928 1.20547 18.9034 1.54665 19.3335 1.97676C19.7636 2.40687 20.1048 2.91749 20.3375 3.47945C20.5703 4.04141 20.6901 4.64373 20.6901 5.25199V16.3685C20.6901 16.9768 20.5703 17.5791 20.3375 18.141C20.1048 18.703 19.7636 19.2136 19.3335 19.6437C18.9034 20.0738 18.3928 20.415 17.8308 20.6478C17.2688 20.8806 16.6665 21.0004 16.0583 21.0004ZM4.94175 2.47287C4.20468 2.47287 3.4978 2.76567 2.97661 3.28685C2.45543 3.80804 2.16263 4.51492 2.16263 5.25199V16.3685C2.16263 17.1056 2.45543 17.8124 2.97661 18.3336C3.4978 18.8548 4.20468 19.1476 4.94175 19.1476H16.0583C16.7953 19.1476 17.5022 18.8548 18.0234 18.3336C18.5446 17.8124 18.8374 17.1056 18.8374 16.3685V5.25199C18.8374 4.51492 18.5446 3.80804 18.0234 3.28685C17.5022 2.76567 16.7953 2.47287 16.0583 2.47287H4.94175Z" fill="black"/>
<path d="M10.4999 16.3683C10.2542 16.3683 10.0185 16.2707 9.84482 16.097C9.67109 15.9233 9.57349 15.6876 9.57349 15.4419V11.7364C9.57349 11.4907 9.67109 11.2551 9.84482 11.0814C10.0185 10.9077 10.2542 10.8101 10.4999 10.8101C10.7456 10.8101 10.9812 10.9077 11.1549 11.0814C11.3286 11.2551 11.4262 11.4907 11.4262 11.7364V15.4419C11.4262 15.6876 11.3286 15.9233 11.1549 16.097C10.9812 16.2707 10.7456 16.3683 10.4999 16.3683Z" fill="black"/>
<path d="M5.86809 16.3687C5.6224 16.3687 5.38677 16.2711 5.21304 16.0974C5.03931 15.9237 4.94171 15.688 4.94171 15.4424V8.03136C4.94171 7.78567 5.03931 7.55004 5.21304 7.37631C5.38677 7.20258 5.6224 7.10498 5.86809 7.10498C6.11378 7.10498 6.3494 7.20258 6.52313 7.37631C6.69686 7.55004 6.79446 7.78567 6.79446 8.03136V15.4424C6.79446 15.688 6.69686 15.9237 6.52313 16.0974C6.3494 16.2711 6.11378 16.3687 5.86809 16.3687Z" fill="black"/>
<path d="M15.1319 16.3685C14.8863 16.3685 14.6506 16.2709 14.4769 16.0971C14.3032 15.9234 14.2056 15.6878 14.2056 15.4421V6.17833C14.2056 5.93264 14.3032 5.69701 14.4769 5.52328C14.6506 5.34955 14.8863 5.25195 15.1319 5.25195C15.3776 5.25195 15.6133 5.34955 15.787 5.52328C15.9607 5.69701 16.0583 5.93264 16.0583 6.17833V15.4421C16.0583 15.6878 15.9607 15.9234 15.787 16.0971C15.6133 16.2709 15.3776 16.3685 15.1319 16.3685Z" fill="black"/>
</svg>
