<svg width="19" height="23" viewBox="0 0 19 23" fill="none" xmlns="http://www.w3.org/2000/svg">
<path d="M4.37158 0.620117C2.27134 0.620117 0.641602 2.24986 0.641602 4.3501V19.27C0.641602 21.3703 2.27134 23 4.37158 23H5.30408C5.81908 23 6.23657 22.5825 6.23657 22.0675C6.23657 21.5525 5.81908 21.135 5.30408 21.135H4.37158C3.30134 21.135 2.50659 20.3402 2.50659 19.27V4.3501C2.50659 3.27985 3.30134 2.48511 4.37158 2.48511H13.6965C14.7668 2.48511 15.5615 3.27985 15.5615 4.3501V9.01257C15.5615 9.52758 15.979 9.94507 16.494 9.94507C17.009 9.94507 17.4265 9.52758 17.4265 9.01257V4.3501C17.4265 2.24986 15.7968 0.620117 13.6965 0.620117H4.37158Z" fill="#323334"/>
<path d="M5.30359 4.3501C4.78859 4.3501 4.37109 4.76759 4.37109 5.28259C4.37109 5.79759 4.78859 6.21509 5.30359 6.21509H12.7636C13.2786 6.21509 13.696 5.79759 13.696 5.28259C13.696 4.76759 13.2786 4.3501 12.7636 4.3501H5.30359Z" fill="#323334"/>
<path d="M4.37109 9.01257C4.37109 8.49757 4.78859 8.08008 5.30359 8.08008H9.03357C9.54859 8.08008 9.96606 8.49757 9.96606 9.01257C9.96606 9.52758 9.54859 9.94507 9.03357 9.94507H5.30359C4.78859 9.94507 4.37109 9.52758 4.37109 9.01257Z" fill="#323334"/>
<path d="M12.2977 13.675C12.8127 13.675 13.2302 14.0925 13.2302 14.6075V16.4725C13.2302 16.9876 12.8127 17.405 12.2977 17.405C11.7827 17.405 11.3652 16.9876 11.3652 16.4725V14.6075C11.3652 14.0925 11.7827 13.675 12.2977 13.675Z" fill="#323334"/>
<path d="M13.2302 19.27C13.2302 19.785 12.8127 20.2025 12.2977 20.2025C11.7827 20.2025 11.3652 19.785 11.3652 19.27C11.3652 18.755 11.7827 18.3375 12.2977 18.3375C12.8127 18.3375 13.2302 18.755 13.2302 19.27Z" fill="#323334"/>
<path fill-rule="evenodd" clip-rule="evenodd" d="M12.2975 10.8776C8.94998 10.8776 6.23633 13.5912 6.23633 16.9388C6.23633 20.2863 8.94998 23 12.2975 23C15.6451 23 18.3588 20.2863 18.3588 16.9388C18.3588 13.5912 15.6451 10.8776 12.2975 10.8776ZM8.10132 16.9388C8.10132 14.6213 9.98002 12.7426 12.2975 12.7426C14.6151 12.7426 16.4938 14.6213 16.4938 16.9388C16.4938 19.2563 14.6151 21.135 12.2975 21.135C9.98002 21.135 8.10132 19.2563 8.10132 16.9388Z" fill="#323334"/>
</svg>
