<svg width="25" height="24" viewBox="0 0 25 24" fill="none" xmlns="http://www.w3.org/2000/svg">
<path d="M4.29103 20.0189V22.7401H2.93043C2.17897 22.7401 1.56982 22.1309 1.56982 21.3795L1.61518 19.1118" stroke="#323334" stroke-width="1.3606" stroke-miterlimit="10" stroke-linecap="round" stroke-linejoin="round"/>
<path d="M4.33638 6.41309H2.93043C2.17897 6.41309 1.56982 7.02223 1.56982 7.77369V21.3797C1.56982 20.6283 2.17897 20.0191 2.93043 20.0191H22.0696C22.821 20.0191 23.4302 19.41 23.4302 18.6585" stroke="#323334" stroke-width="1.3606" stroke-miterlimit="10" stroke-linecap="round" stroke-linejoin="round"/>
<path d="M20.7089 6.41309H7.0575" stroke="#323334" stroke-width="1.3606" stroke-miterlimit="10" stroke-linecap="round" stroke-linejoin="round"/>
<path d="M23.4301 5.0525V18.6585C23.4301 17.9071 22.821 17.2979 22.0695 17.2979H20.7089V3.69189H22.0695C22.821 3.69189 23.4301 4.30104 23.4301 5.0525Z" stroke="#323334" stroke-width="1.3606" stroke-miterlimit="10" stroke-linecap="round" stroke-linejoin="round"/>
<path d="M5.69697 0.879883C4.94551 0.879883 4.33636 1.48902 4.33636 2.24049V3.60109H7.05757V2.24049C7.05757 1.48902 6.44843 0.879883 5.69697 0.879883Z" stroke="#323334" stroke-width="1.3606" stroke-miterlimit="10" stroke-linecap="round" stroke-linejoin="round"/>
<path d="M4.33629 13.6694H7.0575L7.0575 3.60097H4.33629L4.33629 13.6694Z" stroke="#323334" stroke-width="1.3606" stroke-miterlimit="10" stroke-linecap="round" stroke-linejoin="round"/>
<path d="M7.05763 13.6694H4.33643L5.69703 17.2977L7.05763 13.6694Z" stroke="#323334" stroke-width="1.3606" stroke-miterlimit="10" stroke-linecap="round" stroke-linejoin="round"/>
<path d="M9.77875 9.13428L17.9424 17.2979H9.77875V9.13428Z" stroke="#323334" stroke-width="1.3606" stroke-miterlimit="10" stroke-linecap="round" stroke-linejoin="round"/>
</svg>
