<svg width="21" height="22" viewBox="0 0 21 22" fill="none" xmlns="http://www.w3.org/2000/svg">
<path d="M18.9 1.71006H16.8V1.01006C16.8 0.824407 16.7262 0.646359 16.595 0.515084C16.4637 0.383808 16.2857 0.310059 16.1 0.310059C15.9143 0.310059 15.7363 0.383808 15.605 0.515084C15.4737 0.646359 15.4 0.824407 15.4 1.01006V1.71006H5.6V1.01006C5.6 0.824407 5.52625 0.646359 5.39497 0.515084C5.2637 0.383808 5.08565 0.310059 4.9 0.310059C4.71435 0.310059 4.5363 0.383808 4.40503 0.515084C4.27375 0.646359 4.2 0.824407 4.2 1.01006V1.71006H2.1C1.54324 1.71069 1.00946 1.93214 0.615772 2.32583C0.222082 2.71952 0.000629926 3.2533 0 3.81006V19.2101C0.000629926 19.7668 0.222082 20.3006 0.615772 20.6943C1.00946 21.088 1.54324 21.3094 2.1 21.3101H18.9C19.4568 21.3094 19.9905 21.088 20.3842 20.6943C20.7779 20.3006 20.9994 19.7668 21 19.2101V3.81006C20.9994 3.2533 20.7779 2.71952 20.3842 2.32583C19.9905 1.93214 19.4568 1.71069 18.9 1.71006ZM2.1 3.11006H4.2V3.81006C4.2 3.99571 4.27375 4.17376 4.40503 4.30503C4.5363 4.43631 4.71435 4.51006 4.9 4.51006C5.08565 4.51006 5.2637 4.43631 5.39497 4.30503C5.52625 4.17376 5.6 3.99571 5.6 3.81006V3.11006H15.4V3.81006C15.4 3.99571 15.4737 4.17376 15.605 4.30503C15.7363 4.43631 15.9143 4.51006 16.1 4.51006C16.2857 4.51006 16.4637 4.43631 16.595 4.30503C16.7262 4.17376 16.8 3.99571 16.8 3.81006V3.11006H18.9C19.0855 3.11043 19.2634 3.1843 19.3946 3.31549C19.5258 3.44669 19.5996 3.62452 19.6 3.81006V5.91006H1.4V3.81006C1.40037 3.62452 1.47424 3.44669 1.60543 3.31549C1.73663 3.1843 1.91446 3.11043 2.1 3.11006ZM18.9 19.9101H2.1C1.91446 19.9097 1.73663 19.8358 1.60543 19.7046C1.47424 19.5734 1.40037 19.3956 1.4 19.2101V7.31006H19.6V19.2101C19.5996 19.3956 19.5258 19.5734 19.3946 19.7046C19.2634 19.8358 19.0855 19.9097 18.9 19.9101Z" fill="#323334"/>
<path d="M15.1586 14.6151H6.25859C6.07294 14.6151 5.89489 14.6889 5.76362 14.8202C5.63234 14.9514 5.55859 15.1295 5.55859 15.3151C5.55859 15.5008 5.63234 15.6788 5.76362 15.8101C5.89489 15.9414 6.07294 16.0151 6.25859 16.0151H15.1586C15.3442 16.0151 15.5223 15.9414 15.6536 15.8101C15.7848 15.6788 15.8586 15.5008 15.8586 15.3151C15.8586 15.1295 15.7848 14.9514 15.6536 14.8202C15.5223 14.6889 15.3442 14.6151 15.1586 14.6151Z" fill="#323334"/>
<path d="M14.6586 9.92112H6.25859C6.07294 9.92112 5.89489 9.99487 5.76362 10.1261C5.63234 10.2574 5.55859 10.4355 5.55859 10.6211C5.55859 10.8068 5.63234 10.9848 5.76362 11.1161C5.89489 11.2474 6.07294 11.3211 6.25859 11.3211H14.6586C14.8442 11.3211 15.0223 11.2474 15.1536 11.1161C15.2848 10.9848 15.3586 10.8068 15.3586 10.6211C15.3586 10.4355 15.2848 10.2574 15.1536 10.1261C15.0223 9.99487 14.8442 9.92112 14.6586 9.92112Z" fill="#323334"/>
</svg>
