<svg width="23" height="23" viewBox="0 0 23 23" fill="none" xmlns="http://www.w3.org/2000/svg">
<path d="M12.1994 23.0004H10.8006C9.6816 23.0004 8.70247 22.0212 8.70247 20.9022V20.2028C8.70247 19.9231 8.56259 19.6433 8.28284 19.6433C8.00309 19.5035 7.72333 19.6433 7.58346 19.7832L7.02395 20.2028C6.18469 21.0421 4.9258 21.0421 4.08654 20.2028L3.10741 19.2237C2.26815 18.3844 2.26815 17.1256 3.10741 16.2863L3.66691 15.7268C3.80679 15.5869 3.94667 15.3072 3.80679 15.0274C3.66691 14.7476 3.38716 14.6078 3.10741 14.6078H2.40802C1.28901 14.6078 0.309875 13.6286 0.309875 12.5096V11.1109C0.309875 9.99185 1.28901 9.01271 2.40802 9.01271H3.10741C3.38716 9.01271 3.66691 8.87283 3.66691 8.59308C3.80679 8.31333 3.66691 8.03357 3.52704 7.8937L3.10741 7.33419C2.26815 6.49493 2.26815 5.23604 3.10741 4.39678L4.08654 3.41765C4.9258 2.57839 6.18469 2.57839 7.02395 3.41765L7.58346 3.97715C7.72333 4.11703 8.00309 4.25691 8.28284 4.11703C8.56259 3.97715 8.70247 3.6974 8.70247 3.41765V2.71827C8.70247 1.59925 9.6816 0.620117 10.8006 0.620117H12.3393C13.3184 0.620117 14.2975 1.59925 14.2975 2.71827V3.41765C14.2975 3.6974 14.4374 3.97715 14.7172 3.97715C14.9969 4.11703 15.2767 3.97715 15.4165 3.83728L15.976 3.41765C16.8153 2.57839 18.0742 2.57839 18.9135 3.41765L19.8926 4.39678C20.7319 5.23604 20.7319 6.49493 19.8926 7.33419L19.3331 7.8937C19.1932 8.03357 19.0533 8.31333 19.1932 8.59308C19.3331 8.87283 19.6128 9.01271 19.8926 9.01271H20.7319C21.711 9.01271 22.6901 9.99185 22.6901 11.1109V12.6495C22.6901 13.7685 21.711 14.7477 20.592 14.7477H19.8926C19.6128 14.7477 19.3331 14.8875 19.3331 15.1673C19.1932 15.447 19.3331 15.7268 19.473 15.8667L20.0325 16.4262C20.8717 17.2654 20.8717 18.5243 20.0325 19.3636L18.9135 20.2028C18.0742 21.0421 16.8153 21.0421 15.976 20.2028L15.4165 19.6433C15.2767 19.5035 14.9969 19.3636 14.7172 19.5035C14.4374 19.6433 14.2975 19.9231 14.2975 20.2028V21.0421C14.2975 22.0212 13.3184 23.0004 12.1994 23.0004ZM8.00309 18.1047C8.28284 18.1047 8.56259 18.1047 8.84235 18.2446C9.54173 18.5243 10.1012 19.3636 10.1012 20.2028V21.0421C10.1012 21.3218 10.381 21.6016 10.8006 21.6016H12.3393C12.619 21.6016 12.8988 21.3218 12.8988 20.9022V20.2028C12.8988 19.3636 13.4583 18.6642 14.1577 18.2446C14.9969 17.9648 15.8362 18.1047 16.3957 18.6642L16.9552 19.2237C17.2349 19.5035 17.6546 19.5035 17.9343 19.2237L19.0533 18.1047C19.3331 17.8249 19.3331 17.4053 19.0533 17.1256L18.4938 16.566C17.9343 16.0065 17.7944 15.1673 18.0742 14.328C18.2141 13.7685 19.0533 13.209 19.8926 13.209H20.7319C21.0116 13.209 21.2914 12.9293 21.2914 12.5096V11.1109C21.2914 10.6912 21.0116 10.4115 20.592 10.4115H19.8926C19.0533 10.4115 18.354 9.85197 17.9343 9.15259C17.6546 8.31333 17.7944 7.47407 18.354 6.91456L18.9135 6.35506C19.0533 6.21518 19.0533 6.0753 19.0533 5.93543C19.0533 5.79555 19.0533 5.65567 18.9135 5.5158L17.7944 4.39678C17.5147 4.11703 17.0951 4.11703 16.8153 4.39678L16.2558 4.95629C15.6963 5.5158 14.857 5.65567 14.0178 5.37592C13.4583 5.09617 12.8988 4.25691 12.8988 3.41765V2.71827C12.8988 2.29864 12.619 2.01888 12.1994 2.01888H10.8006C10.381 2.01888 10.1012 2.29864 10.1012 2.71827V3.41765C10.1012 4.25691 9.54173 4.95629 8.84235 5.37592C8.00309 5.65567 7.16383 5.5158 6.60432 4.95629L6.04481 4.39678C5.76506 4.11703 5.34543 4.11703 5.06568 4.39678L4.08654 5.37592C3.94667 5.5158 3.80679 5.65567 3.80679 5.93543C3.80679 6.0753 3.80679 6.21518 3.94667 6.35506L4.50617 6.91456C5.06568 7.47407 5.20555 8.31333 4.9258 9.15259C4.78593 9.85197 3.94667 10.4115 3.10741 10.4115H2.40802C1.98839 10.4115 1.70864 10.6912 1.70864 11.1109V12.6495C1.70864 12.9293 1.98839 13.209 2.40802 13.209H3.10741C3.94667 13.209 4.64605 13.7685 5.06568 14.4679C5.34543 15.3072 5.20555 16.1464 4.64605 16.7059L4.08654 17.2654C3.80679 17.5452 3.80679 17.9648 4.08654 18.2446L5.20555 19.3636C5.48531 19.6433 5.90494 19.6433 6.18469 19.3636L6.7442 18.8041C7.02395 18.3844 7.44358 18.1047 8.00309 18.1047Z" fill="#323334"/>
<path d="M11.5 16.0064C9.12211 16.0064 7.30371 14.188 7.30371 11.8101C7.30371 9.43216 9.12211 7.61377 11.5 7.61377C13.8779 7.61377 15.6963 9.43216 15.6963 11.8101C15.6963 14.188 13.8779 16.0064 11.5 16.0064ZM11.5 9.01254C9.96137 9.01254 8.70248 10.2714 8.70248 11.8101C8.70248 13.3487 9.96137 14.6076 11.5 14.6076C13.0386 14.6076 14.2975 13.3487 14.2975 11.8101C14.2975 10.2714 13.0386 9.01254 11.5 9.01254Z" fill="#323334"/>
</svg>
