<svg width="20" height="19" viewBox="0 0 20 19" fill="none" xmlns="http://www.w3.org/2000/svg">
<path d="M19.5 15.1429H15.6429V19H14.3571V15.1429H10.5V13.8571H14.3571V10H15.6429V13.8571H19.5V15.1429Z" fill="black"/>
<path d="M7.8 17.2H5.1C4.14522 17.2 3.22955 16.8207 2.55442 16.1456C1.87928 15.4705 1.5 14.5548 1.5 13.6V5.5C1.5 4.54522 1.87928 3.62955 2.55442 2.95442C3.22955 2.27928 4.14522 1.9 5.1 1.9H15C15.9548 1.9 16.8705 2.27928 17.5456 2.95442C18.2207 3.62955 18.6 4.54522 18.6 5.5V8.2M6.9 1V2.8M13.2 1V2.8M1.5 6.4H18.6" stroke="black" stroke-width="1.5" stroke-linecap="round" stroke-linejoin="round"/>
</svg>
