<svg width="19" height="22" viewBox="0 0 19 22" fill="none" xmlns="http://www.w3.org/2000/svg">
<path d="M8.58124 20.3368H3.17877C2.13319 20.3368 1.28291 19.4893 1.28291 18.448V3.55201C1.28291 2.51072 2.13319 1.66328 3.17877 1.66328H13.5775C14.6223 1.66328 15.4733 2.51357 15.4733 3.55914V10.2374C15.4733 10.5916 15.7606 10.8789 16.1148 10.8789C16.469 10.8789 16.7562 10.5916 16.7562 10.2374V3.55914C16.7562 1.80654 15.3308 0.380371 13.5782 0.380371H3.17877C1.42617 0.380371 0 1.80298 0 3.55201V18.448C0 20.1971 1.42546 21.6197 3.17877 21.6197H8.58124C8.93547 21.6197 9.2227 21.3324 9.2227 20.9782C9.2227 20.624 8.93547 20.3368 8.58124 20.3368Z" fill="#323334"/>
<path d="M13.5051 6.51548C13.5051 6.16125 13.2178 5.87402 12.8636 5.87402H3.89536C3.54114 5.87402 3.25391 6.16125 3.25391 6.51548C3.25391 6.8697 3.54114 7.15693 3.89536 7.15693H12.8636C13.2178 7.15693 13.5051 6.87042 13.5051 6.51548Z" fill="#323334"/>
<path d="M11.611 10.9999C11.611 10.6456 11.3238 10.3584 10.9695 10.3584H3.89927C3.54504 10.3584 3.25781 10.6456 3.25781 10.9999C3.25781 11.3541 3.54504 11.6413 3.89927 11.6413H10.9695C11.3245 11.6413 11.611 11.3541 11.611 10.9999Z" fill="#323334"/>
<path d="M3.89927 14.8408C3.54504 14.8408 3.25781 15.1281 3.25781 15.4823C3.25781 15.8365 3.54504 16.1237 3.89927 16.1237H7.61971C7.97393 16.1237 8.26116 15.8365 8.26116 15.4823C8.26116 15.1281 7.97393 14.8408 7.61971 14.8408H3.89927Z" fill="#323334"/>
<path d="M14.4977 12.6157C12.0153 12.6157 9.99609 14.6349 9.99609 17.118C9.99609 19.6005 12.0153 21.6196 14.4977 21.6196C16.9801 21.6196 19 19.6005 19 17.118C19 14.6349 16.9801 12.6157 14.4977 12.6157ZM14.4977 20.3367C12.723 20.3367 11.2783 18.8927 11.2783 17.1173C11.2783 15.3419 12.7223 13.8979 14.4977 13.8979C16.2731 13.8979 17.7171 15.3419 17.7171 17.1173C17.7171 18.8927 16.2724 20.3367 14.4977 20.3367Z" fill="#323334"/>
<path d="M15.1384 16.8518V15.3031C15.1384 14.9489 14.8511 14.6616 14.4969 14.6616C14.1427 14.6616 13.8555 14.9489 13.8555 15.3031V17.1177C13.8555 17.288 13.9232 17.4512 14.0436 17.5717L14.9046 18.4327C15.03 18.5574 15.194 18.6201 15.3579 18.6201C15.5218 18.6201 15.6865 18.5574 15.8119 18.432C16.0621 18.1811 16.0621 17.7755 15.8119 17.5246L15.1384 16.8518Z" fill="#323334"/>
</svg>
