<svg width="19" height="25" viewBox="0 0 19 25" fill="none" xmlns="http://www.w3.org/2000/svg">
<path d="M11.7411 2.93191C11.3035 2.14936 10.464 1.61992 9.50021 1.61992C8.53643 1.61992 7.69694 2.14936 7.25934 2.93191H7.18859C6.07802 2.93191 5.17773 3.82788 5.17773 4.93305C5.17773 6.03827 6.07802 6.93419 7.18859 6.93419H11.8119C12.9224 6.93419 13.8227 6.03822 13.8227 4.93305C13.8227 3.82784 12.9224 2.93191 11.8119 2.93191H11.7411Z" stroke="#323334" stroke-width="1.6472" stroke-miterlimit="10" stroke-linecap="round" stroke-linejoin="round"/>
<path d="M5.18457 12.8225L6.07732 13.5677L7.96612 11.3754" stroke="#323334" stroke-width="1.6472" stroke-miterlimit="10" stroke-linecap="round" stroke-linejoin="round"/>
<path d="M11.5127 12.4716H13.8169" stroke="#323334" stroke-width="1.6472" stroke-miterlimit="10" stroke-linecap="round" stroke-linejoin="round"/>
<path d="M5.18457 18.9112L6.07732 19.6564L7.96612 17.4641" stroke="#323334" stroke-width="1.6472" stroke-miterlimit="10" stroke-linecap="round" stroke-linejoin="round"/>
<path d="M11.5127 18.5602H13.8169" stroke="#323334" stroke-width="1.6472" stroke-miterlimit="10" stroke-linecap="round" stroke-linejoin="round"/>
<path d="M5.10489 4.39474H4.14378C2.57256 4.39474 1.29883 5.66848 1.29883 7.23969V21.1552C1.29883 22.7265 2.57256 24.0002 4.14378 24.0002H14.8571C16.4245 24.0002 17.6958 22.7327 17.702 21.1669" stroke="#323334" stroke-width="1.6472" stroke-miterlimit="10" stroke-linecap="round" stroke-linejoin="round"/>
<path d="M17.7014 16.4253V7.23969C17.7014 5.66848 16.4276 4.39474 14.8564 4.39474H13.9014" stroke="#323334" stroke-width="1.6472" stroke-miterlimit="10" stroke-linecap="round" stroke-linejoin="round"/>
</svg>
