<svg width="21" height="28" viewBox="0 0 21 28" fill="none" xmlns="http://www.w3.org/2000/svg">
<path d="M14.555 9.94907C15.6226 8.91983 16.286 7.48937 16.286 5.90917C16.286 2.7825 13.6904 0.238739 10.5 0.238739C7.30955 0.238739 4.71393 2.7825 4.71393 5.90917C4.71393 7.48937 5.37737 8.91983 6.44494 9.94907C3.15951 11.3776 1 14.5861 1 18.1508V20.8128C1 21.0544 1.20028 21.2505 1.44706 21.2505H3.52833V21.3922C3.52833 21.4075 3.52901 21.4228 3.53079 21.4379C3.57863 21.8849 3.96511 22.2351 4.41038 22.2351H5.01547C5.14177 22.6806 5.32864 23.1057 5.56714 23.4911L5.14624 23.8709C4.80155 24.1918 4.783 24.7106 5.10377 25.0518C5.11047 25.0588 5.1174 25.0659 5.12455 25.0726L5.95094 25.8427C6.28377 26.1529 6.80102 26.17 7.15397 25.8821C7.15956 25.8775 7.16537 25.8727 7.17096 25.8677L7.62003 25.4625C8.05569 25.7037 8.51325 25.8836 8.98736 26.0005V26.5386C8.98736 26.5539 8.98803 26.5692 8.98981 26.5843C9.03765 27.0313 9.42391 27.3815 9.86918 27.3815H11.0436C11.0577 27.3815 11.072 27.3809 11.0861 27.3796C11.5568 27.3356 11.9256 26.9663 11.9256 26.5386V25.9999C12.4156 25.8797 12.8832 25.6996 13.3053 25.4686L13.7367 25.8834C14.0697 26.1934 14.587 26.2104 14.9397 25.9228C14.9473 25.9167 14.9547 25.9101 14.9618 25.9036L15.7882 25.1337C16.1327 24.8128 16.1515 24.2943 15.8204 23.9418L15.4228 23.5467C15.6733 23.1481 15.8615 22.7296 15.9854 22.2962H16.5896C16.6037 22.2962 16.6177 22.2955 16.6318 22.2942C17.1026 22.2504 17.4716 21.881 17.4716 21.4532V21.2508H19.5529C19.7997 21.2508 20 21.0546 20 20.813V18.1508C20 14.5861 17.8404 11.3776 14.555 9.94907ZM5.60805 5.90917C5.60805 3.26538 7.80265 1.11431 10.5 1.11431C13.1973 1.11431 15.3919 3.26538 15.3919 5.90917C15.3919 8.55297 13.1973 10.704 10.5 10.704C7.80265 10.704 5.60805 8.55297 5.60805 5.90917ZM16.5775 21.4134C16.5719 21.4162 16.5652 21.4186 16.5585 21.4204H15.6326C15.419 21.4204 15.2354 21.5684 15.1941 21.7735C15.083 22.3255 14.8447 22.8546 14.4862 23.346C14.3599 23.5192 14.3789 23.7562 14.5313 23.9079L15.1487 24.521L14.3583 25.2537L13.6841 24.6053C13.5337 24.4606 13.301 24.4385 13.1251 24.5519C12.628 24.8726 12.0307 25.1024 11.3979 25.2165C11.1858 25.2545 11.0317 25.4358 11.0317 25.647V26.4987C11.0259 26.5016 11.019 26.5042 11.0119 26.506L9.89064 26.5116C9.88773 26.5095 9.88393 26.504 9.88125 26.4992V25.647C9.88125 25.4349 9.72589 25.2532 9.51265 25.216C8.91292 25.1112 8.3389 24.8872 7.80668 24.5501C7.63501 24.4416 7.41081 24.4604 7.26082 24.5957L6.56699 25.2081L5.78799 24.4823L6.45321 23.8819C6.62019 23.7313 6.64522 23.4819 6.51177 23.3024C6.17089 22.8436 5.92658 22.2931 5.80542 21.71C5.76295 21.506 5.57988 21.3595 5.36731 21.3595L4.43161 21.3652C4.42871 21.3631 4.42491 21.3576 4.42223 21.3528V20.3378C4.42781 20.3349 4.43452 20.3325 4.44123 20.3308H5.36708C5.58078 20.3308 5.76429 20.1828 5.80565 19.9777C5.91674 19.4256 6.15502 18.8966 6.51356 18.4051C6.64164 18.2298 6.62018 17.9892 6.46304 17.8382L5.83001 17.2295L6.61951 16.4977L7.29368 17.1461C7.44411 17.2905 7.67681 17.3129 7.85272 17.1995C8.34985 16.8788 8.94712 16.6492 9.57993 16.5349C9.79586 16.496 9.95099 16.3092 9.94585 16.0945L9.92506 15.2117C9.93087 15.2089 9.93758 15.2065 9.94451 15.2047L11.0742 15.1927V16.0842C11.0742 16.2963 11.2296 16.478 11.4428 16.5152C12.0425 16.6201 12.6163 16.844 13.149 17.1811C13.3202 17.2897 13.5449 17.2708 13.6946 17.1356L14.3885 16.5231L15.1894 17.2691L14.5239 17.8695C14.357 18.0201 14.3319 18.2694 14.4654 18.4489C14.8063 18.9077 15.0506 19.4585 15.1717 20.0414C15.2142 20.2454 15.3973 20.3918 15.6098 20.3918H16.5668C16.5703 20.3918 16.5735 20.3918 16.5764 20.392V21.4134H16.5775ZM19.1058 20.375H17.4716V20.359C17.4716 19.8783 17.0831 19.5158 16.5679 19.5158H15.963C15.8367 19.0704 15.6499 18.6455 15.4111 18.26L15.832 17.8802C16.1765 17.5593 16.1953 17.0408 15.8747 16.6993C15.868 16.6921 15.8609 16.6853 15.8537 16.6785L15.0056 15.8883C14.6724 15.5779 14.1553 15.5611 13.8024 15.8489C13.7968 15.8535 13.791 15.8583 13.7854 15.8634L13.3366 16.2685C12.9009 16.0273 12.4431 15.8474 11.9692 15.7305V15.1924C11.9692 14.7245 11.5653 14.3293 11.0872 14.3293H9.91277C9.89868 14.3293 9.8846 14.33 9.87052 14.3313C9.39977 14.3751 9.03072 14.7446 9.03094 15.1824L9.04436 15.7537C8.55729 15.8739 8.09257 16.0531 7.67301 16.283L7.2416 15.8682C6.90854 15.5578 6.39107 15.5407 6.03834 15.8285C6.03074 15.8347 6.02336 15.8412 6.01621 15.8478L5.18982 16.6179C4.84537 16.9388 4.82659 17.4573 5.14713 17.7986C5.15227 17.8041 5.15741 17.8095 5.163 17.8146L5.57407 18.2099C5.32506 18.6067 5.13797 19.0237 5.0148 19.4552H4.4106C4.39652 19.4552 4.38244 19.4558 4.36836 19.4571C3.8976 19.5009 3.52856 19.8704 3.52856 20.2981V20.375H1.89412V18.1508C1.89412 14.7849 4.02792 11.7718 7.2264 10.5815C8.15806 11.2103 9.28554 11.5796 10.5 11.5796C11.7144 11.5796 12.8419 11.2103 13.7736 10.5815C16.972 11.7718 19.1058 14.7851 19.1058 18.1508V20.375Z" fill="#323334" stroke="#323334" stroke-width="0.3"/>
<path d="M10.5004 17.8816C9.00379 17.8816 7.78613 19.2514 7.78613 20.9354C7.78613 22.6193 9.00379 23.9887 10.5004 23.9887C11.997 23.9887 13.2147 22.6188 13.2147 20.9351C13.2147 19.2514 11.997 17.8816 10.5004 17.8816ZM10.5004 23.0623C9.43901 23.0623 8.57528 22.1079 8.57528 20.9351C8.57528 19.7621 9.43881 18.8077 10.5004 18.8077C11.562 18.8077 12.4255 19.7621 12.4255 20.9351C12.4255 22.1081 11.5618 23.0623 10.5004 23.0623Z" fill="#323334" stroke="#323334" stroke-width="0.3"/>
</svg>
