<svg width="37" height="35" viewBox="0 0 37 35" fill="none" xmlns="http://www.w3.org/2000/svg">
<rect width="37" height="35" rx="17.5" fill="white"/>
<path d="M24.2679 9.35714H22.9108C22.9108 8.60731 22.3035 8 21.5536 8C20.8038 8 20.1965 8.60731 20.1965 9.35714V10.375C20.1965 10.5616 20.0438 10.7143 19.8572 10.7143C19.6706 10.7143 19.5179 10.5616 19.5179 10.375V9.35714H16.8036C16.8036 8.60731 16.1963 8 15.4465 8C14.6967 8 14.0894 8.60731 14.0894 9.35714V10.375C14.0894 10.5616 13.9367 10.7143 13.7501 10.7143C13.5635 10.7143 13.4108 10.5616 13.4108 10.375V9.35714H12.7322C12.1724 9.35714 11.7144 9.81517 11.7144 10.375V11.7321H25.2858V10.375C25.2858 9.81517 24.8278 9.35714 24.2679 9.35714ZM14.7679 9.35714C14.7679 8.98391 15.0733 8.67857 15.4465 8.67857C15.8197 8.67857 16.1251 8.98391 16.1251 9.35714H14.7679ZM20.8751 9.35714C20.8751 8.98391 21.1804 8.67857 21.5536 8.67857C21.9268 8.67857 22.2322 8.98391 22.2322 9.35714H20.8751Z" fill="#1A1A1A"/>
<path d="M11.7144 12.4111V25.9826C11.7144 26.5424 12.1724 27.0004 12.7322 27.0004H24.2679C24.8278 27.0004 25.2858 26.5424 25.2858 25.9826V12.4111H11.7144ZM13.7501 14.4468H21.2144C21.401 14.4468 21.5536 14.5995 21.5536 14.7861C21.5536 14.9727 21.401 15.1254 21.2144 15.1254H13.7501C13.3022 15.1186 13.3056 14.4536 13.7501 14.4468ZM18.5001 25.1343C18.0828 25.1445 16.4067 24.9002 16.7256 24.2522C16.8172 24.0859 17.0242 24.0283 17.187 24.1165C17.5908 24.3404 18.042 24.4558 18.5001 24.4558C19.9963 24.4558 21.2144 23.2377 21.2144 21.7415C21.2144 20.2453 19.9963 19.0272 18.5001 19.0272C16.4712 18.9933 15.114 21.297 16.1251 23.0545C16.3354 23.4447 15.7451 23.7704 15.5279 23.3802C14.2692 21.1851 15.9656 18.3045 18.5001 18.3486C22.999 18.5352 22.999 24.9477 18.5001 25.1343ZM17.7231 21.5006L18.1608 21.9417L19.277 20.822C19.4094 20.6897 19.6265 20.6897 19.7588 20.822C19.8911 20.9543 19.8911 21.1715 19.7588 21.3038L18.4017 22.6609C18.2694 22.7933 18.0522 22.7933 17.9199 22.6609L17.2413 21.9824C16.9292 21.6668 17.4076 21.1885 17.7231 21.5006ZM23.2501 16.8218H13.7501C13.3022 16.8151 13.3056 16.15 13.7501 16.1433H23.2501C23.6979 16.15 23.6945 16.8151 23.2501 16.8218Z" fill="#1A1A1A"/>
</svg>
