<svg width="48" height="48" viewBox="0 0 48 48" fill="none" xmlns="http://www.w3.org/2000/svg">
<circle cx="24" cy="24" r="24" fill="#F8A14C"/>
<path fill-rule="evenodd" clip-rule="evenodd" d="M19.416 14C19.1412 14.6309 18.9996 15.3118 19 16C19 16.5304 19.2107 17.0391 19.5858 17.4142C19.9609 17.7893 20.4696 18 21 18H27C27.5304 18 28.0391 17.7893 28.4142 17.4142C28.7893 17.0391 29 16.5304 29 16C29 15.289 28.852 14.612 28.584 14H30C30.5304 14 31.0391 14.2107 31.4142 14.5858C31.7893 14.9609 32 15.4696 32 16V31C32 31.5304 31.7893 32.0391 31.4142 32.4142C31.0391 32.7893 30.5304 33 30 33H18C17.4696 33 16.9609 32.7893 16.5858 32.4142C16.2107 32.0391 16 31.5304 16 31V16C16 15.4696 16.2107 14.9609 16.5858 14.5858C16.9609 14.2107 17.4696 14 18 14H19.416ZM24 25H21C20.7348 25 20.4804 25.1054 20.2929 25.2929C20.1054 25.4804 20 25.7348 20 26C20 26.2652 20.1054 26.5196 20.2929 26.7071C20.4804 26.8946 20.7348 27 21 27H24C24.2652 27 24.5196 26.8946 24.7071 26.7071C24.8946 26.5196 25 26.2652 25 26C25 25.7348 24.8946 25.4804 24.7071 25.2929C24.5196 25.1054 24.2652 25 24 25ZM27 21H21C20.7451 21.0003 20.5 21.0979 20.3146 21.2728C20.1293 21.4478 20.0178 21.687 20.0028 21.9414C19.9879 22.1958 20.0707 22.4464 20.2343 22.6418C20.3979 22.8373 20.6299 22.9629 20.883 22.993L21 23H27C27.2652 23 27.5196 22.8946 27.7071 22.7071C27.8946 22.5196 28 22.2652 28 22C28 21.7348 27.8946 21.4804 27.7071 21.2929C27.5196 21.1054 27.2652 21 27 21ZM24 13C24.4221 13 24.8394 13.0891 25.2247 13.2614C25.61 13.4337 25.9546 13.6854 26.236 14C26.664 14.478 26.94 15.093 26.991 15.772L27 16H21C21 15.275 21.257 14.61 21.685 14.092L21.764 14C22.314 13.386 23.112 13 24 13Z" fill="white"/>
</svg>
